ISO-10303-21;
HEADER;
FILE_DESCRIPTION(('Open CASCADE Model'),'2;1');
FILE_NAME('Open CASCADE Shape Model','2026-09-01T11:17:24',('Author'),(
    'Open CASCADE'),'Open CASCADE STEP processor 7.9','Open CASCADE 7.9'
  ,'Unknown');
FILE_SCHEMA(('AUTOMOTIVE_DESIGN { 1 0 10303 214 1 1 1 1 }'));
ENDSEC;
DATA;
#1 = APPLICATION_PROTOCOL_DEFINITION('international standard',
  'automotive_design',2000,#2);
#2 = APPLICATION_CONTEXT(
  'core data for automotive mechanical design processes');
#3 = SHAPE_DEFINITION_REPRESENTATION(#4,#10);
#4 = PRODUCT_DEFINITION_SHAPE('','',#5);
#5 = PRODUCT_DEFINITION('design','',#6,#9);
#6 = PRODUCT_DEFINITION_FORMATION('','',#7);
#7 = PRODUCT('Open CASCADE STEP translator 7.9 21',
  'Open CASCADE STEP translator 7.9 21','',(#8));
#8 = PRODUCT_CONTEXT('',#2,'mechanical');
#9 = PRODUCT_DEFINITION_CONTEXT('part definition',#2,'design');
#10 = ADVANCED_BREP_SHAPE_REPRESENTATION('',(#11,#15),#412);
#11 = AXIS2_PLACEMENT_3D('',#12,#13,#14);
#12 = CARTESIAN_POINT('',(0.,0.,0.));
#13 = DIRECTION('',(0.,0.,1.));
#14 = DIRECTION('',(1.,0.,-0.));
#15 = MANIFOLD_SOLID_BREP('',#16);
#16 = CLOSED_SHELL('',(#17,#133,#190,#247,#349,#405));
#17 = ADVANCED_FACE('',(#18),#33,.T.);
#18 = FACE_BOUND('',#19,.T.);
#19 = EDGE_LOOP('',(#20,#56,#79,#110,#111));
#20 = ORIENTED_EDGE('',*,*,#21,.F.);
#21 = EDGE_CURVE('',#22,#24,#26,.T.);
#22 = VERTEX_POINT('',#23);
#23 = CARTESIAN_POINT('',(0.,-0.5015,0.1420001));
#24 = VERTEX_POINT('',#25);
#25 = CARTESIAN_POINT('',(0.5015,0.,0.1420001));
#26 = SURFACE_CURVE('',#27,(#32,#44),.PCURVE_S1.);
#27 = CIRCLE('',#28,0.5015);
#28 = AXIS2_PLACEMENT_3D('',#29,#30,#31);
#29 = CARTESIAN_POINT('',(-4.440892098501E-16,-6.661338147751E-16,
    0.1420001));
#30 = DIRECTION('',(6.12318272229E-17,-1.083523092603E-48,-1.));
#31 = DIRECTION('',(1.,0.,6.12318272229E-17));
#32 = PCURVE('',#33,#38);
#33 = CYLINDRICAL_SURFACE('',#34,0.5015);
#34 = AXIS2_PLACEMENT_3D('',#35,#36,#37);
#35 = CARTESIAN_POINT('',(-4.440892098501E-16,-6.661338147751E-16,
    0.2120001));
#36 = DIRECTION('',(6.12318272229E-17,-1.368455531567E-48,-1.));
#37 = DIRECTION('',(0.,1.,-1.083523092603E-48));
#38 = DEFINITIONAL_REPRESENTATION('',(#39),#43);
#39 = LINE('',#40,#41);
#40 = CARTESIAN_POINT('',(-4.712388980385,7.E-02));
#41 = VECTOR('',#42,1.);
#42 = DIRECTION('',(1.,0.));
#43 = ( GEOMETRIC_REPRESENTATION_CONTEXT(2) 
PARAMETRIC_REPRESENTATION_CONTEXT() REPRESENTATION_CONTEXT('2D SPACE',''
  ) );
#44 = PCURVE('',#45,#50);
#45 = TOROIDAL_SURFACE('',#46,0.3015,0.2);
#46 = AXIS2_PLACEMENT_3D('',#47,#48,#49);
#47 = CARTESIAN_POINT('',(-4.440892098501E-16,-6.661338147751E-16,
    0.1420001));
#48 = DIRECTION('',(6.12318272229E-17,-1.368455531567E-48,-1.));
#49 = DIRECTION('',(-1.,0.,-6.12318272229E-17));
#50 = DEFINITIONAL_REPRESENTATION('',(#51),#55);
#51 = LINE('',#52,#53);
#52 = CARTESIAN_POINT('',(-3.14159265359,0.));
#53 = VECTOR('',#54,1.);
#54 = DIRECTION('',(1.,0.));
#55 = ( GEOMETRIC_REPRESENTATION_CONTEXT(2) 
PARAMETRIC_REPRESENTATION_CONTEXT() REPRESENTATION_CONTEXT('2D SPACE',''
  ) );
#56 = ORIENTED_EDGE('',*,*,#57,.T.);
#57 = EDGE_CURVE('',#22,#58,#60,.T.);
#58 = VERTEX_POINT('',#59);
#59 = CARTESIAN_POINT('',(0.,-0.5015,0.2820001));
#60 = SEAM_CURVE('',#61,(#65,#72),.PCURVE_S1.);
#61 = LINE('',#62,#63);
#62 = CARTESIAN_POINT('',(-4.440892098501E-16,-0.5015,0.2120001));
#63 = VECTOR('',#64,1.);
#64 = DIRECTION('',(-6.12318272229E-17,1.368455531567E-48,1.));
#65 = PCURVE('',#33,#66);
#66 = DEFINITIONAL_REPRESENTATION('',(#67),#71);
#67 = LINE('',#68,#69);
#68 = CARTESIAN_POINT('',(-3.14159265359,0.));
#69 = VECTOR('',#70,1.);
#70 = DIRECTION('',(0.,-1.));
#71 = ( GEOMETRIC_REPRESENTATION_CONTEXT(2) 
PARAMETRIC_REPRESENTATION_CONTEXT() REPRESENTATION_CONTEXT('2D SPACE',''
  ) );
#72 = PCURVE('',#33,#73);
#73 = DEFINITIONAL_REPRESENTATION('',(#74),#78);
#74 = LINE('',#75,#76);
#75 = CARTESIAN_POINT('',(3.14159265359,0.));
#76 = VECTOR('',#77,1.);
#77 = DIRECTION('',(0.,-1.));
#78 = ( GEOMETRIC_REPRESENTATION_CONTEXT(2) 
PARAMETRIC_REPRESENTATION_CONTEXT() REPRESENTATION_CONTEXT('2D SPACE',''
  ) );
#79 = ORIENTED_EDGE('',*,*,#80,.T.);
#80 = EDGE_CURVE('',#58,#58,#81,.T.);
#81 = SURFACE_CURVE('',#82,(#87,#94),.PCURVE_S1.);
#82 = CIRCLE('',#83,0.5015);
#83 = AXIS2_PLACEMENT_3D('',#84,#85,#86);
#84 = CARTESIAN_POINT('',(-4.440892098501E-16,-6.661338147751E-16,
    0.2820001));
#85 = DIRECTION('',(6.12318272229E-17,-1.083523092603E-48,-1.));
#86 = DIRECTION('',(1.,0.,6.12318272229E-17));
#87 = PCURVE('',#33,#88);
#88 = DEFINITIONAL_REPRESENTATION('',(#89),#93);
#89 = LINE('',#90,#91);
#90 = CARTESIAN_POINT('',(-4.712388980385,-7.E-02));
#91 = VECTOR('',#92,1.);
#92 = DIRECTION('',(1.,0.));
#93 = ( GEOMETRIC_REPRESENTATION_CONTEXT(2) 
PARAMETRIC_REPRESENTATION_CONTEXT() REPRESENTATION_CONTEXT('2D SPACE',''
  ) );
#94 = PCURVE('',#95,#100);
#95 = PLANE('',#96);
#96 = AXIS2_PLACEMENT_3D('',#97,#98,#99);
#97 = CARTESIAN_POINT('',(-4.440892098501E-16,0.5015,0.2820001));
#98 = DIRECTION('',(-6.12318272229E-17,1.368455531567E-48,1.));
#99 = DIRECTION('',(1.,0.,6.12318272229E-17));
#100 = DEFINITIONAL_REPRESENTATION('',(#101),#109);
#101 = ( BOUNDED_CURVE() B_SPLINE_CURVE(2,(#102,#103,#104,#105,#106,#107
,#108),.UNSPECIFIED.,.T.,.F.) B_SPLINE_CURVE_WITH_KNOTS((1,2,2,2,2,1),(
    -2.094395102393,0.,2.094395102393,4.188790204786,6.28318530718,
8.377580409573),.UNSPECIFIED.) CURVE() GEOMETRIC_REPRESENTATION_ITEM() 
RATIONAL_B_SPLINE_CURVE((1.,0.5,1.,0.5,1.,0.5,1.)) REPRESENTATION_ITEM(
  '') );
#102 = CARTESIAN_POINT('',(0.5015,-0.5015));
#103 = CARTESIAN_POINT('',(0.5015,-1.370123479996));
#104 = CARTESIAN_POINT('',(-0.25075,-0.935811739998));
#105 = CARTESIAN_POINT('',(-1.003,-0.5015));
#106 = CARTESIAN_POINT('',(-0.25075,-6.71882600021E-02));
#107 = CARTESIAN_POINT('',(0.5015,0.367123479996));
#108 = CARTESIAN_POINT('',(0.5015,-0.5015));
#109 = ( GEOMETRIC_REPRESENTATION_CONTEXT(2) 
PARAMETRIC_REPRESENTATION_CONTEXT() REPRESENTATION_CONTEXT('2D SPACE',''
  ) );
#110 = ORIENTED_EDGE('',*,*,#57,.F.);
#111 = ORIENTED_EDGE('',*,*,#112,.F.);
#112 = EDGE_CURVE('',#24,#22,#113,.T.);
#113 = SURFACE_CURVE('',#114,(#119,#126),.PCURVE_S1.);
#114 = CIRCLE('',#115,0.5015);
#115 = AXIS2_PLACEMENT_3D('',#116,#117,#118);
#116 = CARTESIAN_POINT('',(-4.440892098501E-16,-6.661338147751E-16,
    0.1420001));
#117 = DIRECTION('',(6.12318272229E-17,-1.083523092603E-48,-1.));
#118 = DIRECTION('',(1.,0.,6.12318272229E-17));
#119 = PCURVE('',#33,#120);
#120 = DEFINITIONAL_REPRESENTATION('',(#121),#125);
#121 = LINE('',#122,#123);
#122 = CARTESIAN_POINT('',(1.570796326795,7.E-02));
#123 = VECTOR('',#124,1.);
#124 = DIRECTION('',(1.,0.));
#125 = ( GEOMETRIC_REPRESENTATION_CONTEXT(2) 
PARAMETRIC_REPRESENTATION_CONTEXT() REPRESENTATION_CONTEXT('2D SPACE',''
  ) );
#126 = PCURVE('',#45,#127);
#127 = DEFINITIONAL_REPRESENTATION('',(#128),#132);
#128 = LINE('',#129,#130);
#129 = CARTESIAN_POINT('',(-3.14159265359,0.));
#130 = VECTOR('',#131,1.);
#131 = DIRECTION('',(1.,0.));
#132 = ( GEOMETRIC_REPRESENTATION_CONTEXT(2) 
PARAMETRIC_REPRESENTATION_CONTEXT() REPRESENTATION_CONTEXT('2D SPACE',''
  ) );
#133 = ADVANCED_FACE('',(#134),#45,.T.);
#134 = FACE_BOUND('',#135,.T.);
#135 = EDGE_LOOP('',(#136,#165,#187,#188,#189));
#136 = ORIENTED_EDGE('',*,*,#137,.F.);
#137 = EDGE_CURVE('',#138,#138,#140,.T.);
#138 = VERTEX_POINT('',#139);
#139 = CARTESIAN_POINT('',(0.468532930885,0.,3.20001E-02));
#140 = SURFACE_CURVE('',#141,(#146,#153),.PCURVE_S1.);
#141 = CIRCLE('',#142,0.468532930885);
#142 = AXIS2_PLACEMENT_3D('',#143,#144,#145);
#143 = CARTESIAN_POINT('',(-4.440892098501E-16,-6.661338147751E-16,
    3.20001E-02));
#144 = DIRECTION('',(6.12318272229E-17,-1.083523092603E-48,-1.));
#145 = DIRECTION('',(1.,0.,6.12318272229E-17));
#146 = PCURVE('',#45,#147);
#147 = DEFINITIONAL_REPRESENTATION('',(#148),#152);
#148 = LINE('',#149,#150);
#149 = CARTESIAN_POINT('',(-3.14159265359,0.582364237869));
#150 = VECTOR('',#151,1.);
#151 = DIRECTION('',(1.,0.));
#152 = ( GEOMETRIC_REPRESENTATION_CONTEXT(2) 
PARAMETRIC_REPRESENTATION_CONTEXT() REPRESENTATION_CONTEXT('2D SPACE',''
  ) );
#153 = PCURVE('',#154,#159);
#154 = PLANE('',#155);
#155 = AXIS2_PLACEMENT_3D('',#156,#157,#158);
#156 = CARTESIAN_POINT('',(-4.440892098501E-16,0.275,3.20001E-02));
#157 = DIRECTION('',(6.12318272229E-17,-1.368455531567E-48,-1.));
#158 = DIRECTION('',(-1.,0.,-6.12318272229E-17));
#159 = DEFINITIONAL_REPRESENTATION('',(#160),#164);
#160 = CIRCLE('',#161,0.468532930885);
#161 = AXIS2_PLACEMENT_2D('',#162,#163);
#162 = CARTESIAN_POINT('',(1.68387524863E-17,-0.275));
#163 = DIRECTION('',(-1.,0.));
#164 = ( GEOMETRIC_REPRESENTATION_CONTEXT(2) 
PARAMETRIC_REPRESENTATION_CONTEXT() REPRESENTATION_CONTEXT('2D SPACE',''
  ) );
#165 = ORIENTED_EDGE('',*,*,#166,.T.);
#166 = EDGE_CURVE('',#138,#24,#167,.T.);
#167 = SEAM_CURVE('',#168,(#173,#180),.PCURVE_S1.);
#168 = CIRCLE('',#169,0.2);
#169 = AXIS2_PLACEMENT_3D('',#170,#171,#172);
#170 = CARTESIAN_POINT('',(0.3015,-6.661338147751E-16,0.1420001));
#171 = DIRECTION('',(-1.224646799147E-16,-1.,-7.498736121447E-33));
#172 = DIRECTION('',(1.,-1.224646799147E-16,6.12318272229E-17));
#173 = PCURVE('',#45,#174);
#174 = DEFINITIONAL_REPRESENTATION('',(#175),#179);
#175 = LINE('',#176,#177);
#176 = CARTESIAN_POINT('',(-3.14159265359,6.28318530718));
#177 = VECTOR('',#178,1.);
#178 = DIRECTION('',(0.,-1.));
#179 = ( GEOMETRIC_REPRESENTATION_CONTEXT(2) 
PARAMETRIC_REPRESENTATION_CONTEXT() REPRESENTATION_CONTEXT('2D SPACE',''
  ) );
#180 = PCURVE('',#45,#181);
#181 = DEFINITIONAL_REPRESENTATION('',(#182),#186);
#182 = LINE('',#183,#184);
#183 = CARTESIAN_POINT('',(3.14159265359,6.28318530718));
#184 = VECTOR('',#185,1.);
#185 = DIRECTION('',(0.,-1.));
#186 = ( GEOMETRIC_REPRESENTATION_CONTEXT(2) 
PARAMETRIC_REPRESENTATION_CONTEXT() REPRESENTATION_CONTEXT('2D SPACE',''
  ) );
#187 = ORIENTED_EDGE('',*,*,#112,.T.);
#188 = ORIENTED_EDGE('',*,*,#21,.T.);
#189 = ORIENTED_EDGE('',*,*,#166,.F.);
#190 = ADVANCED_FACE('',(#191,#194),#154,.T.);
#191 = FACE_BOUND('',#192,.T.);
#192 = EDGE_LOOP('',(#193));
#193 = ORIENTED_EDGE('',*,*,#137,.T.);
#194 = FACE_BOUND('',#195,.T.);
#195 = EDGE_LOOP('',(#196));
#196 = ORIENTED_EDGE('',*,*,#197,.F.);
#197 = EDGE_CURVE('',#198,#198,#200,.T.);
#198 = VERTEX_POINT('',#199);
#199 = CARTESIAN_POINT('',(-0.275,0.,3.20001E-02));
#200 = SURFACE_CURVE('',#201,(#206,#213),.PCURVE_S1.);
#201 = CIRCLE('',#202,0.275);
#202 = AXIS2_PLACEMENT_3D('',#203,#204,#205);
#203 = CARTESIAN_POINT('',(-4.440892098501E-16,-6.661338147751E-16,
    3.20001E-02));
#204 = DIRECTION('',(6.12318272229E-17,-1.083523092603E-48,-1.));
#205 = DIRECTION('',(1.,0.,6.12318272229E-17));
#206 = PCURVE('',#154,#207);
#207 = DEFINITIONAL_REPRESENTATION('',(#208),#212);
#208 = CIRCLE('',#209,0.275);
#209 = AXIS2_PLACEMENT_2D('',#210,#211);
#210 = CARTESIAN_POINT('',(1.68387524863E-17,-0.275));
#211 = DIRECTION('',(-1.,0.));
#212 = ( GEOMETRIC_REPRESENTATION_CONTEXT(2) 
PARAMETRIC_REPRESENTATION_CONTEXT() REPRESENTATION_CONTEXT('2D SPACE',''
  ) );
#213 = PCURVE('',#214,#219);
#214 = SPHERICAL_SURFACE('',#215,0.310746021696);
#215 = AXIS2_PLACEMENT_3D('',#216,#217,#218);
#216 = CARTESIAN_POINT('',(-4.440892098501E-16,-6.661338147751E-16,
    -0.1126999));
#217 = DIRECTION('',(5.127344677027E-22,1.065248124035E-48,1.));
#218 = DIRECTION('',(1.,0.,-5.127344677027E-22));
#219 = DEFINITIONAL_REPRESENTATION('',(#220),#246);
#220 = B_SPLINE_CURVE_WITH_KNOTS('',3,(#221,#222,#223,#224,#225,#226,
    #227,#228,#229,#230,#231,#232,#233,#234,#235,#236,#237,#238,#239,
    #240,#241,#242,#243,#244,#245),.UNSPECIFIED.,.F.,.F.,(4,1,1,1,1,1,1,
    1,1,1,1,1,1,1,1,1,1,1,1,1,1,1,4),(3.14159265359,3.427191985734,
    3.712791317879,3.998390650023,4.283989982168,4.569589314312,
    4.855188646457,5.140787978601,5.426387310746,5.711986642891,
    5.997585975035,6.28318530718,6.568784639324,6.854383971469,
    7.139983303613,7.425582635758,7.711181967902,7.996781300047,
    8.282380632191,8.567979964336,8.85357929648,9.139178628625,
    9.424777960769),.QUASI_UNIFORM_KNOTS.);
#221 = CARTESIAN_POINT('',(3.14159265359,0.48437301297));
#222 = CARTESIAN_POINT('',(3.046392876208,0.48437301297));
#223 = CARTESIAN_POINT('',(2.855993321445,0.48437301297));
#224 = CARTESIAN_POINT('',(2.570393989301,0.48437301297));
#225 = CARTESIAN_POINT('',(2.284794657156,0.48437301297));
#226 = CARTESIAN_POINT('',(1.999195325012,0.48437301297));
#227 = CARTESIAN_POINT('',(1.713595992867,0.48437301297));
#228 = CARTESIAN_POINT('',(1.427996660723,0.48437301297));
#229 = CARTESIAN_POINT('',(1.142397328578,0.48437301297));
#230 = CARTESIAN_POINT('',(0.856797996434,0.48437301297));
#231 = CARTESIAN_POINT('',(0.571198664289,0.48437301297));
#232 = CARTESIAN_POINT('',(0.285599332145,0.48437301297));
#233 = CARTESIAN_POINT('',(2.900462787952E-16,0.48437301297));
#234 = CARTESIAN_POINT('',(-0.285599332145,0.48437301297));
#235 = CARTESIAN_POINT('',(-0.571198664289,0.48437301297));
#236 = CARTESIAN_POINT('',(-0.856797996434,0.48437301297));
#237 = CARTESIAN_POINT('',(-1.142397328578,0.48437301297));
#238 = CARTESIAN_POINT('',(-1.427996660723,0.48437301297));
#239 = CARTESIAN_POINT('',(-1.713595992867,0.48437301297));
#240 = CARTESIAN_POINT('',(-1.999195325012,0.48437301297));
#241 = CARTESIAN_POINT('',(-2.284794657156,0.48437301297));
#242 = CARTESIAN_POINT('',(-2.570393989301,0.48437301297));
#243 = CARTESIAN_POINT('',(-2.855993321445,0.48437301297));
#244 = CARTESIAN_POINT('',(-3.046392876208,0.48437301297));
#245 = CARTESIAN_POINT('',(-3.14159265359,0.48437301297));
#246 = ( GEOMETRIC_REPRESENTATION_CONTEXT(2) 
PARAMETRIC_REPRESENTATION_CONTEXT() REPRESENTATION_CONTEXT('2D SPACE',''
  ) );
#247 = ADVANCED_FACE('',(#248),#214,.F.);
#248 = FACE_BOUND('',#249,.F.);
#249 = EDGE_LOOP('',(#250,#303,#325,#326,#327));
#250 = ORIENTED_EDGE('',*,*,#251,.T.);
#251 = EDGE_CURVE('',#252,#254,#256,.T.);
#252 = VERTEX_POINT('',#253);
#253 = CARTESIAN_POINT('',(6.1E-02,0.,0.1920001));
#254 = VERTEX_POINT('',#255);
#255 = CARTESIAN_POINT('',(-6.1E-02,0.,0.1920001));
#256 = SURFACE_CURVE('',#257,(#262,#291),.PCURVE_S1.);
#257 = CIRCLE('',#258,6.1E-02);
#258 = AXIS2_PLACEMENT_3D('',#259,#260,#261);
#259 = CARTESIAN_POINT('',(-4.440892098501E-16,-6.661338147751E-16,
    0.1920001));
#260 = DIRECTION('',(6.12318272229E-17,-1.083523092603E-48,-1.));
#261 = DIRECTION('',(1.,0.,6.12318272229E-17));
#262 = PCURVE('',#214,#263);
#263 = DEFINITIONAL_REPRESENTATION('',(#264),#290);
#264 = B_SPLINE_CURVE_WITH_KNOTS('',3,(#265,#266,#267,#268,#269,#270,
    #271,#272,#273,#274,#275,#276,#277,#278,#279,#280,#281,#282,#283,
    #284,#285,#286,#287,#288,#289),.UNSPECIFIED.,.F.,.F.,(4,1,1,1,1,1,1,
    1,1,1,1,1,1,1,1,1,1,1,1,1,1,1,4),(0.,0.142799666072,0.285599332145,
    0.428398998217,0.571198664289,0.713998330361,0.856797996434,
    0.999597662506,1.142397328578,1.28519699465,1.427996660723,
    1.570796326795,1.713595992867,1.856395658939,1.999195325012,
    2.141994991084,2.284794657156,2.427594323228,2.570393989301,
    2.713193655373,2.855993321445,2.998792987518,3.14159265359),
  .QUASI_UNIFORM_KNOTS.);
#265 = CARTESIAN_POINT('',(0.,1.373211432772));
#266 = CARTESIAN_POINT('',(-4.759988869075E-02,1.373211432772));
#267 = CARTESIAN_POINT('',(-0.142799666072,1.373211432772));
#268 = CARTESIAN_POINT('',(-0.285599332145,1.373211432772));
#269 = CARTESIAN_POINT('',(-0.428398998217,1.373211432772));
#270 = CARTESIAN_POINT('',(-0.571198664289,1.373211432772));
#271 = CARTESIAN_POINT('',(-0.713998330361,1.373211432772));
#272 = CARTESIAN_POINT('',(-0.856797996434,1.373211432772));
#273 = CARTESIAN_POINT('',(-0.999597662506,1.373211432772));
#274 = CARTESIAN_POINT('',(-1.142397328578,1.373211432772));
#275 = CARTESIAN_POINT('',(-1.28519699465,1.373211432772));
#276 = CARTESIAN_POINT('',(-1.427996660723,1.373211432772));
#277 = CARTESIAN_POINT('',(-1.570796326795,1.373211432772));
#278 = CARTESIAN_POINT('',(-1.713595992867,1.373211432772));
#279 = CARTESIAN_POINT('',(-1.856395658939,1.373211432772));
#280 = CARTESIAN_POINT('',(-1.999195325012,1.373211432772));
#281 = CARTESIAN_POINT('',(-2.141994991084,1.373211432772));
#282 = CARTESIAN_POINT('',(-2.284794657156,1.373211432772));
#283 = CARTESIAN_POINT('',(-2.427594323228,1.373211432772));
#284 = CARTESIAN_POINT('',(-2.570393989301,1.373211432772));
#285 = CARTESIAN_POINT('',(-2.713193655373,1.373211432772));
#286 = CARTESIAN_POINT('',(-2.855993321445,1.373211432772));
#287 = CARTESIAN_POINT('',(-2.998792987518,1.373211432772));
#288 = CARTESIAN_POINT('',(-3.093992764899,1.373211432772));
#289 = CARTESIAN_POINT('',(-3.14159265359,1.373211432772));
#290 = ( GEOMETRIC_REPRESENTATION_CONTEXT(2) 
PARAMETRIC_REPRESENTATION_CONTEXT() REPRESENTATION_CONTEXT('2D SPACE',''
  ) );
#291 = PCURVE('',#292,#297);
#292 = TOROIDAL_SURFACE('',#293,0.15725,0.10625);
#293 = AXIS2_PLACEMENT_3D('',#294,#295,#296);
#294 = CARTESIAN_POINT('',(-4.440892098501E-16,-6.661338147751E-16,
    0.2370001));
#295 = DIRECTION('',(6.12318272229E-17,-1.368455531567E-48,-1.));
#296 = DIRECTION('',(-1.,0.,-6.12318272229E-17));
#297 = DEFINITIONAL_REPRESENTATION('',(#298),#302);
#298 = LINE('',#299,#300);
#299 = CARTESIAN_POINT('',(-3.14159265359,2.704254761842));
#300 = VECTOR('',#301,1.);
#301 = DIRECTION('',(1.,0.));
#302 = ( GEOMETRIC_REPRESENTATION_CONTEXT(2) 
PARAMETRIC_REPRESENTATION_CONTEXT() REPRESENTATION_CONTEXT('2D SPACE',''
  ) );
#303 = ORIENTED_EDGE('',*,*,#304,.T.);
#304 = EDGE_CURVE('',#254,#198,#305,.T.);
#305 = SEAM_CURVE('',#306,(#311,#318),.PCURVE_S1.);
#306 = CIRCLE('',#307,0.310746021696);
#307 = AXIS2_PLACEMENT_3D('',#308,#309,#310);
#308 = CARTESIAN_POINT('',(-4.440892098501E-16,-6.661338147751E-16,
    -0.1126999));
#309 = DIRECTION('',(1.224646799147E-16,-1.,7.498736121447E-33));
#310 = DIRECTION('',(-1.,-1.224646799147E-16,-6.12318272229E-17));
#311 = PCURVE('',#214,#312);
#312 = DEFINITIONAL_REPRESENTATION('',(#313),#317);
#313 = LINE('',#314,#315);
#314 = CARTESIAN_POINT('',(-3.14159265359,6.28318530718));
#315 = VECTOR('',#316,1.);
#316 = DIRECTION('',(0.,-1.));
#317 = ( GEOMETRIC_REPRESENTATION_CONTEXT(2) 
PARAMETRIC_REPRESENTATION_CONTEXT() REPRESENTATION_CONTEXT('2D SPACE',''
  ) );
#318 = PCURVE('',#214,#319);
#319 = DEFINITIONAL_REPRESENTATION('',(#320),#324);
#320 = LINE('',#321,#322);
#321 = CARTESIAN_POINT('',(3.14159265359,6.28318530718));
#322 = VECTOR('',#323,1.);
#323 = DIRECTION('',(0.,-1.));
#324 = ( GEOMETRIC_REPRESENTATION_CONTEXT(2) 
PARAMETRIC_REPRESENTATION_CONTEXT() REPRESENTATION_CONTEXT('2D SPACE',''
  ) );
#325 = ORIENTED_EDGE('',*,*,#197,.F.);
#326 = ORIENTED_EDGE('',*,*,#304,.F.);
#327 = ORIENTED_EDGE('',*,*,#328,.T.);
#328 = EDGE_CURVE('',#254,#252,#329,.T.);
#329 = SURFACE_CURVE('',#330,(#335,#342),.PCURVE_S1.);
#330 = CIRCLE('',#331,6.1E-02);
#331 = AXIS2_PLACEMENT_3D('',#332,#333,#334);
#332 = CARTESIAN_POINT('',(-4.440892098501E-16,-6.661338147751E-16,
    0.1920001));
#333 = DIRECTION('',(6.12318272229E-17,-1.083523092603E-48,-1.));
#334 = DIRECTION('',(1.,0.,6.12318272229E-17));
#335 = PCURVE('',#214,#336);
#336 = DEFINITIONAL_REPRESENTATION('',(#337),#341);
#337 = LINE('',#338,#339);
#338 = CARTESIAN_POINT('',(6.28318530718,1.373211432772));
#339 = VECTOR('',#340,1.);
#340 = DIRECTION('',(-1.,0.));
#341 = ( GEOMETRIC_REPRESENTATION_CONTEXT(2) 
PARAMETRIC_REPRESENTATION_CONTEXT() REPRESENTATION_CONTEXT('2D SPACE',''
  ) );
#342 = PCURVE('',#292,#343);
#343 = DEFINITIONAL_REPRESENTATION('',(#344),#348);
#344 = LINE('',#345,#346);
#345 = CARTESIAN_POINT('',(-3.14159265359,2.704254761842));
#346 = VECTOR('',#347,1.);
#347 = DIRECTION('',(1.,0.));
#348 = ( GEOMETRIC_REPRESENTATION_CONTEXT(2) 
PARAMETRIC_REPRESENTATION_CONTEXT() REPRESENTATION_CONTEXT('2D SPACE',''
  ) );
#349 = ADVANCED_FACE('',(#350),#292,.T.);
#350 = FACE_BOUND('',#351,.T.);
#351 = EDGE_LOOP('',(#352,#380,#402,#403,#404));
#352 = ORIENTED_EDGE('',*,*,#353,.F.);
#353 = EDGE_CURVE('',#354,#354,#356,.T.);
#354 = VERTEX_POINT('',#355);
#355 = CARTESIAN_POINT('',(6.1E-02,0.,0.2820001));
#356 = SURFACE_CURVE('',#357,(#362,#369),.PCURVE_S1.);
#357 = CIRCLE('',#358,6.1E-02);
#358 = AXIS2_PLACEMENT_3D('',#359,#360,#361);
#359 = CARTESIAN_POINT('',(-4.440892098501E-16,-6.661338147751E-16,
    0.2820001));
#360 = DIRECTION('',(6.12318272229E-17,-1.083523092603E-48,-1.));
#361 = DIRECTION('',(1.,0.,6.12318272229E-17));
#362 = PCURVE('',#292,#363);
#363 = DEFINITIONAL_REPRESENTATION('',(#364),#368);
#364 = LINE('',#365,#366);
#365 = CARTESIAN_POINT('',(-3.14159265359,3.578930545338));
#366 = VECTOR('',#367,1.);
#367 = DIRECTION('',(1.,0.));
#368 = ( GEOMETRIC_REPRESENTATION_CONTEXT(2) 
PARAMETRIC_REPRESENTATION_CONTEXT() REPRESENTATION_CONTEXT('2D SPACE',''
  ) );
#369 = PCURVE('',#95,#370);
#370 = DEFINITIONAL_REPRESENTATION('',(#371),#379);
#371 = ( BOUNDED_CURVE() B_SPLINE_CURVE(2,(#372,#373,#374,#375,#376,#377
,#378),.UNSPECIFIED.,.T.,.F.) B_SPLINE_CURVE_WITH_KNOTS((1,2,2,2,2,1),(
    -2.094395102393,0.,2.094395102393,4.188790204786,6.28318530718,
8.377580409573),.UNSPECIFIED.) CURVE() GEOMETRIC_REPRESENTATION_ITEM() 
RATIONAL_B_SPLINE_CURVE((1.,0.5,1.,0.5,1.,0.5,1.)) REPRESENTATION_ITEM(
  '') );
#372 = CARTESIAN_POINT('',(6.1E-02,-0.5015));
#373 = CARTESIAN_POINT('',(6.1E-02,-0.607155099262));
#374 = CARTESIAN_POINT('',(-3.05E-02,-0.554327549631));
#375 = CARTESIAN_POINT('',(-0.122,-0.5015));
#376 = CARTESIAN_POINT('',(-3.05E-02,-0.448672450369));
#377 = CARTESIAN_POINT('',(6.1E-02,-0.395844900738));
#378 = CARTESIAN_POINT('',(6.1E-02,-0.5015));
#379 = ( GEOMETRIC_REPRESENTATION_CONTEXT(2) 
PARAMETRIC_REPRESENTATION_CONTEXT() REPRESENTATION_CONTEXT('2D SPACE',''
  ) );
#380 = ORIENTED_EDGE('',*,*,#381,.T.);
#381 = EDGE_CURVE('',#354,#252,#382,.T.);
#382 = SEAM_CURVE('',#383,(#388,#395),.PCURVE_S1.);
#383 = CIRCLE('',#384,0.10625);
#384 = AXIS2_PLACEMENT_3D('',#385,#386,#387);
#385 = CARTESIAN_POINT('',(0.15725,-6.661338147751E-16,0.2370001));
#386 = DIRECTION('',(-1.224646799147E-16,-1.,-7.498736121447E-33));
#387 = DIRECTION('',(1.,-1.224646799147E-16,6.12318272229E-17));
#388 = PCURVE('',#292,#389);
#389 = DEFINITIONAL_REPRESENTATION('',(#390),#394);
#390 = LINE('',#391,#392);
#391 = CARTESIAN_POINT('',(-3.14159265359,6.28318530718));
#392 = VECTOR('',#393,1.);
#393 = DIRECTION('',(0.,-1.));
#394 = ( GEOMETRIC_REPRESENTATION_CONTEXT(2) 
PARAMETRIC_REPRESENTATION_CONTEXT() REPRESENTATION_CONTEXT('2D SPACE',''
  ) );
#395 = PCURVE('',#292,#396);
#396 = DEFINITIONAL_REPRESENTATION('',(#397),#401);
#397 = LINE('',#398,#399);
#398 = CARTESIAN_POINT('',(3.14159265359,6.28318530718));
#399 = VECTOR('',#400,1.);
#400 = DIRECTION('',(0.,-1.));
#401 = ( GEOMETRIC_REPRESENTATION_CONTEXT(2) 
PARAMETRIC_REPRESENTATION_CONTEXT() REPRESENTATION_CONTEXT('2D SPACE',''
  ) );
#402 = ORIENTED_EDGE('',*,*,#251,.T.);
#403 = ORIENTED_EDGE('',*,*,#328,.T.);
#404 = ORIENTED_EDGE('',*,*,#381,.F.);
#405 = ADVANCED_FACE('',(#406,#409),#95,.T.);
#406 = FACE_BOUND('',#407,.T.);
#407 = EDGE_LOOP('',(#408));
#408 = ORIENTED_EDGE('',*,*,#80,.F.);
#409 = FACE_BOUND('',#410,.T.);
#410 = EDGE_LOOP('',(#411));
#411 = ORIENTED_EDGE('',*,*,#353,.T.);
#412 = ( GEOMETRIC_REPRESENTATION_CONTEXT(3) 
GLOBAL_UNCERTAINTY_ASSIGNED_CONTEXT((#416)) GLOBAL_UNIT_ASSIGNED_CONTEXT
((#413,#414,#415)) REPRESENTATION_CONTEXT('Context #1',
  '3D Context with UNIT and UNCERTAINTY') );
#413 = ( LENGTH_UNIT() NAMED_UNIT(*) SI_UNIT(.MILLI.,.METRE.) );
#414 = ( NAMED_UNIT(*) PLANE_ANGLE_UNIT() SI_UNIT($,.RADIAN.) );
#415 = ( NAMED_UNIT(*) SI_UNIT($,.STERADIAN.) SOLID_ANGLE_UNIT() );
#416 = UNCERTAINTY_MEASURE_WITH_UNIT(LENGTH_MEASURE(1.E-07),#413,
  'distance_accuracy_value','confusion accuracy');
#417 = PRODUCT_RELATED_PRODUCT_CATEGORY('part',$,(#7));
ENDSEC;
END-ISO-10303-21;
