ISO-10303-21;
HEADER;
FILE_DESCRIPTION(('Open CASCADE Model'),'2;1');
FILE_NAME('Open CASCADE Shape Model','2026-09-01T11:17:24',('Author'),(
    'Open CASCADE'),'Open CASCADE STEP processor 7.9','Open CASCADE 7.9'
  ,'Unknown');
FILE_SCHEMA(('AUTOMOTIVE_DESIGN { 1 0 10303 214 1 1 1 1 }'));
ENDSEC;
DATA;
#1 = APPLICATION_PROTOCOL_DEFINITION('international standard',
  'automotive_design',2000,#2);
#2 = APPLICATION_CONTEXT(
  'core data for automotive mechanical design processes');
#3 = SHAPE_DEFINITION_REPRESENTATION(#4,#10);
#4 = PRODUCT_DEFINITION_SHAPE('','',#5);
#5 = PRODUCT_DEFINITION('design','',#6,#9);
#6 = PRODUCT_DEFINITION_FORMATION('','',#7);
#7 = PRODUCT('Open CASCADE STEP translator 7.9 18',
  'Open CASCADE STEP translator 7.9 18','',(#8));
#8 = PRODUCT_CONTEXT('',#2,'mechanical');
#9 = PRODUCT_DEFINITION_CONTEXT('part definition',#2,'design');
#10 = ADVANCED_BREP_SHAPE_REPRESENTATION('',(#11,#15),#1077);
#11 = AXIS2_PLACEMENT_3D('',#12,#13,#14);
#12 = CARTESIAN_POINT('',(0.,0.,0.));
#13 = DIRECTION('',(0.,0.,1.));
#14 = DIRECTION('',(1.,0.,-0.));
#15 = MANIFOLD_SOLID_BREP('',#16);
#16 = CLOSED_SHELL('',(#17,#130,#160,#273,#303,#336,#412,#605,#612,#640,
    #647,#682,#762,#818,#873,#928,#983,#1018,#1073));
#17 = ADVANCED_FACE('',(#18),#32,.T.);
#18 = FACE_BOUND('',#19,.T.);
#19 = EDGE_LOOP('',(#20,#54,#82,#104));
#20 = ORIENTED_EDGE('',*,*,#21,.T.);
#21 = EDGE_CURVE('',#22,#24,#26,.T.);
#22 = VERTEX_POINT('',#23);
#23 = CARTESIAN_POINT('',(0.641084207967,0.468451745963,1.900813819462)
  );
#24 = VERTEX_POINT('',#25);
#25 = CARTESIAN_POINT('',(0.566276370808,0.482563023723,1.950813819462)
  );
#26 = SURFACE_CURVE('',#27,(#31,#43),.PCURVE_S1.);
#27 = B_SPLINE_CURVE_WITH_KNOTS('',2,(#28,#29,#30),.UNSPECIFIED.,.F.,.F.
  ,(3,3),(0.,9.108263648451E-03),.PIECEWISE_BEZIER_KNOTS.);
#28 = CARTESIAN_POINT('',(0.641084207967,0.468451745963,1.900813819462)
  );
#29 = CARTESIAN_POINT('',(0.603203675249,0.476320612787,1.926756422626)
  );
#30 = CARTESIAN_POINT('',(0.566276370808,0.482563023723,1.950813819462)
  );
#31 = PCURVE('',#32,#37);
#32 = PLANE('',#33);
#33 = AXIS2_PLACEMENT_3D('',#34,#35,#36);
#34 = CARTESIAN_POINT('',(-0.224347041653,-9.780332380304E-03,
    1.925813819462));
#35 = DIRECTION('',(0.357538677646,-0.610054172994,0.707106781187));
#36 = DIRECTION('',(0.86274688523,0.505636047,-2.831068712794E-15));
#37 = DEFINITIONAL_REPRESENTATION('',(#38),#42);
#38 = B_SPLINE_CURVE_WITH_KNOTS('',2,(#39,#40,#41),.UNSPECIFIED.,.F.,.F.
  ,(3,3),(0.,9.108263648451E-03),.PIECEWISE_BEZIER_KNOTS.);
#39 = CARTESIAN_POINT('',(0.988459492632,-3.535533905933E-02));
#40 = CARTESIAN_POINT('',(0.959756963735,1.333042178099E-03));
#41 = CARTESIAN_POINT('',(0.931054434837,3.535533905933E-02));
#42 = ( GEOMETRIC_REPRESENTATION_CONTEXT(2) 
PARAMETRIC_REPRESENTATION_CONTEXT() REPRESENTATION_CONTEXT('2D SPACE',''
  ) );
#43 = PCURVE('',#44,#49);
#44 = CONICAL_SURFACE('',#45,0.769,0.785398163397);
#45 = AXIS2_PLACEMENT_3D('',#46,#47,#48);
#46 = CARTESIAN_POINT('',(-4.440892098501E-15,7.216449660064E-16,
    1.925813819462));
#47 = DIRECTION('',(-2.831068712794E-15,2.563797941968E-30,-1.));
#48 = DIRECTION('',(-0.86274688523,-0.505636047,2.886579864025E-15));
#49 = DEFINITIONAL_REPRESENTATION('',(#50),#53);
#50 = B_SPLINE_CURVE_WITH_KNOTS('',1,(#51,#52),.UNSPECIFIED.,.F.,.F.,(2,
    2),(0.,9.108263648451E-03),.PIECEWISE_BEZIER_KNOTS.);
#51 = CARTESIAN_POINT('',(3.040665728948,2.5E-02));
#52 = CARTESIAN_POINT('',(2.965959909297,-2.5E-02));
#53 = ( GEOMETRIC_REPRESENTATION_CONTEXT(2) 
PARAMETRIC_REPRESENTATION_CONTEXT() REPRESENTATION_CONTEXT('2D SPACE',''
  ) );
#54 = ORIENTED_EDGE('',*,*,#55,.T.);
#55 = EDGE_CURVE('',#24,#56,#58,.T.);
#56 = VERTEX_POINT('',#57);
#57 = CARTESIAN_POINT('',(-0.697741743028,-0.258248833563,1.950813819462
    ));
#58 = SURFACE_CURVE('',#59,(#63,#70),.PCURVE_S1.);
#59 = LINE('',#60,#61);
#60 = CARTESIAN_POINT('',(-0.236987942828,1.178833975045E-02,
    1.950813819462));
#61 = VECTOR('',#62,1.);
#62 = DIRECTION('',(-0.86274688523,-0.505636047,2.886579864025E-15));
#63 = PCURVE('',#32,#64);
#64 = DEFINITIONAL_REPRESENTATION('',(#65),#69);
#65 = LINE('',#66,#67);
#66 = CARTESIAN_POINT('',(-4.302114220422E-16,3.535533905933E-02));
#67 = VECTOR('',#68,1.);
#68 = DIRECTION('',(-1.,2.775557561563E-16));
#69 = ( GEOMETRIC_REPRESENTATION_CONTEXT(2) 
PARAMETRIC_REPRESENTATION_CONTEXT() REPRESENTATION_CONTEXT('2D SPACE',''
  ) );
#70 = PCURVE('',#71,#76);
#71 = PLANE('',#72);
#72 = AXIS2_PLACEMENT_3D('',#73,#74,#75);
#73 = CARTESIAN_POINT('',(-0.342510513436,-0.200737510659,1.950813819462
    ));
#74 = DIRECTION('',(2.831068712794E-15,-2.366582715663E-30,1.));
#75 = DIRECTION('',(-0.505636047,0.86274688523,1.720845688169E-15));
#76 = DEFINITIONAL_REPRESENTATION('',(#77),#81);
#77 = LINE('',#78,#79);
#78 = CARTESIAN_POINT('',(0.13,-0.1985));
#79 = VECTOR('',#80,1.);
#80 = DIRECTION('',(1.52655665886E-16,1.));
#81 = ( GEOMETRIC_REPRESENTATION_CONTEXT(2) 
PARAMETRIC_REPRESENTATION_CONTEXT() REPRESENTATION_CONTEXT('2D SPACE',''
  ) );
#82 = ORIENTED_EDGE('',*,*,#83,.T.);
#83 = EDGE_CURVE('',#56,#84,#86,.T.);
#84 = VERTEX_POINT('',#85);
#85 = CARTESIAN_POINT('',(-0.721985975487,-0.330412244326,1.900813819462
    ));
#86 = SURFACE_CURVE('',#87,(#91,#98),.PCURVE_S1.);
#87 = B_SPLINE_CURVE_WITH_KNOTS('',2,(#88,#89,#90),.UNSPECIFIED.,.F.,.F.
  ,(3,3),(0.,9.108263648451E-03),.PIECEWISE_BEZIER_KNOTS.);
#88 = CARTESIAN_POINT('',(-0.697741743028,-0.258248833563,1.950813819462
    ));
#89 = CARTESIAN_POINT('',(-0.710340473395,-0.293517311001,1.926756422626
    ));
#90 = CARTESIAN_POINT('',(-0.721985975487,-0.330412244326,1.900813819462
    ));
#91 = PCURVE('',#32,#92);
#92 = DEFINITIONAL_REPRESENTATION('',(#93),#97);
#93 = B_SPLINE_CURVE_WITH_KNOTS('',2,(#94,#95,#96),.UNSPECIFIED.,.F.,.F.
  ,(3,3),(0.,9.108263648451E-03),.PIECEWISE_BEZIER_KNOTS.);
#94 = CARTESIAN_POINT('',(-0.534054434837,3.535533905933E-02));
#95 = CARTESIAN_POINT('',(-0.562756963735,1.333042178099E-03));
#96 = CARTESIAN_POINT('',(-0.591459492632,-3.535533905933E-02));
#97 = ( GEOMETRIC_REPRESENTATION_CONTEXT(2) 
PARAMETRIC_REPRESENTATION_CONTEXT() REPRESENTATION_CONTEXT('2D SPACE',''
  ) );
#98 = PCURVE('',#44,#99);
#99 = DEFINITIONAL_REPRESENTATION('',(#100),#103);
#100 = B_SPLINE_CURVE_WITH_KNOTS('',1,(#101,#102),.UNSPECIFIED.,.F.,.F.,
  (2,2),(0.,9.108263648451E-03),.PIECEWISE_BEZIER_KNOTS.);
#101 = CARTESIAN_POINT('',(0.175632744292,-2.5E-02));
#102 = CARTESIAN_POINT('',(0.100926924642,2.5E-02));
#103 = ( GEOMETRIC_REPRESENTATION_CONTEXT(2) 
PARAMETRIC_REPRESENTATION_CONTEXT() REPRESENTATION_CONTEXT('2D SPACE',''
  ) );
#104 = ORIENTED_EDGE('',*,*,#105,.T.);
#105 = EDGE_CURVE('',#84,#22,#106,.T.);
#106 = SURFACE_CURVE('',#107,(#111,#118),.PCURVE_S1.);
#107 = LINE('',#108,#109);
#108 = CARTESIAN_POINT('',(-0.211706140478,-3.134900451106E-02,
    1.900813819462));
#109 = VECTOR('',#110,1.);
#110 = DIRECTION('',(0.86274688523,0.505636047,-2.886579864025E-15));
#111 = PCURVE('',#32,#112);
#112 = DEFINITIONAL_REPRESENTATION('',(#113),#117);
#113 = LINE('',#114,#115);
#114 = CARTESIAN_POINT('',(-9.367506770275E-17,-3.535533905933E-02));
#115 = VECTOR('',#116,1.);
#116 = DIRECTION('',(1.,-2.775557561563E-16));
#117 = ( GEOMETRIC_REPRESENTATION_CONTEXT(2) 
PARAMETRIC_REPRESENTATION_CONTEXT() REPRESENTATION_CONTEXT('2D SPACE',''
  ) );
#118 = PCURVE('',#119,#124);
#119 = PLANE('',#120);
#120 = AXIS2_PLACEMENT_3D('',#121,#122,#123);
#121 = CARTESIAN_POINT('',(-4.045088375999E-02,6.901975081841E-02,
    2.250813819462));
#122 = DIRECTION('',(-0.505636047,0.86274688523,1.720845688169E-15));
#123 = DIRECTION('',(-0.86274688523,-0.505636047,2.831068712794E-15));
#124 = DEFINITIONAL_REPRESENTATION('',(#125),#129);
#125 = LINE('',#126,#127);
#126 = CARTESIAN_POINT('',(0.1985,-0.35));
#127 = VECTOR('',#128,1.);
#128 = DIRECTION('',(-1.,-3.330669073875E-16));
#129 = ( GEOMETRIC_REPRESENTATION_CONTEXT(2) 
PARAMETRIC_REPRESENTATION_CONTEXT() REPRESENTATION_CONTEXT('2D SPACE',''
  ) );
#130 = ADVANCED_FACE('',(#131),#71,.T.);
#131 = FACE_BOUND('',#132,.T.);
#132 = EDGE_LOOP('',(#133,#134));
#133 = ORIENTED_EDGE('',*,*,#55,.F.);
#134 = ORIENTED_EDGE('',*,*,#135,.F.);
#135 = EDGE_CURVE('',#56,#24,#136,.T.);
#136 = SURFACE_CURVE('',#137,(#142,#153),.PCURVE_S1.);
#137 = CIRCLE('',#138,0.744);
#138 = AXIS2_PLACEMENT_3D('',#139,#140,#141);
#139 = CARTESIAN_POINT('',(-4.440892098501E-15,7.216449660064E-16,
    1.950813819462));
#140 = DIRECTION('',(-3.360509397919E-15,2.509542563436E-17,-1.));
#141 = DIRECTION('',(-0.86274688523,-0.505636047,2.886579864025E-15));
#142 = PCURVE('',#71,#143);
#143 = DEFINITIONAL_REPRESENTATION('',(#144),#152);
#144 = ( BOUNDED_CURVE() B_SPLINE_CURVE(2,(#145,#146,#147,#148,#149,#150
,#151),.UNSPECIFIED.,.T.,.F.) B_SPLINE_CURVE_WITH_KNOTS((1,2,2,2,2,1),(
    -2.094395102393,0.,2.094395102393,4.188790204786,6.28318530718,
8.377580409573),.UNSPECIFIED.) CURVE() GEOMETRIC_REPRESENTATION_ITEM() 
RATIONAL_B_SPLINE_CURVE((1.,0.5,1.,0.5,1.,0.5,1.)) REPRESENTATION_ITEM(
  '') );
#145 = CARTESIAN_POINT('',(2.6284530108E-16,0.347));
#146 = CARTESIAN_POINT('',(1.288645800831,0.347));
#147 = CARTESIAN_POINT('',(0.644322900416,-0.769));
#148 = CARTESIAN_POINT('',(1.353205209227E-16,-1.885));
#149 = CARTESIAN_POINT('',(-0.644322900416,-0.769));
#150 = CARTESIAN_POINT('',(-1.288645800831,0.347));
#151 = CARTESIAN_POINT('',(2.6284530108E-16,0.347));
#152 = ( GEOMETRIC_REPRESENTATION_CONTEXT(2) 
PARAMETRIC_REPRESENTATION_CONTEXT() REPRESENTATION_CONTEXT('2D SPACE',''
  ) );
#153 = PCURVE('',#44,#154);
#154 = DEFINITIONAL_REPRESENTATION('',(#155),#159);
#155 = LINE('',#156,#157);
#156 = CARTESIAN_POINT('',(0.,-2.5E-02));
#157 = VECTOR('',#158,1.);
#158 = DIRECTION('',(1.,0.));
#159 = ( GEOMETRIC_REPRESENTATION_CONTEXT(2) 
PARAMETRIC_REPRESENTATION_CONTEXT() REPRESENTATION_CONTEXT('2D SPACE',''
  ) );
#160 = ADVANCED_FACE('',(#161),#175,.T.);
#161 = FACE_BOUND('',#162,.T.);
#162 = EDGE_LOOP('',(#163,#197,#225,#247));
#163 = ORIENTED_EDGE('',*,*,#164,.T.);
#164 = EDGE_CURVE('',#165,#167,#169,.T.);
#165 = VERTEX_POINT('',#166);
#166 = CARTESIAN_POINT('',(-0.641084207967,-0.468451745963,
    1.900813819462));
#167 = VERTEX_POINT('',#168);
#168 = CARTESIAN_POINT('',(-0.566276370808,-0.482563023723,
    1.950813819462));
#169 = SURFACE_CURVE('',#170,(#174,#186),.PCURVE_S1.);
#170 = B_SPLINE_CURVE_WITH_KNOTS('',2,(#171,#172,#173),.UNSPECIFIED.,.F.
  ,.F.,(3,3),(0.,9.108263648451E-03),.PIECEWISE_BEZIER_KNOTS.);
#171 = CARTESIAN_POINT('',(-0.641084207967,-0.468451745963,
    1.900813819462));
#172 = CARTESIAN_POINT('',(-0.603203675249,-0.476320612787,
    1.926756422626));
#173 = CARTESIAN_POINT('',(-0.566276370808,-0.482563023723,
    1.950813819462));
#174 = PCURVE('',#175,#180);
#175 = PLANE('',#176);
#176 = AXIS2_PLACEMENT_3D('',#177,#178,#179);
#177 = CARTESIAN_POINT('',(-0.118163471783,-0.190957178279,
    1.925813819462));
#178 = DIRECTION('',(-0.357538677646,0.610054172994,0.707106781187));
#179 = DIRECTION('',(-0.86274688523,-0.505636047,2.831068712794E-15));
#180 = DEFINITIONAL_REPRESENTATION('',(#181),#185);
#181 = B_SPLINE_CURVE_WITH_KNOTS('',2,(#182,#183,#184),.UNSPECIFIED.,.F.
  ,.F.,(3,3),(0.,9.108263648451E-03),.PIECEWISE_BEZIER_KNOTS.);
#182 = CARTESIAN_POINT('',(0.591459492632,-3.535533905933E-02));
#183 = CARTESIAN_POINT('',(0.562756963735,1.333042178091E-03));
#184 = CARTESIAN_POINT('',(0.534054434837,3.535533905933E-02));
#185 = ( GEOMETRIC_REPRESENTATION_CONTEXT(2) 
PARAMETRIC_REPRESENTATION_CONTEXT() REPRESENTATION_CONTEXT('2D SPACE',''
  ) );
#186 = PCURVE('',#187,#192);
#187 = CONICAL_SURFACE('',#188,0.769,0.785398163397);
#188 = AXIS2_PLACEMENT_3D('',#189,#190,#191);
#189 = CARTESIAN_POINT('',(-4.440892098501E-15,7.216449660064E-16,
    1.925813819462));
#190 = DIRECTION('',(-2.831068712794E-15,2.563797941968E-30,-1.));
#191 = DIRECTION('',(-0.86274688523,-0.505636047,2.886579864025E-15));
#192 = DEFINITIONAL_REPRESENTATION('',(#193),#196);
#193 = B_SPLINE_CURVE_WITH_KNOTS('',1,(#194,#195),.UNSPECIFIED.,.F.,.F.,
  (2,2),(0.,9.108263648451E-03),.PIECEWISE_BEZIER_KNOTS.);
#194 = CARTESIAN_POINT('',(6.182258382538,2.5E-02));
#195 = CARTESIAN_POINT('',(6.107552562887,-2.5E-02));
#196 = ( GEOMETRIC_REPRESENTATION_CONTEXT(2) 
PARAMETRIC_REPRESENTATION_CONTEXT() REPRESENTATION_CONTEXT('2D SPACE',''
  ) );
#197 = ORIENTED_EDGE('',*,*,#198,.T.);
#198 = EDGE_CURVE('',#167,#199,#201,.T.);
#199 = VERTEX_POINT('',#200);
#200 = CARTESIAN_POINT('',(0.697741743028,0.258248833563,1.950813819462)
  );
#201 = SURFACE_CURVE('',#202,(#206,#213),.PCURVE_S1.);
#202 = LINE('',#203,#204);
#203 = CARTESIAN_POINT('',(-0.105522570608,-0.212525850409,
    1.950813819462));
#204 = VECTOR('',#205,1.);
#205 = DIRECTION('',(0.86274688523,0.505636047,-2.886579864025E-15));
#206 = PCURVE('',#175,#207);
#207 = DEFINITIONAL_REPRESENTATION('',(#208),#212);
#208 = LINE('',#209,#210);
#209 = CARTESIAN_POINT('',(2.367897544708E-16,3.535533905933E-02));
#210 = VECTOR('',#211,1.);
#211 = DIRECTION('',(-1.,-1.387778780781E-16));
#212 = ( GEOMETRIC_REPRESENTATION_CONTEXT(2) 
PARAMETRIC_REPRESENTATION_CONTEXT() REPRESENTATION_CONTEXT('2D SPACE',''
  ) );
#213 = PCURVE('',#214,#219);
#214 = PLANE('',#215);
#215 = AXIS2_PLACEMENT_3D('',#216,#217,#218);
#216 = CARTESIAN_POINT('',(-0.342510513436,-0.200737510659,
    1.950813819462));
#217 = DIRECTION('',(2.831068712794E-15,-2.366582715663E-30,1.));
#218 = DIRECTION('',(-0.505636047,0.86274688523,1.720845688169E-15));
#219 = DEFINITIONAL_REPRESENTATION('',(#220),#224);
#220 = LINE('',#221,#222);
#221 = CARTESIAN_POINT('',(-0.13,-0.1985));
#222 = VECTOR('',#223,1.);
#223 = DIRECTION('',(-1.52655665886E-16,-1.));
#224 = ( GEOMETRIC_REPRESENTATION_CONTEXT(2) 
PARAMETRIC_REPRESENTATION_CONTEXT() REPRESENTATION_CONTEXT('2D SPACE',''
  ) );
#225 = ORIENTED_EDGE('',*,*,#226,.T.);
#226 = EDGE_CURVE('',#199,#227,#229,.T.);
#227 = VERTEX_POINT('',#228);
#228 = CARTESIAN_POINT('',(0.721985975487,0.330412244326,1.900813819462)
  );
#229 = SURFACE_CURVE('',#230,(#234,#241),.PCURVE_S1.);
#230 = B_SPLINE_CURVE_WITH_KNOTS('',2,(#231,#232,#233),.UNSPECIFIED.,.F.
  ,.F.,(3,3),(0.,9.108263648452E-03),.PIECEWISE_BEZIER_KNOTS.);
#231 = CARTESIAN_POINT('',(0.697741743028,0.258248833563,1.950813819462)
  );
#232 = CARTESIAN_POINT('',(0.710340473395,0.293517311001,1.926756422626)
  );
#233 = CARTESIAN_POINT('',(0.721985975487,0.330412244326,1.900813819462)
  );
#234 = PCURVE('',#175,#235);
#235 = DEFINITIONAL_REPRESENTATION('',(#236),#240);
#236 = B_SPLINE_CURVE_WITH_KNOTS('',2,(#237,#238,#239),.UNSPECIFIED.,.F.
  ,.F.,(3,3),(0.,9.108263648452E-03),.PIECEWISE_BEZIER_KNOTS.);
#237 = CARTESIAN_POINT('',(-0.931054434837,3.535533905933E-02));
#238 = CARTESIAN_POINT('',(-0.959756963735,1.333042178091E-03));
#239 = CARTESIAN_POINT('',(-0.988459492632,-3.535533905933E-02));
#240 = ( GEOMETRIC_REPRESENTATION_CONTEXT(2) 
PARAMETRIC_REPRESENTATION_CONTEXT() REPRESENTATION_CONTEXT('2D SPACE',''
  ) );
#241 = PCURVE('',#187,#242);
#242 = DEFINITIONAL_REPRESENTATION('',(#243),#246);
#243 = B_SPLINE_CURVE_WITH_KNOTS('',1,(#244,#245),.UNSPECIFIED.,.F.,.F.,
  (2,2),(0.,9.108263648452E-03),.PIECEWISE_BEZIER_KNOTS.);
#244 = CARTESIAN_POINT('',(3.317225397882,-2.5E-02));
#245 = CARTESIAN_POINT('',(3.242519578232,2.5E-02));
#246 = ( GEOMETRIC_REPRESENTATION_CONTEXT(2) 
PARAMETRIC_REPRESENTATION_CONTEXT() REPRESENTATION_CONTEXT('2D SPACE',''
  ) );
#247 = ORIENTED_EDGE('',*,*,#248,.T.);
#248 = EDGE_CURVE('',#227,#165,#249,.T.);
#249 = SURFACE_CURVE('',#250,(#254,#261),.PCURVE_S1.);
#250 = LINE('',#251,#252);
#251 = CARTESIAN_POINT('',(-0.130804372958,-0.169388506148,
    1.900813819462));
#252 = VECTOR('',#253,1.);
#253 = DIRECTION('',(-0.86274688523,-0.505636047,2.886579864025E-15));
#254 = PCURVE('',#175,#255);
#255 = DEFINITIONAL_REPRESENTATION('',(#256),#260);
#256 = LINE('',#257,#258);
#257 = CARTESIAN_POINT('',(6.114900252818E-16,-3.535533905933E-02));
#258 = VECTOR('',#259,1.);
#259 = DIRECTION('',(1.,1.387778780781E-16));
#260 = ( GEOMETRIC_REPRESENTATION_CONTEXT(2) 
PARAMETRIC_REPRESENTATION_CONTEXT() REPRESENTATION_CONTEXT('2D SPACE',''
  ) );
#261 = PCURVE('',#262,#267);
#262 = PLANE('',#263);
#263 = AXIS2_PLACEMENT_3D('',#264,#265,#266);
#264 = CARTESIAN_POINT('',(4.045088375999E-02,-6.901975081841E-02,
    1.750813819462));
#265 = DIRECTION('',(0.505636047,-0.86274688523,-1.554312234475E-15));
#266 = DIRECTION('',(0.86274688523,0.505636047,-2.831068712794E-15));
#267 = DEFINITIONAL_REPRESENTATION('',(#268),#272);
#268 = LINE('',#269,#270);
#269 = CARTESIAN_POINT('',(-0.1985,0.15));
#270 = VECTOR('',#271,1.);
#271 = DIRECTION('',(-1.,3.330669073875E-16));
#272 = ( GEOMETRIC_REPRESENTATION_CONTEXT(2) 
PARAMETRIC_REPRESENTATION_CONTEXT() REPRESENTATION_CONTEXT('2D SPACE',''
  ) );
#273 = ADVANCED_FACE('',(#274),#214,.T.);
#274 = FACE_BOUND('',#275,.T.);
#275 = EDGE_LOOP('',(#276,#277));
#276 = ORIENTED_EDGE('',*,*,#198,.F.);
#277 = ORIENTED_EDGE('',*,*,#278,.F.);
#278 = EDGE_CURVE('',#199,#167,#279,.T.);
#279 = SURFACE_CURVE('',#280,(#285,#296),.PCURVE_S1.);
#280 = CIRCLE('',#281,0.744);
#281 = AXIS2_PLACEMENT_3D('',#282,#283,#284);
#282 = CARTESIAN_POINT('',(-4.440892098501E-15,7.216449660064E-16,
    1.950813819462));
#283 = DIRECTION('',(-3.360509397919E-15,2.509542563436E-17,-1.));
#284 = DIRECTION('',(-0.86274688523,-0.505636047,2.886579864025E-15));
#285 = PCURVE('',#214,#286);
#286 = DEFINITIONAL_REPRESENTATION('',(#287),#295);
#287 = ( BOUNDED_CURVE() B_SPLINE_CURVE(2,(#288,#289,#290,#291,#292,#293
,#294),.UNSPECIFIED.,.T.,.F.) B_SPLINE_CURVE_WITH_KNOTS((1,2,2,2,2,1),(
    -2.094395102393,0.,2.094395102393,4.188790204786,6.28318530718,
8.377580409573),.UNSPECIFIED.) CURVE() GEOMETRIC_REPRESENTATION_ITEM() 
RATIONAL_B_SPLINE_CURVE((1.,0.5,1.,0.5,1.,0.5,1.)) REPRESENTATION_ITEM(
  '') );
#288 = CARTESIAN_POINT('',(2.6284530108E-16,0.347));
#289 = CARTESIAN_POINT('',(1.288645800831,0.347));
#290 = CARTESIAN_POINT('',(0.644322900416,-0.769));
#291 = CARTESIAN_POINT('',(1.353205209227E-16,-1.885));
#292 = CARTESIAN_POINT('',(-0.644322900416,-0.769));
#293 = CARTESIAN_POINT('',(-1.288645800831,0.347));
#294 = CARTESIAN_POINT('',(2.6284530108E-16,0.347));
#295 = ( GEOMETRIC_REPRESENTATION_CONTEXT(2) 
PARAMETRIC_REPRESENTATION_CONTEXT() REPRESENTATION_CONTEXT('2D SPACE',''
  ) );
#296 = PCURVE('',#187,#297);
#297 = DEFINITIONAL_REPRESENTATION('',(#298),#302);
#298 = LINE('',#299,#300);
#299 = CARTESIAN_POINT('',(-4.440892098501E-16,-2.5E-02));
#300 = VECTOR('',#301,1.);
#301 = DIRECTION('',(1.,-1.758409907957E-17));
#302 = ( GEOMETRIC_REPRESENTATION_CONTEXT(2) 
PARAMETRIC_REPRESENTATION_CONTEXT() REPRESENTATION_CONTEXT('2D SPACE',''
  ) );
#303 = ADVANCED_FACE('',(#304),#187,.T.);
#304 = FACE_BOUND('',#305,.T.);
#305 = EDGE_LOOP('',(#306,#307,#308,#309));
#306 = ORIENTED_EDGE('',*,*,#226,.F.);
#307 = ORIENTED_EDGE('',*,*,#278,.T.);
#308 = ORIENTED_EDGE('',*,*,#164,.F.);
#309 = ORIENTED_EDGE('',*,*,#310,.T.);
#310 = EDGE_CURVE('',#165,#227,#311,.T.);
#311 = SURFACE_CURVE('',#312,(#317,#324),.PCURVE_S1.);
#312 = CIRCLE('',#313,0.794);
#313 = AXIS2_PLACEMENT_3D('',#314,#315,#316);
#314 = CARTESIAN_POINT('',(-4.440892098501E-15,7.216449660064E-16,
    1.900813819462));
#315 = DIRECTION('',(3.360509397919E-15,-2.509542563436E-17,1.));
#316 = DIRECTION('',(-0.86274688523,-0.505636047,2.886579864025E-15));
#317 = PCURVE('',#187,#318);
#318 = DEFINITIONAL_REPRESENTATION('',(#319),#323);
#319 = LINE('',#320,#321);
#320 = CARTESIAN_POINT('',(6.28318530718,2.5E-02));
#321 = VECTOR('',#322,1.);
#322 = DIRECTION('',(-1.,0.));
#323 = ( GEOMETRIC_REPRESENTATION_CONTEXT(2) 
PARAMETRIC_REPRESENTATION_CONTEXT() REPRESENTATION_CONTEXT('2D SPACE',''
  ) );
#324 = PCURVE('',#325,#330);
#325 = CYLINDRICAL_SURFACE('',#326,0.794);
#326 = AXIS2_PLACEMENT_3D('',#327,#328,#329);
#327 = CARTESIAN_POINT('',(-4.440892098501E-15,7.216449660064E-16,
    1.775813819462));
#328 = DIRECTION('',(-2.831068712794E-15,2.366582715663E-30,-1.));
#329 = DIRECTION('',(-0.86274688523,-0.505636047,2.886579864025E-15));
#330 = DEFINITIONAL_REPRESENTATION('',(#331),#335);
#331 = LINE('',#332,#333);
#332 = CARTESIAN_POINT('',(0.,-0.125));
#333 = VECTOR('',#334,1.);
#334 = DIRECTION('',(-1.,0.));
#335 = ( GEOMETRIC_REPRESENTATION_CONTEXT(2) 
PARAMETRIC_REPRESENTATION_CONTEXT() REPRESENTATION_CONTEXT('2D SPACE',''
  ) );
#336 = ADVANCED_FACE('',(#337),#262,.F.);
#337 = FACE_BOUND('',#338,.T.);
#338 = EDGE_LOOP('',(#339,#340,#363,#391));
#339 = ORIENTED_EDGE('',*,*,#248,.F.);
#340 = ORIENTED_EDGE('',*,*,#341,.F.);
#341 = EDGE_CURVE('',#342,#227,#344,.T.);
#342 = VERTEX_POINT('',#343);
#343 = CARTESIAN_POINT('',(0.721985975487,0.330412244326,1.750813819462)
  );
#344 = SURFACE_CURVE('',#345,(#349,#356),.PCURVE_S1.);
#345 = LINE('',#346,#347);
#346 = CARTESIAN_POINT('',(0.721985975487,0.330412244326,1.775813819462)
  );
#347 = VECTOR('',#348,1.);
#348 = DIRECTION('',(2.831068712794E-15,-2.366582715663E-30,1.));
#349 = PCURVE('',#262,#350);
#350 = DEFINITIONAL_REPRESENTATION('',(#351),#355);
#351 = LINE('',#352,#353);
#352 = CARTESIAN_POINT('',(0.789959492632,2.5E-02));
#353 = VECTOR('',#354,1.);
#354 = DIRECTION('',(-2.775557561563E-16,1.));
#355 = ( GEOMETRIC_REPRESENTATION_CONTEXT(2) 
PARAMETRIC_REPRESENTATION_CONTEXT() REPRESENTATION_CONTEXT('2D SPACE',''
  ) );
#356 = PCURVE('',#325,#357);
#357 = DEFINITIONAL_REPRESENTATION('',(#358),#362);
#358 = LINE('',#359,#360);
#359 = CARTESIAN_POINT('',(-3.040665728948,0.));
#360 = VECTOR('',#361,1.);
#361 = DIRECTION('',(0.,-1.));
#362 = ( GEOMETRIC_REPRESENTATION_CONTEXT(2) 
PARAMETRIC_REPRESENTATION_CONTEXT() REPRESENTATION_CONTEXT('2D SPACE',''
  ) );
#363 = ORIENTED_EDGE('',*,*,#364,.F.);
#364 = EDGE_CURVE('',#365,#342,#367,.T.);
#365 = VERTEX_POINT('',#366);
#366 = CARTESIAN_POINT('',(-0.641084207967,-0.468451745963,
    1.750813819462));
#367 = SURFACE_CURVE('',#368,(#372,#379),.PCURVE_S1.);
#368 = LINE('',#369,#370);
#369 = CARTESIAN_POINT('',(4.045088375999E-02,-6.901975081841E-02,
    1.750813819462));
#370 = VECTOR('',#371,1.);
#371 = DIRECTION('',(0.86274688523,0.505636047,-2.831068712794E-15));
#372 = PCURVE('',#262,#373);
#373 = DEFINITIONAL_REPRESENTATION('',(#374),#378);
#374 = LINE('',#375,#376);
#375 = CARTESIAN_POINT('',(-0.,0.));
#376 = VECTOR('',#377,1.);
#377 = DIRECTION('',(1.,-2.22044604925E-16));
#378 = ( GEOMETRIC_REPRESENTATION_CONTEXT(2) 
PARAMETRIC_REPRESENTATION_CONTEXT() REPRESENTATION_CONTEXT('2D SPACE',''
  ) );
#379 = PCURVE('',#380,#385);
#380 = PLANE('',#381);
#381 = AXIS2_PLACEMENT_3D('',#382,#383,#384);
#382 = CARTESIAN_POINT('',(-4.045088375999E-02,6.901975081841E-02,
    1.750813819462));
#383 = DIRECTION('',(-2.831068712794E-15,1.799258914935E-17,-1.));
#384 = DIRECTION('',(0.505636047,-0.86274688523,-1.720845688169E-15));
#385 = DEFINITIONAL_REPRESENTATION('',(#386),#390);
#386 = LINE('',#387,#388);
#387 = CARTESIAN_POINT('',(0.16,2.844946500602E-16));
#388 = VECTOR('',#389,1.);
#389 = DIRECTION('',(1.387778780781E-16,-1.));
#390 = ( GEOMETRIC_REPRESENTATION_CONTEXT(2) 
PARAMETRIC_REPRESENTATION_CONTEXT() REPRESENTATION_CONTEXT('2D SPACE',''
  ) );
#391 = ORIENTED_EDGE('',*,*,#392,.F.);
#392 = EDGE_CURVE('',#165,#365,#393,.T.);
#393 = SURFACE_CURVE('',#394,(#398,#405),.PCURVE_S1.);
#394 = LINE('',#395,#396);
#395 = CARTESIAN_POINT('',(-0.641084207967,-0.468451745963,
    1.775813819462));
#396 = VECTOR('',#397,1.);
#397 = DIRECTION('',(-2.831068712794E-15,2.366582715663E-30,-1.));
#398 = PCURVE('',#262,#399);
#399 = DEFINITIONAL_REPRESENTATION('',(#400),#404);
#400 = LINE('',#401,#402);
#401 = CARTESIAN_POINT('',(-0.789959492632,2.5E-02));
#402 = VECTOR('',#403,1.);
#403 = DIRECTION('',(2.775557561563E-16,-1.));
#404 = ( GEOMETRIC_REPRESENTATION_CONTEXT(2) 
PARAMETRIC_REPRESENTATION_CONTEXT() REPRESENTATION_CONTEXT('2D SPACE',''
  ) );
#405 = PCURVE('',#325,#406);
#406 = DEFINITIONAL_REPRESENTATION('',(#407),#411);
#407 = LINE('',#408,#409);
#408 = CARTESIAN_POINT('',(-0.100926924642,0.));
#409 = VECTOR('',#410,1.);
#410 = DIRECTION('',(0.,1.));
#411 = ( GEOMETRIC_REPRESENTATION_CONTEXT(2) 
PARAMETRIC_REPRESENTATION_CONTEXT() REPRESENTATION_CONTEXT('2D SPACE',''
  ) );
#412 = ADVANCED_FACE('',(#413),#325,.T.);
#413 = FACE_BOUND('',#414,.T.);
#414 = EDGE_LOOP('',(#415,#444,#467,#489,#490,#491,#492,#516,#537,#559,
    #582,#604));
#415 = ORIENTED_EDGE('',*,*,#416,.F.);
#416 = EDGE_CURVE('',#417,#417,#419,.T.);
#417 = VERTEX_POINT('',#418);
#418 = CARTESIAN_POINT('',(0.685021026873,0.401475021318,1.600813819462)
  );
#419 = SURFACE_CURVE('',#420,(#425,#432),.PCURVE_S1.);
#420 = CIRCLE('',#421,0.794);
#421 = AXIS2_PLACEMENT_3D('',#422,#423,#424);
#422 = CARTESIAN_POINT('',(-4.440892098501E-15,7.771561172376E-16,
    1.600813819462));
#423 = DIRECTION('',(-3.360509397919E-15,2.509542563436E-17,-1.));
#424 = DIRECTION('',(-0.86274688523,-0.505636047,2.886579864025E-15));
#425 = PCURVE('',#325,#426);
#426 = DEFINITIONAL_REPRESENTATION('',(#427),#431);
#427 = LINE('',#428,#429);
#428 = CARTESIAN_POINT('',(-6.28318530718,0.175));
#429 = VECTOR('',#430,1.);
#430 = DIRECTION('',(1.,0.));
#431 = ( GEOMETRIC_REPRESENTATION_CONTEXT(2) 
PARAMETRIC_REPRESENTATION_CONTEXT() REPRESENTATION_CONTEXT('2D SPACE',''
  ) );
#432 = PCURVE('',#433,#438);
#433 = PLANE('',#434);
#434 = AXIS2_PLACEMENT_3D('',#435,#436,#437);
#435 = CARTESIAN_POINT('',(-0.48831473704,-0.286190002602,1.600813819462
    ));
#436 = DIRECTION('',(-2.831068712794E-15,2.366582715663E-30,-1.));
#437 = DIRECTION('',(0.505636047,-0.86274688523,-1.720845688169E-15));
#438 = DEFINITIONAL_REPRESENTATION('',(#439),#443);
#439 = CIRCLE('',#440,0.794);
#440 = AXIS2_PLACEMENT_2D('',#441,#442);
#441 = CARTESIAN_POINT('',(1.110223024625E-16,-0.566));
#442 = DIRECTION('',(-1.387778780781E-16,1.));
#443 = ( GEOMETRIC_REPRESENTATION_CONTEXT(2) 
PARAMETRIC_REPRESENTATION_CONTEXT() REPRESENTATION_CONTEXT('2D SPACE',''
  ) );
#444 = ORIENTED_EDGE('',*,*,#445,.T.);
#445 = EDGE_CURVE('',#417,#446,#448,.T.);
#446 = VERTEX_POINT('',#447);
#447 = CARTESIAN_POINT('',(0.685021026873,0.401475021318,1.750813819462)
  );
#448 = SEAM_CURVE('',#449,(#453,#460),.PCURVE_S1.);
#449 = LINE('',#450,#451);
#450 = CARTESIAN_POINT('',(0.685021026873,0.401475021318,1.775813819462)
  );
#451 = VECTOR('',#452,1.);
#452 = DIRECTION('',(2.831068712794E-15,-2.366582715663E-30,1.));
#453 = PCURVE('',#325,#454);
#454 = DEFINITIONAL_REPRESENTATION('',(#455),#459);
#455 = LINE('',#456,#457);
#456 = CARTESIAN_POINT('',(-3.14159265359,0.));
#457 = VECTOR('',#458,1.);
#458 = DIRECTION('',(0.,-1.));
#459 = ( GEOMETRIC_REPRESENTATION_CONTEXT(2) 
PARAMETRIC_REPRESENTATION_CONTEXT() REPRESENTATION_CONTEXT('2D SPACE',''
  ) );
#460 = PCURVE('',#325,#461);
#461 = DEFINITIONAL_REPRESENTATION('',(#462),#466);
#462 = LINE('',#463,#464);
#463 = CARTESIAN_POINT('',(3.14159265359,0.));
#464 = VECTOR('',#465,1.);
#465 = DIRECTION('',(0.,-1.));
#466 = ( GEOMETRIC_REPRESENTATION_CONTEXT(2) 
PARAMETRIC_REPRESENTATION_CONTEXT() REPRESENTATION_CONTEXT('2D SPACE',''
  ) );
#467 = ORIENTED_EDGE('',*,*,#468,.T.);
#468 = EDGE_CURVE('',#446,#342,#469,.T.);
#469 = SURFACE_CURVE('',#470,(#475,#482),.PCURVE_S1.);
#470 = CIRCLE('',#471,0.794);
#471 = AXIS2_PLACEMENT_3D('',#472,#473,#474);
#472 = CARTESIAN_POINT('',(-4.440892098501E-15,7.216449660064E-16,
    1.750813819462));
#473 = DIRECTION('',(-3.312617325098E-15,5.316386470735E-17,-1.));
#474 = DIRECTION('',(-0.86274688523,-0.505636047,2.831068712794E-15));
#475 = PCURVE('',#325,#476);
#476 = DEFINITIONAL_REPRESENTATION('',(#477),#481);
#477 = LINE('',#478,#479);
#478 = CARTESIAN_POINT('',(-6.28318530718,2.5E-02));
#479 = VECTOR('',#480,1.);
#480 = DIRECTION('',(1.,0.));
#481 = ( GEOMETRIC_REPRESENTATION_CONTEXT(2) 
PARAMETRIC_REPRESENTATION_CONTEXT() REPRESENTATION_CONTEXT('2D SPACE',''
  ) );
#482 = PCURVE('',#380,#483);
#483 = DEFINITIONAL_REPRESENTATION('',(#484),#488);
#484 = CIRCLE('',#485,0.794);
#485 = AXIS2_PLACEMENT_2D('',#486,#487);
#486 = CARTESIAN_POINT('',(8.E-02,3.348016308635E-16));
#487 = DIRECTION('',(-1.387778780781E-16,1.));
#488 = ( GEOMETRIC_REPRESENTATION_CONTEXT(2) 
PARAMETRIC_REPRESENTATION_CONTEXT() REPRESENTATION_CONTEXT('2D SPACE',''
  ) );
#489 = ORIENTED_EDGE('',*,*,#341,.T.);
#490 = ORIENTED_EDGE('',*,*,#310,.F.);
#491 = ORIENTED_EDGE('',*,*,#392,.T.);
#492 = ORIENTED_EDGE('',*,*,#493,.T.);
#493 = EDGE_CURVE('',#365,#494,#496,.T.);
#494 = VERTEX_POINT('',#495);
#495 = CARTESIAN_POINT('',(-0.721985975487,-0.330412244326,
    1.750813819462));
#496 = SURFACE_CURVE('',#497,(#502,#509),.PCURVE_S1.);
#497 = CIRCLE('',#498,0.794);
#498 = AXIS2_PLACEMENT_3D('',#499,#500,#501);
#499 = CARTESIAN_POINT('',(-4.440892098501E-15,7.216449660064E-16,
    1.750813819462));
#500 = DIRECTION('',(-3.312617325098E-15,5.316386470735E-17,-1.));
#501 = DIRECTION('',(-0.86274688523,-0.505636047,2.831068712794E-15));
#502 = PCURVE('',#325,#503);
#503 = DEFINITIONAL_REPRESENTATION('',(#504),#508);
#504 = LINE('',#505,#506);
#505 = CARTESIAN_POINT('',(-6.28318530718,2.5E-02));
#506 = VECTOR('',#507,1.);
#507 = DIRECTION('',(1.,0.));
#508 = ( GEOMETRIC_REPRESENTATION_CONTEXT(2) 
PARAMETRIC_REPRESENTATION_CONTEXT() REPRESENTATION_CONTEXT('2D SPACE',''
  ) );
#509 = PCURVE('',#380,#510);
#510 = DEFINITIONAL_REPRESENTATION('',(#511),#515);
#511 = CIRCLE('',#512,0.794);
#512 = AXIS2_PLACEMENT_2D('',#513,#514);
#513 = CARTESIAN_POINT('',(8.E-02,3.348016308635E-16));
#514 = DIRECTION('',(-1.387778780781E-16,1.));
#515 = ( GEOMETRIC_REPRESENTATION_CONTEXT(2) 
PARAMETRIC_REPRESENTATION_CONTEXT() REPRESENTATION_CONTEXT('2D SPACE',''
  ) );
#516 = ORIENTED_EDGE('',*,*,#517,.T.);
#517 = EDGE_CURVE('',#494,#84,#518,.T.);
#518 = SURFACE_CURVE('',#519,(#523,#530),.PCURVE_S1.);
#519 = LINE('',#520,#521);
#520 = CARTESIAN_POINT('',(-0.721985975487,-0.330412244326,
    1.775813819462));
#521 = VECTOR('',#522,1.);
#522 = DIRECTION('',(2.831068712794E-15,-2.366582715663E-30,1.));
#523 = PCURVE('',#325,#524);
#524 = DEFINITIONAL_REPRESENTATION('',(#525),#529);
#525 = LINE('',#526,#527);
#526 = CARTESIAN_POINT('',(0.100926924642,0.));
#527 = VECTOR('',#528,1.);
#528 = DIRECTION('',(0.,-1.));
#529 = ( GEOMETRIC_REPRESENTATION_CONTEXT(2) 
PARAMETRIC_REPRESENTATION_CONTEXT() REPRESENTATION_CONTEXT('2D SPACE',''
  ) );
#530 = PCURVE('',#119,#531);
#531 = DEFINITIONAL_REPRESENTATION('',(#532),#536);
#532 = LINE('',#533,#534);
#533 = CARTESIAN_POINT('',(0.789959492632,-0.475));
#534 = VECTOR('',#535,1.);
#535 = DIRECTION('',(2.22044604925E-16,1.));
#536 = ( GEOMETRIC_REPRESENTATION_CONTEXT(2) 
PARAMETRIC_REPRESENTATION_CONTEXT() REPRESENTATION_CONTEXT('2D SPACE',''
  ) );
#537 = ORIENTED_EDGE('',*,*,#538,.F.);
#538 = EDGE_CURVE('',#22,#84,#539,.T.);
#539 = SURFACE_CURVE('',#540,(#545,#552),.PCURVE_S1.);
#540 = CIRCLE('',#541,0.794);
#541 = AXIS2_PLACEMENT_3D('',#542,#543,#544);
#542 = CARTESIAN_POINT('',(-4.440892098501E-15,7.216449660064E-16,
    1.900813819462));
#543 = DIRECTION('',(3.360509397919E-15,-2.509542563436E-17,1.));
#544 = DIRECTION('',(-0.86274688523,-0.505636047,2.886579864025E-15));
#545 = PCURVE('',#325,#546);
#546 = DEFINITIONAL_REPRESENTATION('',(#547),#551);
#547 = LINE('',#548,#549);
#548 = CARTESIAN_POINT('',(6.28318530718,-0.125));
#549 = VECTOR('',#550,1.);
#550 = DIRECTION('',(-1.,0.));
#551 = ( GEOMETRIC_REPRESENTATION_CONTEXT(2) 
PARAMETRIC_REPRESENTATION_CONTEXT() REPRESENTATION_CONTEXT('2D SPACE',''
  ) );
#552 = PCURVE('',#44,#553);
#553 = DEFINITIONAL_REPRESENTATION('',(#554),#558);
#554 = LINE('',#555,#556);
#555 = CARTESIAN_POINT('',(6.28318530718,2.5E-02));
#556 = VECTOR('',#557,1.);
#557 = DIRECTION('',(-1.,2.002846889472E-17));
#558 = ( GEOMETRIC_REPRESENTATION_CONTEXT(2) 
PARAMETRIC_REPRESENTATION_CONTEXT() REPRESENTATION_CONTEXT('2D SPACE',''
  ) );
#559 = ORIENTED_EDGE('',*,*,#560,.T.);
#560 = EDGE_CURVE('',#22,#561,#563,.T.);
#561 = VERTEX_POINT('',#562);
#562 = CARTESIAN_POINT('',(0.641084207967,0.468451745963,1.750813819462)
  );
#563 = SURFACE_CURVE('',#564,(#568,#575),.PCURVE_S1.);
#564 = LINE('',#565,#566);
#565 = CARTESIAN_POINT('',(0.641084207967,0.468451745963,1.775813819462)
  );
#566 = VECTOR('',#567,1.);
#567 = DIRECTION('',(-2.831068712794E-15,2.366582715663E-30,-1.));
#568 = PCURVE('',#325,#569);
#569 = DEFINITIONAL_REPRESENTATION('',(#570),#574);
#570 = LINE('',#571,#572);
#571 = CARTESIAN_POINT('',(3.040665728948,0.));
#572 = VECTOR('',#573,1.);
#573 = DIRECTION('',(0.,1.));
#574 = ( GEOMETRIC_REPRESENTATION_CONTEXT(2) 
PARAMETRIC_REPRESENTATION_CONTEXT() REPRESENTATION_CONTEXT('2D SPACE',''
  ) );
#575 = PCURVE('',#119,#576);
#576 = DEFINITIONAL_REPRESENTATION('',(#577),#581);
#577 = LINE('',#578,#579);
#578 = CARTESIAN_POINT('',(-0.789959492632,-0.475));
#579 = VECTOR('',#580,1.);
#580 = DIRECTION('',(-2.22044604925E-16,-1.));
#581 = ( GEOMETRIC_REPRESENTATION_CONTEXT(2) 
PARAMETRIC_REPRESENTATION_CONTEXT() REPRESENTATION_CONTEXT('2D SPACE',''
  ) );
#582 = ORIENTED_EDGE('',*,*,#583,.T.);
#583 = EDGE_CURVE('',#561,#446,#584,.T.);
#584 = SURFACE_CURVE('',#585,(#590,#597),.PCURVE_S1.);
#585 = CIRCLE('',#586,0.794);
#586 = AXIS2_PLACEMENT_3D('',#587,#588,#589);
#587 = CARTESIAN_POINT('',(-4.440892098501E-15,7.216449660064E-16,
    1.750813819462));
#588 = DIRECTION('',(-3.312617325098E-15,5.316386470735E-17,-1.));
#589 = DIRECTION('',(-0.86274688523,-0.505636047,2.831068712794E-15));
#590 = PCURVE('',#325,#591);
#591 = DEFINITIONAL_REPRESENTATION('',(#592),#596);
#592 = LINE('',#593,#594);
#593 = CARTESIAN_POINT('',(0.,2.5E-02));
#594 = VECTOR('',#595,1.);
#595 = DIRECTION('',(1.,0.));
#596 = ( GEOMETRIC_REPRESENTATION_CONTEXT(2) 
PARAMETRIC_REPRESENTATION_CONTEXT() REPRESENTATION_CONTEXT('2D SPACE',''
  ) );
#597 = PCURVE('',#380,#598);
#598 = DEFINITIONAL_REPRESENTATION('',(#599),#603);
#599 = CIRCLE('',#600,0.794);
#600 = AXIS2_PLACEMENT_2D('',#601,#602);
#601 = CARTESIAN_POINT('',(8.E-02,3.348016308635E-16));
#602 = DIRECTION('',(-1.387778780781E-16,1.));
#603 = ( GEOMETRIC_REPRESENTATION_CONTEXT(2) 
PARAMETRIC_REPRESENTATION_CONTEXT() REPRESENTATION_CONTEXT('2D SPACE',''
  ) );
#604 = ORIENTED_EDGE('',*,*,#445,.F.);
#605 = ADVANCED_FACE('',(#606),#44,.T.);
#606 = FACE_BOUND('',#607,.T.);
#607 = EDGE_LOOP('',(#608,#609,#610,#611));
#608 = ORIENTED_EDGE('',*,*,#83,.F.);
#609 = ORIENTED_EDGE('',*,*,#135,.T.);
#610 = ORIENTED_EDGE('',*,*,#21,.F.);
#611 = ORIENTED_EDGE('',*,*,#538,.T.);
#612 = ADVANCED_FACE('',(#613),#380,.F.);
#613 = FACE_BOUND('',#614,.T.);
#614 = EDGE_LOOP('',(#615,#616,#637,#638,#639));
#615 = ORIENTED_EDGE('',*,*,#583,.F.);
#616 = ORIENTED_EDGE('',*,*,#617,.T.);
#617 = EDGE_CURVE('',#561,#494,#618,.T.);
#618 = SURFACE_CURVE('',#619,(#623,#630),.PCURVE_S1.);
#619 = LINE('',#620,#621);
#620 = CARTESIAN_POINT('',(-4.045088375999E-02,6.901975081841E-02,
    1.750813819462));
#621 = VECTOR('',#622,1.);
#622 = DIRECTION('',(-0.86274688523,-0.505636047,2.831068712794E-15));
#623 = PCURVE('',#380,#624);
#624 = DEFINITIONAL_REPRESENTATION('',(#625),#629);
#625 = LINE('',#626,#627);
#626 = CARTESIAN_POINT('',(0.,0.));
#627 = VECTOR('',#628,1.);
#628 = DIRECTION('',(-1.387778780781E-16,1.));
#629 = ( GEOMETRIC_REPRESENTATION_CONTEXT(2) 
PARAMETRIC_REPRESENTATION_CONTEXT() REPRESENTATION_CONTEXT('2D SPACE',''
  ) );
#630 = PCURVE('',#119,#631);
#631 = DEFINITIONAL_REPRESENTATION('',(#632),#636);
#632 = LINE('',#633,#634);
#633 = CARTESIAN_POINT('',(-1.08246744901E-15,-0.5));
#634 = VECTOR('',#635,1.);
#635 = DIRECTION('',(1.,2.775557561563E-16));
#636 = ( GEOMETRIC_REPRESENTATION_CONTEXT(2) 
PARAMETRIC_REPRESENTATION_CONTEXT() REPRESENTATION_CONTEXT('2D SPACE',''
  ) );
#637 = ORIENTED_EDGE('',*,*,#493,.F.);
#638 = ORIENTED_EDGE('',*,*,#364,.T.);
#639 = ORIENTED_EDGE('',*,*,#468,.F.);
#640 = ADVANCED_FACE('',(#641),#119,.F.);
#641 = FACE_BOUND('',#642,.T.);
#642 = EDGE_LOOP('',(#643,#644,#645,#646));
#643 = ORIENTED_EDGE('',*,*,#105,.F.);
#644 = ORIENTED_EDGE('',*,*,#517,.F.);
#645 = ORIENTED_EDGE('',*,*,#617,.F.);
#646 = ORIENTED_EDGE('',*,*,#560,.F.);
#647 = ADVANCED_FACE('',(#648,#651),#433,.T.);
#648 = FACE_BOUND('',#649,.T.);
#649 = EDGE_LOOP('',(#650));
#650 = ORIENTED_EDGE('',*,*,#416,.T.);
#651 = FACE_BOUND('',#652,.T.);
#652 = EDGE_LOOP('',(#653));
#653 = ORIENTED_EDGE('',*,*,#654,.F.);
#654 = EDGE_CURVE('',#655,#655,#657,.T.);
#655 = VERTEX_POINT('',#656);
#656 = CARTESIAN_POINT('',(-0.170904983886,0.291608447208,1.600813819462
    ));
#657 = SURFACE_CURVE('',#658,(#663,#670),.PCURVE_S1.);
#658 = CIRCLE('',#659,0.338);
#659 = AXIS2_PLACEMENT_3D('',#660,#661,#662);
#660 = CARTESIAN_POINT('',(-4.440892098501E-15,7.771561172376E-16,
    1.600813819462));
#661 = DIRECTION('',(-3.360509397919E-15,2.509542563436E-17,-1.));
#662 = DIRECTION('',(-0.86274688523,-0.505636047,2.886579864025E-15));
#663 = PCURVE('',#433,#664);
#664 = DEFINITIONAL_REPRESENTATION('',(#665),#669);
#665 = CIRCLE('',#666,0.338);
#666 = AXIS2_PLACEMENT_2D('',#667,#668);
#667 = CARTESIAN_POINT('',(1.110223024625E-16,-0.566));
#668 = DIRECTION('',(-1.387778780781E-16,1.));
#669 = ( GEOMETRIC_REPRESENTATION_CONTEXT(2) 
PARAMETRIC_REPRESENTATION_CONTEXT() REPRESENTATION_CONTEXT('2D SPACE',''
  ) );
#670 = PCURVE('',#671,#676);
#671 = TOROIDAL_SURFACE('',#672,0.338,5.E-02);
#672 = AXIS2_PLACEMENT_3D('',#673,#674,#675);
#673 = CARTESIAN_POINT('',(-6.217248937901E-15,7.216449660064E-16,
    1.550813819462));
#674 = DIRECTION('',(-2.831068712794E-15,2.366582715663E-30,-1.));
#675 = DIRECTION('',(0.505636047,-0.86274688523,-1.720845688169E-15));
#676 = DEFINITIONAL_REPRESENTATION('',(#677),#681);
#677 = LINE('',#678,#679);
#678 = CARTESIAN_POINT('',(1.570796326795,4.712388980385));
#679 = VECTOR('',#680,1.);
#680 = DIRECTION('',(1.,0.));
#681 = ( GEOMETRIC_REPRESENTATION_CONTEXT(2) 
PARAMETRIC_REPRESENTATION_CONTEXT() REPRESENTATION_CONTEXT('2D SPACE',''
  ) );
#682 = ADVANCED_FACE('',(#683),#671,.F.);
#683 = FACE_BOUND('',#684,.F.);
#684 = EDGE_LOOP('',(#685,#709,#738,#760,#761));
#685 = ORIENTED_EDGE('',*,*,#686,.T.);
#686 = EDGE_CURVE('',#655,#687,#689,.T.);
#687 = VERTEX_POINT('',#688);
#688 = CARTESIAN_POINT('',(-0.145623181536,0.248471102946,1.550813819462
    ));
#689 = SEAM_CURVE('',#690,(#695,#702),.PCURVE_S1.);
#690 = CIRCLE('',#691,5.E-02);
#691 = AXIS2_PLACEMENT_3D('',#692,#693,#694);
#692 = CARTESIAN_POINT('',(-0.170904983886,0.291608447208,1.550813819462
    ));
#693 = DIRECTION('',(0.86274688523,0.505636047,-2.442495713836E-15));
#694 = DIRECTION('',(-0.505636047,0.86274688523,1.720845688169E-15));
#695 = PCURVE('',#671,#696);
#696 = DEFINITIONAL_REPRESENTATION('',(#697),#701);
#697 = LINE('',#698,#699);
#698 = CARTESIAN_POINT('',(3.14159265359,6.28318530718));
#699 = VECTOR('',#700,1.);
#700 = DIRECTION('',(0.,-1.));
#701 = ( GEOMETRIC_REPRESENTATION_CONTEXT(2) 
PARAMETRIC_REPRESENTATION_CONTEXT() REPRESENTATION_CONTEXT('2D SPACE',''
  ) );
#702 = PCURVE('',#671,#703);
#703 = DEFINITIONAL_REPRESENTATION('',(#704),#708);
#704 = LINE('',#705,#706);
#705 = CARTESIAN_POINT('',(9.424777960769,6.28318530718));
#706 = VECTOR('',#707,1.);
#707 = DIRECTION('',(0.,-1.));
#708 = ( GEOMETRIC_REPRESENTATION_CONTEXT(2) 
PARAMETRIC_REPRESENTATION_CONTEXT() REPRESENTATION_CONTEXT('2D SPACE',''
  ) );
#709 = ORIENTED_EDGE('',*,*,#710,.T.);
#710 = EDGE_CURVE('',#687,#711,#713,.T.);
#711 = VERTEX_POINT('',#712);
#712 = CARTESIAN_POINT('',(0.248471102946,0.145623181536,1.550813819462)
  );
#713 = SURFACE_CURVE('',#714,(#719,#726),.PCURVE_S1.);
#714 = CIRCLE('',#715,0.288);
#715 = AXIS2_PLACEMENT_3D('',#716,#717,#718);
#716 = CARTESIAN_POINT('',(-6.217248937901E-15,7.216449660064E-16,
    1.550813819462));
#717 = DIRECTION('',(-3.360509397919E-15,2.509542563436E-17,-1.));
#718 = DIRECTION('',(-0.86274688523,-0.505636047,2.886579864025E-15));
#719 = PCURVE('',#671,#720);
#720 = DEFINITIONAL_REPRESENTATION('',(#721),#725);
#721 = LINE('',#722,#723);
#722 = CARTESIAN_POINT('',(1.570796326795,3.14159265359));
#723 = VECTOR('',#724,1.);
#724 = DIRECTION('',(1.,5.654319433713E-16));
#725 = ( GEOMETRIC_REPRESENTATION_CONTEXT(2) 
PARAMETRIC_REPRESENTATION_CONTEXT() REPRESENTATION_CONTEXT('2D SPACE',''
  ) );
#726 = PCURVE('',#727,#732);
#727 = CYLINDRICAL_SURFACE('',#728,0.288);
#728 = AXIS2_PLACEMENT_3D('',#729,#730,#731);
#729 = CARTESIAN_POINT('',(-5.329070518201E-15,6.661338147751E-16,
    1.508145434537));
#730 = DIRECTION('',(-2.831068712794E-15,2.366582715663E-30,-1.));
#731 = DIRECTION('',(-0.86274688523,-0.505636047,2.886579864025E-15));
#732 = DEFINITIONAL_REPRESENTATION('',(#733),#737);
#733 = LINE('',#734,#735);
#734 = CARTESIAN_POINT('',(0.,-4.266838492538E-02));
#735 = VECTOR('',#736,1.);
#736 = DIRECTION('',(1.,0.));
#737 = ( GEOMETRIC_REPRESENTATION_CONTEXT(2) 
PARAMETRIC_REPRESENTATION_CONTEXT() REPRESENTATION_CONTEXT('2D SPACE',''
  ) );
#738 = ORIENTED_EDGE('',*,*,#739,.T.);
#739 = EDGE_CURVE('',#711,#687,#740,.T.);
#740 = SURFACE_CURVE('',#741,(#746,#753),.PCURVE_S1.);
#741 = CIRCLE('',#742,0.288);
#742 = AXIS2_PLACEMENT_3D('',#743,#744,#745);
#743 = CARTESIAN_POINT('',(-6.217248937901E-15,7.216449660064E-16,
    1.550813819462));
#744 = DIRECTION('',(-3.360509397919E-15,2.509542563436E-17,-1.));
#745 = DIRECTION('',(-0.86274688523,-0.505636047,2.886579864025E-15));
#746 = PCURVE('',#671,#747);
#747 = DEFINITIONAL_REPRESENTATION('',(#748),#752);
#748 = LINE('',#749,#750);
#749 = CARTESIAN_POINT('',(1.570796326795,3.14159265359));
#750 = VECTOR('',#751,1.);
#751 = DIRECTION('',(1.,-1.884773144571E-16));
#752 = ( GEOMETRIC_REPRESENTATION_CONTEXT(2) 
PARAMETRIC_REPRESENTATION_CONTEXT() REPRESENTATION_CONTEXT('2D SPACE',''
  ) );
#753 = PCURVE('',#727,#754);
#754 = DEFINITIONAL_REPRESENTATION('',(#755),#759);
#755 = LINE('',#756,#757);
#756 = CARTESIAN_POINT('',(-6.28318530718,-4.266838492538E-02));
#757 = VECTOR('',#758,1.);
#758 = DIRECTION('',(1.,0.));
#759 = ( GEOMETRIC_REPRESENTATION_CONTEXT(2) 
PARAMETRIC_REPRESENTATION_CONTEXT() REPRESENTATION_CONTEXT('2D SPACE',''
  ) );
#760 = ORIENTED_EDGE('',*,*,#686,.F.);
#761 = ORIENTED_EDGE('',*,*,#654,.F.);
#762 = ADVANCED_FACE('',(#763),#727,.T.);
#763 = FACE_BOUND('',#764,.T.);
#764 = EDGE_LOOP('',(#765,#794,#815,#816,#817));
#765 = ORIENTED_EDGE('',*,*,#766,.F.);
#766 = EDGE_CURVE('',#767,#767,#769,.T.);
#767 = VERTEX_POINT('',#768);
#768 = CARTESIAN_POINT('',(0.248471102946,0.145623181536,1.465477049612)
  );
#769 = SURFACE_CURVE('',#770,(#775,#782),.PCURVE_S1.);
#770 = CIRCLE('',#771,0.288);
#771 = AXIS2_PLACEMENT_3D('',#772,#773,#774);
#772 = CARTESIAN_POINT('',(-6.217248937901E-15,6.661338147751E-16,
    1.465477049612));
#773 = DIRECTION('',(-3.360509397919E-15,2.509542563436E-17,-1.));
#774 = DIRECTION('',(-0.86274688523,-0.505636047,2.886579864025E-15));
#775 = PCURVE('',#727,#776);
#776 = DEFINITIONAL_REPRESENTATION('',(#777),#781);
#777 = LINE('',#778,#779);
#778 = CARTESIAN_POINT('',(-6.28318530718,4.266838492538E-02));
#779 = VECTOR('',#780,1.);
#780 = DIRECTION('',(1.,0.));
#781 = ( GEOMETRIC_REPRESENTATION_CONTEXT(2) 
PARAMETRIC_REPRESENTATION_CONTEXT() REPRESENTATION_CONTEXT('2D SPACE',''
  ) );
#782 = PCURVE('',#783,#788);
#783 = CONICAL_SURFACE('',#784,0.344,1.047197551197);
#784 = AXIS2_PLACEMENT_3D('',#785,#786,#787);
#785 = CARTESIAN_POINT('',(-5.329070518201E-15,6.661338147751E-16,
    1.433145434537));
#786 = DIRECTION('',(-2.831068712794E-15,2.366582715663E-30,-1.));
#787 = DIRECTION('',(-0.86274688523,-0.505636047,2.886579864025E-15));
#788 = DEFINITIONAL_REPRESENTATION('',(#789),#793);
#789 = LINE('',#790,#791);
#790 = CARTESIAN_POINT('',(-6.28318530718,-3.233161507462E-02));
#791 = VECTOR('',#792,1.);
#792 = DIRECTION('',(1.,0.));
#793 = ( GEOMETRIC_REPRESENTATION_CONTEXT(2) 
PARAMETRIC_REPRESENTATION_CONTEXT() REPRESENTATION_CONTEXT('2D SPACE',''
  ) );
#794 = ORIENTED_EDGE('',*,*,#795,.T.);
#795 = EDGE_CURVE('',#767,#711,#796,.T.);
#796 = SEAM_CURVE('',#797,(#801,#808),.PCURVE_S1.);
#797 = LINE('',#798,#799);
#798 = CARTESIAN_POINT('',(0.248471102946,0.145623181536,1.508145434537)
  );
#799 = VECTOR('',#800,1.);
#800 = DIRECTION('',(2.831068712794E-15,-2.366582715663E-30,1.));
#801 = PCURVE('',#727,#802);
#802 = DEFINITIONAL_REPRESENTATION('',(#803),#807);
#803 = LINE('',#804,#805);
#804 = CARTESIAN_POINT('',(-3.14159265359,0.));
#805 = VECTOR('',#806,1.);
#806 = DIRECTION('',(0.,-1.));
#807 = ( GEOMETRIC_REPRESENTATION_CONTEXT(2) 
PARAMETRIC_REPRESENTATION_CONTEXT() REPRESENTATION_CONTEXT('2D SPACE',''
  ) );
#808 = PCURVE('',#727,#809);
#809 = DEFINITIONAL_REPRESENTATION('',(#810),#814);
#810 = LINE('',#811,#812);
#811 = CARTESIAN_POINT('',(3.14159265359,0.));
#812 = VECTOR('',#813,1.);
#813 = DIRECTION('',(0.,-1.));
#814 = ( GEOMETRIC_REPRESENTATION_CONTEXT(2) 
PARAMETRIC_REPRESENTATION_CONTEXT() REPRESENTATION_CONTEXT('2D SPACE',''
  ) );
#815 = ORIENTED_EDGE('',*,*,#739,.T.);
#816 = ORIENTED_EDGE('',*,*,#710,.T.);
#817 = ORIENTED_EDGE('',*,*,#795,.F.);
#818 = ADVANCED_FACE('',(#819),#783,.T.);
#819 = FACE_BOUND('',#820,.T.);
#820 = EDGE_LOOP('',(#821,#850,#871,#872));
#821 = ORIENTED_EDGE('',*,*,#822,.F.);
#822 = EDGE_CURVE('',#823,#823,#825,.T.);
#823 = VERTEX_POINT('',#824);
#824 = CARTESIAN_POINT('',(0.345098754092,0.2022544188,1.400813819462));
#825 = SURFACE_CURVE('',#826,(#831,#838),.PCURVE_S1.);
#826 = CIRCLE('',#827,0.4);
#827 = AXIS2_PLACEMENT_3D('',#828,#829,#830);
#828 = CARTESIAN_POINT('',(-4.440892098501E-15,7.216449660064E-16,
    1.400813819462));
#829 = DIRECTION('',(-3.360509397919E-15,2.509542563436E-17,-1.));
#830 = DIRECTION('',(-0.86274688523,-0.505636047,2.886579864025E-15));
#831 = PCURVE('',#783,#832);
#832 = DEFINITIONAL_REPRESENTATION('',(#833),#837);
#833 = LINE('',#834,#835);
#834 = CARTESIAN_POINT('',(-6.28318530718,3.233161507462E-02));
#835 = VECTOR('',#836,1.);
#836 = DIRECTION('',(1.,0.));
#837 = ( GEOMETRIC_REPRESENTATION_CONTEXT(2) 
PARAMETRIC_REPRESENTATION_CONTEXT() REPRESENTATION_CONTEXT('2D SPACE',''
  ) );
#838 = PCURVE('',#839,#844);
#839 = CYLINDRICAL_SURFACE('',#840,0.4);
#840 = AXIS2_PLACEMENT_3D('',#841,#842,#843);
#841 = CARTESIAN_POINT('',(-7.993605777301E-15,6.661338147751E-16,
    0.883145434537));
#842 = DIRECTION('',(-2.831068712794E-15,2.366582715663E-30,-1.));
#843 = DIRECTION('',(-0.86274688523,-0.505636047,2.886579864025E-15));
#844 = DEFINITIONAL_REPRESENTATION('',(#845),#849);
#845 = LINE('',#846,#847);
#846 = CARTESIAN_POINT('',(-6.28318530718,-0.517668384925));
#847 = VECTOR('',#848,1.);
#848 = DIRECTION('',(1.,0.));
#849 = ( GEOMETRIC_REPRESENTATION_CONTEXT(2) 
PARAMETRIC_REPRESENTATION_CONTEXT() REPRESENTATION_CONTEXT('2D SPACE',''
  ) );
#850 = ORIENTED_EDGE('',*,*,#851,.T.);
#851 = EDGE_CURVE('',#823,#767,#852,.T.);
#852 = SEAM_CURVE('',#853,(#857,#864),.PCURVE_S1.);
#853 = LINE('',#854,#855);
#854 = CARTESIAN_POINT('',(0.296784928519,0.173938800168,1.433145434537)
  );
#855 = VECTOR('',#856,1.);
#856 = DIRECTION('',(-0.747160719645,-0.437893661771,0.5));
#857 = PCURVE('',#783,#858);
#858 = DEFINITIONAL_REPRESENTATION('',(#859),#863);
#859 = LINE('',#860,#861);
#860 = CARTESIAN_POINT('',(-3.14159265359,-2.081668171172E-17));
#861 = VECTOR('',#862,1.);
#862 = DIRECTION('',(0.,-1.));
#863 = ( GEOMETRIC_REPRESENTATION_CONTEXT(2) 
PARAMETRIC_REPRESENTATION_CONTEXT() REPRESENTATION_CONTEXT('2D SPACE',''
  ) );
#864 = PCURVE('',#783,#865);
#865 = DEFINITIONAL_REPRESENTATION('',(#866),#870);
#866 = LINE('',#867,#868);
#867 = CARTESIAN_POINT('',(3.14159265359,-2.081668171172E-17));
#868 = VECTOR('',#869,1.);
#869 = DIRECTION('',(0.,-1.));
#870 = ( GEOMETRIC_REPRESENTATION_CONTEXT(2) 
PARAMETRIC_REPRESENTATION_CONTEXT() REPRESENTATION_CONTEXT('2D SPACE',''
  ) );
#871 = ORIENTED_EDGE('',*,*,#766,.T.);
#872 = ORIENTED_EDGE('',*,*,#851,.F.);
#873 = ADVANCED_FACE('',(#874),#839,.T.);
#874 = FACE_BOUND('',#875,.T.);
#875 = EDGE_LOOP('',(#876,#905,#926,#927));
#876 = ORIENTED_EDGE('',*,*,#877,.F.);
#877 = EDGE_CURVE('',#878,#878,#880,.T.);
#878 = VERTEX_POINT('',#879);
#879 = CARTESIAN_POINT('',(0.345098754092,0.2022544188,0.365477049612));
#880 = SURFACE_CURVE('',#881,(#886,#893),.PCURVE_S1.);
#881 = CIRCLE('',#882,0.4);
#882 = AXIS2_PLACEMENT_3D('',#883,#884,#885);
#883 = CARTESIAN_POINT('',(-7.993605777301E-15,7.216449660064E-16,
    0.365477049612));
#884 = DIRECTION('',(-3.360509397919E-15,2.509542563436E-17,-1.));
#885 = DIRECTION('',(-0.86274688523,-0.505636047,2.886579864025E-15));
#886 = PCURVE('',#839,#887);
#887 = DEFINITIONAL_REPRESENTATION('',(#888),#892);
#888 = LINE('',#889,#890);
#889 = CARTESIAN_POINT('',(-6.28318530718,0.517668384925));
#890 = VECTOR('',#891,1.);
#891 = DIRECTION('',(1.,0.));
#892 = ( GEOMETRIC_REPRESENTATION_CONTEXT(2) 
PARAMETRIC_REPRESENTATION_CONTEXT() REPRESENTATION_CONTEXT('2D SPACE',''
  ) );
#893 = PCURVE('',#894,#899);
#894 = CONICAL_SURFACE('',#895,0.344,1.047197551197);
#895 = AXIS2_PLACEMENT_3D('',#896,#897,#898);
#896 = CARTESIAN_POINT('',(-9.769962616701E-15,7.216449660064E-16,
    0.333145434537));
#897 = DIRECTION('',(2.831068712794E-15,-2.366582715663E-30,1.));
#898 = DIRECTION('',(-0.86274688523,-0.505636047,2.886579864025E-15));
#899 = DEFINITIONAL_REPRESENTATION('',(#900),#904);
#900 = LINE('',#901,#902);
#901 = CARTESIAN_POINT('',(12.566370614359,3.233161507462E-02));
#902 = VECTOR('',#903,1.);
#903 = DIRECTION('',(-1.,0.));
#904 = ( GEOMETRIC_REPRESENTATION_CONTEXT(2) 
PARAMETRIC_REPRESENTATION_CONTEXT() REPRESENTATION_CONTEXT('2D SPACE',''
  ) );
#905 = ORIENTED_EDGE('',*,*,#906,.T.);
#906 = EDGE_CURVE('',#878,#823,#907,.T.);
#907 = SEAM_CURVE('',#908,(#912,#919),.PCURVE_S1.);
#908 = LINE('',#909,#910);
#909 = CARTESIAN_POINT('',(0.345098754092,0.2022544188,0.883145434537));
#910 = VECTOR('',#911,1.);
#911 = DIRECTION('',(2.831068712794E-15,-2.366582715663E-30,1.));
#912 = PCURVE('',#839,#913);
#913 = DEFINITIONAL_REPRESENTATION('',(#914),#918);
#914 = LINE('',#915,#916);
#915 = CARTESIAN_POINT('',(-3.14159265359,0.));
#916 = VECTOR('',#917,1.);
#917 = DIRECTION('',(0.,-1.));
#918 = ( GEOMETRIC_REPRESENTATION_CONTEXT(2) 
PARAMETRIC_REPRESENTATION_CONTEXT() REPRESENTATION_CONTEXT('2D SPACE',''
  ) );
#919 = PCURVE('',#839,#920);
#920 = DEFINITIONAL_REPRESENTATION('',(#921),#925);
#921 = LINE('',#922,#923);
#922 = CARTESIAN_POINT('',(3.14159265359,0.));
#923 = VECTOR('',#924,1.);
#924 = DIRECTION('',(0.,-1.));
#925 = ( GEOMETRIC_REPRESENTATION_CONTEXT(2) 
PARAMETRIC_REPRESENTATION_CONTEXT() REPRESENTATION_CONTEXT('2D SPACE',''
  ) );
#926 = ORIENTED_EDGE('',*,*,#822,.T.);
#927 = ORIENTED_EDGE('',*,*,#906,.F.);
#928 = ADVANCED_FACE('',(#929),#894,.T.);
#929 = FACE_BOUND('',#930,.T.);
#930 = EDGE_LOOP('',(#931,#960,#981,#982));
#931 = ORIENTED_EDGE('',*,*,#932,.F.);
#932 = EDGE_CURVE('',#933,#933,#935,.T.);
#933 = VERTEX_POINT('',#934);
#934 = CARTESIAN_POINT('',(0.248471102946,0.145623181536,0.300813819462)
  );
#935 = SURFACE_CURVE('',#936,(#941,#948),.PCURVE_S1.);
#936 = CIRCLE('',#937,0.288);
#937 = AXIS2_PLACEMENT_3D('',#938,#939,#940);
#938 = CARTESIAN_POINT('',(-9.769962616701E-15,7.216449660064E-16,
    0.300813819462));
#939 = DIRECTION('',(-3.360509397919E-15,2.509542563436E-17,-1.));
#940 = DIRECTION('',(-0.86274688523,-0.505636047,2.886579864025E-15));
#941 = PCURVE('',#894,#942);
#942 = DEFINITIONAL_REPRESENTATION('',(#943),#947);
#943 = LINE('',#944,#945);
#944 = CARTESIAN_POINT('',(12.566370614359,-3.233161507462E-02));
#945 = VECTOR('',#946,1.);
#946 = DIRECTION('',(-1.,0.));
#947 = ( GEOMETRIC_REPRESENTATION_CONTEXT(2) 
PARAMETRIC_REPRESENTATION_CONTEXT() REPRESENTATION_CONTEXT('2D SPACE',''
  ) );
#948 = PCURVE('',#949,#954);
#949 = PLANE('',#950);
#950 = AXIS2_PLACEMENT_3D('',#951,#952,#953);
#951 = CARTESIAN_POINT('',(-0.236392646553,-0.138544276878,
    0.300813819462));
#952 = DIRECTION('',(-2.831068712794E-15,2.366582715663E-30,-1.));
#953 = DIRECTION('',(0.505636047,-0.86274688523,-1.720845688169E-15));
#954 = DEFINITIONAL_REPRESENTATION('',(#955),#959);
#955 = CIRCLE('',#956,0.288);
#956 = AXIS2_PLACEMENT_2D('',#957,#958);
#957 = CARTESIAN_POINT('',(-2.25514051877E-16,-0.274));
#958 = DIRECTION('',(-1.387778780781E-16,1.));
#959 = ( GEOMETRIC_REPRESENTATION_CONTEXT(2) 
PARAMETRIC_REPRESENTATION_CONTEXT() REPRESENTATION_CONTEXT('2D SPACE',''
  ) );
#960 = ORIENTED_EDGE('',*,*,#961,.T.);
#961 = EDGE_CURVE('',#933,#878,#962,.T.);
#962 = SEAM_CURVE('',#963,(#967,#974),.PCURVE_S1.);
#963 = LINE('',#964,#965);
#964 = CARTESIAN_POINT('',(0.296784928519,0.173938800168,0.333145434537)
  );
#965 = VECTOR('',#966,1.);
#966 = DIRECTION('',(0.747160719645,0.437893661771,0.5));
#967 = PCURVE('',#894,#968);
#968 = DEFINITIONAL_REPRESENTATION('',(#969),#973);
#969 = LINE('',#970,#971);
#970 = CARTESIAN_POINT('',(9.424777960769,1.387778780781E-17));
#971 = VECTOR('',#972,1.);
#972 = DIRECTION('',(0.,1.));
#973 = ( GEOMETRIC_REPRESENTATION_CONTEXT(2) 
PARAMETRIC_REPRESENTATION_CONTEXT() REPRESENTATION_CONTEXT('2D SPACE',''
  ) );
#974 = PCURVE('',#894,#975);
#975 = DEFINITIONAL_REPRESENTATION('',(#976),#980);
#976 = LINE('',#977,#978);
#977 = CARTESIAN_POINT('',(3.14159265359,1.387778780781E-17));
#978 = VECTOR('',#979,1.);
#979 = DIRECTION('',(0.,1.));
#980 = ( GEOMETRIC_REPRESENTATION_CONTEXT(2) 
PARAMETRIC_REPRESENTATION_CONTEXT() REPRESENTATION_CONTEXT('2D SPACE',''
  ) );
#981 = ORIENTED_EDGE('',*,*,#877,.T.);
#982 = ORIENTED_EDGE('',*,*,#961,.F.);
#983 = ADVANCED_FACE('',(#984,#987),#949,.T.);
#984 = FACE_BOUND('',#985,.T.);
#985 = EDGE_LOOP('',(#986));
#986 = ORIENTED_EDGE('',*,*,#932,.T.);
#987 = FACE_BOUND('',#988,.T.);
#988 = EDGE_LOOP('',(#989));
#989 = ORIENTED_EDGE('',*,*,#990,.F.);
#990 = EDGE_CURVE('',#991,#991,#993,.T.);
#991 = VERTEX_POINT('',#992);
#992 = CARTESIAN_POINT('',(0.22431419016,0.13146537222,0.300813819462));
#993 = SURFACE_CURVE('',#994,(#999,#1006),.PCURVE_S1.);
#994 = CIRCLE('',#995,0.26);
#995 = AXIS2_PLACEMENT_3D('',#996,#997,#998);
#996 = CARTESIAN_POINT('',(-9.769962616701E-15,7.216449660064E-16,
    0.300813819462));
#997 = DIRECTION('',(-3.360509397919E-15,2.509542563436E-17,-1.));
#998 = DIRECTION('',(-0.86274688523,-0.505636047,2.886579864025E-15));
#999 = PCURVE('',#949,#1000);
#1000 = DEFINITIONAL_REPRESENTATION('',(#1001),#1005);
#1001 = CIRCLE('',#1002,0.26);
#1002 = AXIS2_PLACEMENT_2D('',#1003,#1004);
#1003 = CARTESIAN_POINT('',(-2.25514051877E-16,-0.274));
#1004 = DIRECTION('',(-1.387778780781E-16,1.));
#1005 = ( GEOMETRIC_REPRESENTATION_CONTEXT(2) 
PARAMETRIC_REPRESENTATION_CONTEXT() REPRESENTATION_CONTEXT('2D SPACE',''
  ) );
#1006 = PCURVE('',#1007,#1012);
#1007 = CYLINDRICAL_SURFACE('',#1008,0.26);
#1008 = AXIS2_PLACEMENT_3D('',#1009,#1010,#1011);
#1009 = CARTESIAN_POINT('',(-9.769962616701E-15,6.661338147751E-16,
    0.150813819462));
#1010 = DIRECTION('',(-2.831068712794E-15,2.366582715663E-30,-1.));
#1011 = DIRECTION('',(-0.86274688523,-0.505636047,2.886579864025E-15));
#1012 = DEFINITIONAL_REPRESENTATION('',(#1013),#1017);
#1013 = LINE('',#1014,#1015);
#1014 = CARTESIAN_POINT('',(-6.28318530718,-0.15));
#1015 = VECTOR('',#1016,1.);
#1016 = DIRECTION('',(1.,0.));
#1017 = ( GEOMETRIC_REPRESENTATION_CONTEXT(2) 
PARAMETRIC_REPRESENTATION_CONTEXT() REPRESENTATION_CONTEXT('2D SPACE',''
  ) );
#1018 = ADVANCED_FACE('',(#1019),#1007,.T.);
#1019 = FACE_BOUND('',#1020,.T.);
#1020 = EDGE_LOOP('',(#1021,#1050,#1071,#1072));
#1021 = ORIENTED_EDGE('',*,*,#1022,.F.);
#1022 = EDGE_CURVE('',#1023,#1023,#1025,.T.);
#1023 = VERTEX_POINT('',#1024);
#1024 = CARTESIAN_POINT('',(0.22431419016,0.13146537222,
    8.13819462313E-04));
#1025 = SURFACE_CURVE('',#1026,(#1031,#1038),.PCURVE_S1.);
#1026 = CIRCLE('',#1027,0.26);
#1027 = AXIS2_PLACEMENT_3D('',#1028,#1029,#1030);
#1028 = CARTESIAN_POINT('',(-9.769962616701E-15,7.216449660064E-16,
    8.13819462314E-04));
#1029 = DIRECTION('',(-3.360509397919E-15,2.509542563436E-17,-1.));
#1030 = DIRECTION('',(-0.86274688523,-0.505636047,2.886579864025E-15));
#1031 = PCURVE('',#1007,#1032);
#1032 = DEFINITIONAL_REPRESENTATION('',(#1033),#1037);
#1033 = LINE('',#1034,#1035);
#1034 = CARTESIAN_POINT('',(-6.28318530718,0.15));
#1035 = VECTOR('',#1036,1.);
#1036 = DIRECTION('',(1.,0.));
#1037 = ( GEOMETRIC_REPRESENTATION_CONTEXT(2) 
PARAMETRIC_REPRESENTATION_CONTEXT() REPRESENTATION_CONTEXT('2D SPACE',''
  ) );
#1038 = PCURVE('',#1039,#1044);
#1039 = PLANE('',#1040);
#1040 = AXIS2_PLACEMENT_3D('',#1041,#1042,#1043);
#1041 = CARTESIAN_POINT('',(-0.11215709508,-6.573268610998E-02,
    8.13819462314E-04));
#1042 = DIRECTION('',(-2.831068712794E-15,2.366582715663E-30,-1.));
#1043 = DIRECTION('',(0.505636047,-0.86274688523,-1.720845688169E-15));
#1044 = DEFINITIONAL_REPRESENTATION('',(#1045),#1049);
#1045 = CIRCLE('',#1046,0.26);
#1046 = AXIS2_PLACEMENT_2D('',#1047,#1048);
#1047 = CARTESIAN_POINT('',(-1.040834085586E-17,-0.13));
#1048 = DIRECTION('',(-1.387778780781E-16,1.));
#1049 = ( GEOMETRIC_REPRESENTATION_CONTEXT(2) 
PARAMETRIC_REPRESENTATION_CONTEXT() REPRESENTATION_CONTEXT('2D SPACE',''
  ) );
#1050 = ORIENTED_EDGE('',*,*,#1051,.T.);
#1051 = EDGE_CURVE('',#1023,#991,#1052,.T.);
#1052 = SEAM_CURVE('',#1053,(#1057,#1064),.PCURVE_S1.);
#1053 = LINE('',#1054,#1055);
#1054 = CARTESIAN_POINT('',(0.22431419016,0.13146537222,0.150813819462)
  );
#1055 = VECTOR('',#1056,1.);
#1056 = DIRECTION('',(2.831068712794E-15,-2.366582715663E-30,1.));
#1057 = PCURVE('',#1007,#1058);
#1058 = DEFINITIONAL_REPRESENTATION('',(#1059),#1063);
#1059 = LINE('',#1060,#1061);
#1060 = CARTESIAN_POINT('',(-3.14159265359,0.));
#1061 = VECTOR('',#1062,1.);
#1062 = DIRECTION('',(0.,-1.));
#1063 = ( GEOMETRIC_REPRESENTATION_CONTEXT(2) 
PARAMETRIC_REPRESENTATION_CONTEXT() REPRESENTATION_CONTEXT('2D SPACE',''
  ) );
#1064 = PCURVE('',#1007,#1065);
#1065 = DEFINITIONAL_REPRESENTATION('',(#1066),#1070);
#1066 = LINE('',#1067,#1068);
#1067 = CARTESIAN_POINT('',(3.14159265359,0.));
#1068 = VECTOR('',#1069,1.);
#1069 = DIRECTION('',(0.,-1.));
#1070 = ( GEOMETRIC_REPRESENTATION_CONTEXT(2) 
PARAMETRIC_REPRESENTATION_CONTEXT() REPRESENTATION_CONTEXT('2D SPACE',''
  ) );
#1071 = ORIENTED_EDGE('',*,*,#990,.T.);
#1072 = ORIENTED_EDGE('',*,*,#1051,.F.);
#1073 = ADVANCED_FACE('',(#1074),#1039,.T.);
#1074 = FACE_BOUND('',#1075,.T.);
#1075 = EDGE_LOOP('',(#1076));
#1076 = ORIENTED_EDGE('',*,*,#1022,.T.);
#1077 = ( GEOMETRIC_REPRESENTATION_CONTEXT(3) 
GLOBAL_UNCERTAINTY_ASSIGNED_CONTEXT((#1081)) 
GLOBAL_UNIT_ASSIGNED_CONTEXT((#1078,#1079,#1080)) REPRESENTATION_CONTEXT
('Context #1','3D Context with UNIT and UNCERTAINTY') );
#1078 = ( LENGTH_UNIT() NAMED_UNIT(*) SI_UNIT(.MILLI.,.METRE.) );
#1079 = ( NAMED_UNIT(*) PLANE_ANGLE_UNIT() SI_UNIT($,.RADIAN.) );
#1080 = ( NAMED_UNIT(*) SI_UNIT($,.STERADIAN.) SOLID_ANGLE_UNIT() );
#1081 = UNCERTAINTY_MEASURE_WITH_UNIT(LENGTH_MEASURE(2.E-04),#1078,
  'distance_accuracy_value','confusion accuracy');
#1082 = PRODUCT_RELATED_PRODUCT_CATEGORY('part',$,(#7));
ENDSEC;
END-ISO-10303-21;
