ISO-10303-21;
HEADER;
FILE_DESCRIPTION(('Open CASCADE Model'),'2;1');
FILE_NAME('Open CASCADE Shape Model','2026-09-01T11:17:24',('Author'),(
    'Open CASCADE'),'Open CASCADE STEP processor 7.9','Open CASCADE 7.9'
  ,'Unknown');
FILE_SCHEMA(('AUTOMOTIVE_DESIGN { 1 0 10303 214 1 1 1 1 }'));
ENDSEC;
DATA;
#1 = APPLICATION_PROTOCOL_DEFINITION('international standard',
  'automotive_design',2000,#2);
#2 = APPLICATION_CONTEXT(
  'core data for automotive mechanical design processes');
#3 = SHAPE_DEFINITION_REPRESENTATION(#4,#10);
#4 = PRODUCT_DEFINITION_SHAPE('','',#5);
#5 = PRODUCT_DEFINITION('design','',#6,#9);
#6 = PRODUCT_DEFINITION_FORMATION('','',#7);
#7 = PRODUCT('Open CASCADE STEP translator 7.9 19',
  'Open CASCADE STEP translator 7.9 19','',(#8));
#8 = PRODUCT_CONTEXT('',#2,'mechanical');
#9 = PRODUCT_DEFINITION_CONTEXT('part definition',#2,'design');
#10 = ADVANCED_BREP_SHAPE_REPRESENTATION('',(#11,#15),#1085);
#11 = AXIS2_PLACEMENT_3D('',#12,#13,#14);
#12 = CARTESIAN_POINT('',(0.,0.,0.));
#13 = DIRECTION('',(0.,0.,1.));
#14 = DIRECTION('',(1.,0.,-0.));
#15 = MANIFOLD_SOLID_BREP('',#16);
#16 = CLOSED_SHELL('',(#17,#140,#192,#448,#453,#541,#588,#593,#620,#648,
    #655,#690,#770,#826,#881,#936,#991,#1026,#1081));
#17 = ADVANCED_FACE('',(#18),#33,.T.);
#18 = FACE_BOUND('',#19,.T.);
#19 = EDGE_LOOP('',(#20,#60,#89,#118));
#20 = ORIENTED_EDGE('',*,*,#21,.T.);
#21 = EDGE_CURVE('',#22,#24,#26,.T.);
#22 = VERTEX_POINT('',#23);
#23 = CARTESIAN_POINT('',(0.296946602772,-0.790037160583,1.550724968946)
  );
#24 = VERTEX_POINT('',#25);
#25 = CARTESIAN_POINT('',(-0.5233286534,0.662165478208,1.550724968946));
#26 = SURFACE_CURVE('',#27,(#32,#44),.PCURVE_S1.);
#27 = CIRCLE('',#28,0.844);
#28 = AXIS2_PLACEMENT_3D('',#29,#30,#31);
#29 = CARTESIAN_POINT('',(0.,0.,1.550724968946));
#30 = DIRECTION('',(-4.15786326255E-16,8.489718635473E-16,-1.));
#31 = DIRECTION('',(0.491814162981,-0.870700194723,-9.436895709314E-16)
  );
#32 = PCURVE('',#33,#38);
#33 = CONICAL_SURFACE('',#34,0.869,0.785398163397);
#34 = AXIS2_PLACEMENT_3D('',#35,#36,#37);
#35 = CARTESIAN_POINT('',(0.,0.,1.525724968946));
#36 = DIRECTION('',(-4.996003610813E-16,8.221595241569E-16,-1.));
#37 = DIRECTION('',(0.491814162981,-0.870700194723,-9.436895709314E-16)
  );
#38 = DEFINITIONAL_REPRESENTATION('',(#39),#43);
#39 = LINE('',#40,#41);
#40 = CARTESIAN_POINT('',(0.,-2.5E-02));
#41 = VECTOR('',#42,1.);
#42 = DIRECTION('',(1.,0.));
#43 = ( GEOMETRIC_REPRESENTATION_CONTEXT(2) 
PARAMETRIC_REPRESENTATION_CONTEXT() REPRESENTATION_CONTEXT('2D SPACE',''
  ) );
#44 = PCURVE('',#45,#50);
#45 = PLANE('',#46);
#46 = AXIS2_PLACEMENT_3D('',#47,#48,#49);
#47 = CARTESIAN_POINT('',(0.219840930852,-0.389202987041,1.550724968946)
  );
#48 = DIRECTION('',(4.996003610813E-16,-8.221595241569E-16,1.));
#49 = DIRECTION('',(-0.870700194723,-0.491814162981,-5.551115123126E-17)
  );
#50 = DEFINITIONAL_REPRESENTATION('',(#51),#59);
#51 = ( BOUNDED_CURVE() B_SPLINE_CURVE(2,(#52,#53,#54,#55,#56,#57,#58),
.UNSPECIFIED.,.T.,.F.) B_SPLINE_CURVE_WITH_KNOTS((1,2,2,2,2,1),(
    -2.094395102393,0.,2.094395102393,4.188790204786,6.28318530718,
8.377580409573),.UNSPECIFIED.) CURVE() GEOMETRIC_REPRESENTATION_ITEM() 
RATIONAL_B_SPLINE_CURVE((1.,0.5,1.,0.5,1.,0.5,1.)) REPRESENTATION_ITEM(
  '') );
#52 = CARTESIAN_POINT('',(-4.163336342344E-16,0.397));
#53 = CARTESIAN_POINT('',(1.461850881588,0.397));
#54 = CARTESIAN_POINT('',(0.730925440794,-0.869));
#55 = CARTESIAN_POINT('',(-2.096132545384E-16,-2.135));
#56 = CARTESIAN_POINT('',(-0.730925440794,-0.869));
#57 = CARTESIAN_POINT('',(-1.461850881588,0.397));
#58 = CARTESIAN_POINT('',(-4.163336342344E-16,0.397));
#59 = ( GEOMETRIC_REPRESENTATION_CONTEXT(2) 
PARAMETRIC_REPRESENTATION_CONTEXT() REPRESENTATION_CONTEXT('2D SPACE',''
  ) );
#60 = ORIENTED_EDGE('',*,*,#61,.F.);
#61 = EDGE_CURVE('',#62,#24,#64,.T.);
#62 = VERTEX_POINT('',#63);
#63 = CARTESIAN_POINT('',(-0.507573930282,0.73593797653,1.500724968946)
  );
#64 = SURFACE_CURVE('',#65,(#70,#76),.PCURVE_S1.);
#65 = B_SPLINE_CURVE_WITH_KNOTS('',3,(#66,#67,#68,#69),.UNSPECIFIED.,.F.
  ,.F.,(4,4),(-9.046839625303E-03,0.),.PIECEWISE_BEZIER_KNOTS.);
#66 = CARTESIAN_POINT('',(-0.507573930282,0.73593797653,1.500724968946)
  );
#67 = CARTESIAN_POINT('',(-0.51318579612,0.711578152941,1.517591727873)
  );
#68 = CARTESIAN_POINT('',(-0.518457438675,0.686971619086,1.534283589924)
  );
#69 = CARTESIAN_POINT('',(-0.5233286534,0.662165478208,1.550724968946));
#70 = PCURVE('',#33,#71);
#71 = DEFINITIONAL_REPRESENTATION('',(#72),#75);
#72 = B_SPLINE_CURVE_WITH_KNOTS('',1,(#73,#74),.UNSPECIFIED.,.F.,.F.,(2,
    2),(-9.046839625303E-03,0.),.PIECEWISE_BEZIER_KNOTS.);
#73 = CARTESIAN_POINT('',(3.051987334564,2.5E-02));
#74 = CARTESIAN_POINT('',(2.986948574032,-2.5E-02));
#75 = ( GEOMETRIC_REPRESENTATION_CONTEXT(2) 
PARAMETRIC_REPRESENTATION_CONTEXT() REPRESENTATION_CONTEXT('2D SPACE',''
  ) );
#76 = PCURVE('',#77,#82);
#77 = PLANE('',#78);
#78 = AXIS2_PLACEMENT_3D('',#79,#80,#81);
#79 = CARTESIAN_POINT('',(1.849694498027E-02,-0.246241980634,
    1.525724968946));
#80 = DIRECTION('',(0.615678012069,0.347765129727,0.707106781187));
#81 = DIRECTION('',(-0.491814162981,0.870700194723,9.436895709314E-16));
#82 = DEFINITIONAL_REPRESENTATION('',(#83),#88);
#83 = B_SPLINE_CURVE_WITH_KNOTS('',3,(#84,#85,#86,#87),.UNSPECIFIED.,.F.
  ,.F.,(4,4),(-9.046839625303E-03,0.),.PIECEWISE_BEZIER_KNOTS.);
#84 = CARTESIAN_POINT('',(1.113913387141,-3.535533905933E-02));
#85 = CARTESIAN_POINT('',(1.095463279099,-1.150213983131E-02));
#86 = CARTESIAN_POINT('',(1.076631033751,1.210371786234E-02));
#87 = CARTESIAN_POINT('',(1.057428054451,3.535533905933E-02));
#88 = ( GEOMETRIC_REPRESENTATION_CONTEXT(2) 
PARAMETRIC_REPRESENTATION_CONTEXT() REPRESENTATION_CONTEXT('2D SPACE',''
  ) );
#89 = ORIENTED_EDGE('',*,*,#90,.T.);
#90 = EDGE_CURVE('',#62,#91,#93,.T.);
#91 = VERTEX_POINT('',#92);
#92 = CARTESIAN_POINT('',(0.368261899126,-0.814628242607,1.500724968946)
  );
#93 = SURFACE_CURVE('',#94,(#99,#106),.PCURVE_S1.);
#94 = CIRCLE('',#95,0.894);
#95 = AXIS2_PLACEMENT_3D('',#96,#97,#98);
#96 = CARTESIAN_POINT('',(-1.7763568394E-15,0.,1.500724968946));
#97 = DIRECTION('',(4.15786326255E-16,-8.489718635473E-16,1.));
#98 = DIRECTION('',(0.491814162981,-0.870700194723,-9.436895709314E-16)
  );
#99 = PCURVE('',#33,#100);
#100 = DEFINITIONAL_REPRESENTATION('',(#101),#105);
#101 = LINE('',#102,#103);
#102 = CARTESIAN_POINT('',(6.28318530718,2.5E-02));
#103 = VECTOR('',#104,1.);
#104 = DIRECTION('',(-1.,0.));
#105 = ( GEOMETRIC_REPRESENTATION_CONTEXT(2) 
PARAMETRIC_REPRESENTATION_CONTEXT() REPRESENTATION_CONTEXT('2D SPACE',''
  ) );
#106 = PCURVE('',#107,#112);
#107 = CYLINDRICAL_SURFACE('',#108,0.894);
#108 = AXIS2_PLACEMENT_3D('',#109,#110,#111);
#109 = CARTESIAN_POINT('',(0.,1.110223024625E-16,1.425724968946));
#110 = DIRECTION('',(-4.996003610813E-16,8.221595241569E-16,-1.));
#111 = DIRECTION('',(0.491814162981,-0.870700194723,-9.436895709314E-16)
  );
#112 = DEFINITIONAL_REPRESENTATION('',(#113),#117);
#113 = LINE('',#114,#115);
#114 = CARTESIAN_POINT('',(6.28318530718,-7.5E-02));
#115 = VECTOR('',#116,1.);
#116 = DIRECTION('',(-1.,0.));
#117 = ( GEOMETRIC_REPRESENTATION_CONTEXT(2) 
PARAMETRIC_REPRESENTATION_CONTEXT() REPRESENTATION_CONTEXT('2D SPACE',''
  ) );
#118 = ORIENTED_EDGE('',*,*,#119,.T.);
#119 = EDGE_CURVE('',#91,#22,#120,.T.);
#120 = SURFACE_CURVE('',#121,(#126,#132),.PCURVE_S1.);
#121 = B_SPLINE_CURVE_WITH_KNOTS('',3,(#122,#123,#124,#125),
  .UNSPECIFIED.,.F.,.F.,(4,4),(-9.046839625305E-03,0.),
  .PIECEWISE_BEZIER_KNOTS.);
#122 = CARTESIAN_POINT('',(0.368261899126,-0.814628242607,1.500724968946
    ));
#123 = CARTESIAN_POINT('',(0.3445019844,-0.806859040865,1.517591727873)
  );
#124 = CARTESIAN_POINT('',(0.320706411879,-0.798671095337,1.534283589924
    ));
#125 = CARTESIAN_POINT('',(0.296946602772,-0.790037160583,1.550724968946
    ));
#126 = PCURVE('',#33,#127);
#127 = DEFINITIONAL_REPRESENTATION('',(#128),#131);
#128 = B_SPLINE_CURVE_WITH_KNOTS('',1,(#129,#130),.UNSPECIFIED.,.F.,.F.,
  (2,2),(-9.046839625305E-03,0.),.PIECEWISE_BEZIER_KNOTS.);
#129 = CARTESIAN_POINT('',(8.960531902581E-02,2.5E-02));
#130 = CARTESIAN_POINT('',(0.154644079558,-2.5E-02));
#131 = ( GEOMETRIC_REPRESENTATION_CONTEXT(2) 
PARAMETRIC_REPRESENTATION_CONTEXT() REPRESENTATION_CONTEXT('2D SPACE',''
  ) );
#132 = PCURVE('',#77,#133);
#133 = DEFINITIONAL_REPRESENTATION('',(#134),#139);
#134 = B_SPLINE_CURVE_WITH_KNOTS('',3,(#135,#136,#137,#138),
  .UNSPECIFIED.,.F.,.F.,(4,4),(-9.046839625305E-03,0.),
  .PIECEWISE_BEZIER_KNOTS.);
#135 = CARTESIAN_POINT('',(-0.666913387141,-3.535533905933E-02));
#136 = CARTESIAN_POINT('',(-0.648463279099,-1.150213983132E-02));
#137 = CARTESIAN_POINT('',(-0.629631033751,1.210371786234E-02));
#138 = CARTESIAN_POINT('',(-0.610428054451,3.535533905933E-02));
#139 = ( GEOMETRIC_REPRESENTATION_CONTEXT(2) 
PARAMETRIC_REPRESENTATION_CONTEXT() REPRESENTATION_CONTEXT('2D SPACE',''
  ) );
#140 = ADVANCED_FACE('',(#141),#77,.T.);
#141 = FACE_BOUND('',#142,.T.);
#142 = EDGE_LOOP('',(#143,#169,#170,#191));
#143 = ORIENTED_EDGE('',*,*,#144,.T.);
#144 = EDGE_CURVE('',#91,#62,#145,.T.);
#145 = SURFACE_CURVE('',#146,(#150,#157),.PCURVE_S1.);
#146 = LINE('',#147,#148);
#147 = CARTESIAN_POINT('',(4.026444984835E-02,-0.233946626559,
    1.500724968946));
#148 = VECTOR('',#149,1.);
#149 = DIRECTION('',(-0.491814162981,0.870700194723,9.436895709314E-16)
  );
#150 = PCURVE('',#77,#151);
#151 = DEFINITIONAL_REPRESENTATION('',(#152),#156);
#152 = LINE('',#153,#154);
#153 = CARTESIAN_POINT('',(2.203098814491E-16,-3.535533905933E-02));
#154 = VECTOR('',#155,1.);
#155 = DIRECTION('',(1.,1.387778780781E-17));
#156 = ( GEOMETRIC_REPRESENTATION_CONTEXT(2) 
PARAMETRIC_REPRESENTATION_CONTEXT() REPRESENTATION_CONTEXT('2D SPACE',''
  ) );
#157 = PCURVE('',#158,#163);
#158 = PLANE('',#159);
#159 = AXIS2_PLACEMENT_3D('',#160,#161,#162);
#160 = CARTESIAN_POINT('',(-6.965601557787E-02,-3.934513303847E-02,
    1.710724968946));
#161 = DIRECTION('',(-0.870700194723,-0.491814162981,-1.110223024625E-16
    ));
#162 = DIRECTION('',(0.491814162981,-0.870700194723,-9.436895709314E-16)
  );
#163 = DEFINITIONAL_REPRESENTATION('',(#164),#168);
#164 = LINE('',#165,#166);
#165 = CARTESIAN_POINT('',(0.2235,-0.21));
#166 = VECTOR('',#167,1.);
#167 = DIRECTION('',(-1.,0.));
#168 = ( GEOMETRIC_REPRESENTATION_CONTEXT(2) 
PARAMETRIC_REPRESENTATION_CONTEXT() REPRESENTATION_CONTEXT('2D SPACE',''
  ) );
#169 = ORIENTED_EDGE('',*,*,#61,.T.);
#170 = ORIENTED_EDGE('',*,*,#171,.T.);
#171 = EDGE_CURVE('',#24,#22,#172,.T.);
#172 = SURFACE_CURVE('',#173,(#177,#184),.PCURVE_S1.);
#173 = LINE('',#174,#175);
#174 = CARTESIAN_POINT('',(-3.270559887818E-03,-0.258537334708,
    1.550724968946));
#175 = VECTOR('',#176,1.);
#176 = DIRECTION('',(0.491814162981,-0.870700194723,-9.436895709314E-16)
  );
#177 = PCURVE('',#77,#178);
#178 = DEFINITIONAL_REPRESENTATION('',(#179),#183);
#179 = LINE('',#180,#181);
#180 = CARTESIAN_POINT('',(-5.20417042793E-18,3.535533905933E-02));
#181 = VECTOR('',#182,1.);
#182 = DIRECTION('',(-1.,-1.387778780781E-17));
#183 = ( GEOMETRIC_REPRESENTATION_CONTEXT(2) 
PARAMETRIC_REPRESENTATION_CONTEXT() REPRESENTATION_CONTEXT('2D SPACE',''
  ) );
#184 = PCURVE('',#45,#185);
#185 = DEFINITIONAL_REPRESENTATION('',(#186),#190);
#186 = LINE('',#187,#188);
#187 = CARTESIAN_POINT('',(0.13,-0.2235));
#188 = VECTOR('',#189,1.);
#189 = DIRECTION('',(-5.551115123126E-17,1.));
#190 = ( GEOMETRIC_REPRESENTATION_CONTEXT(2) 
PARAMETRIC_REPRESENTATION_CONTEXT() REPRESENTATION_CONTEXT('2D SPACE',''
  ) );
#191 = ORIENTED_EDGE('',*,*,#119,.F.);
#192 = ADVANCED_FACE('',(#193),#107,.T.);
#193 = FACE_BOUND('',#194,.T.);
#194 = EDGE_LOOP('',(#195,#224,#247,#276,#304,#333,#356,#380,#401,#402,
    #425,#447));
#195 = ORIENTED_EDGE('',*,*,#196,.F.);
#196 = EDGE_CURVE('',#197,#197,#199,.T.);
#197 = VERTEX_POINT('',#198);
#198 = CARTESIAN_POINT('',(-0.439681861705,0.778405974083,1.300724968946
    ));
#199 = SURFACE_CURVE('',#200,(#205,#212),.PCURVE_S1.);
#200 = CIRCLE('',#201,0.894);
#201 = AXIS2_PLACEMENT_3D('',#202,#203,#204);
#202 = CARTESIAN_POINT('',(0.,2.22044604925E-16,1.300724968946));
#203 = DIRECTION('',(-4.15786326255E-16,8.489718635473E-16,-1.));
#204 = DIRECTION('',(0.491814162981,-0.870700194723,-9.436895709314E-16)
  );
#205 = PCURVE('',#107,#206);
#206 = DEFINITIONAL_REPRESENTATION('',(#207),#211);
#207 = LINE('',#208,#209);
#208 = CARTESIAN_POINT('',(-6.28318530718,0.125));
#209 = VECTOR('',#210,1.);
#210 = DIRECTION('',(1.,0.));
#211 = ( GEOMETRIC_REPRESENTATION_CONTEXT(2) 
PARAMETRIC_REPRESENTATION_CONTEXT() REPRESENTATION_CONTEXT('2D SPACE',''
  ) );
#212 = PCURVE('',#213,#218);
#213 = PLANE('',#214);
#214 = AXIS2_PLACEMENT_3D('',#215,#216,#217);
#215 = CARTESIAN_POINT('',(0.302957524396,-0.53635131995,1.300724968946)
  );
#216 = DIRECTION('',(-4.996003610813E-16,8.221595241569E-16,-1.));
#217 = DIRECTION('',(0.870700194723,0.491814162981,5.551115123126E-17));
#218 = DEFINITIONAL_REPRESENTATION('',(#219),#223);
#219 = CIRCLE('',#220,0.894);
#220 = AXIS2_PLACEMENT_2D('',#221,#222);
#221 = CARTESIAN_POINT('',(7.216449660064E-16,-0.616));
#222 = DIRECTION('',(0.,1.));
#223 = ( GEOMETRIC_REPRESENTATION_CONTEXT(2) 
PARAMETRIC_REPRESENTATION_CONTEXT() REPRESENTATION_CONTEXT('2D SPACE',''
  ) );
#224 = ORIENTED_EDGE('',*,*,#225,.T.);
#225 = EDGE_CURVE('',#197,#226,#228,.T.);
#226 = VERTEX_POINT('',#227);
#227 = CARTESIAN_POINT('',(-0.439681861705,0.778405974083,1.410724968946
    ));
#228 = SEAM_CURVE('',#229,(#233,#240),.PCURVE_S1.);
#229 = LINE('',#230,#231);
#230 = CARTESIAN_POINT('',(-0.439681861705,0.778405974083,1.425724968946
    ));
#231 = VECTOR('',#232,1.);
#232 = DIRECTION('',(4.996003610813E-16,-8.221595241569E-16,1.));
#233 = PCURVE('',#107,#234);
#234 = DEFINITIONAL_REPRESENTATION('',(#235),#239);
#235 = LINE('',#236,#237);
#236 = CARTESIAN_POINT('',(-3.14159265359,0.));
#237 = VECTOR('',#238,1.);
#238 = DIRECTION('',(0.,-1.));
#239 = ( GEOMETRIC_REPRESENTATION_CONTEXT(2) 
PARAMETRIC_REPRESENTATION_CONTEXT() REPRESENTATION_CONTEXT('2D SPACE',''
  ) );
#240 = PCURVE('',#107,#241);
#241 = DEFINITIONAL_REPRESENTATION('',(#242),#246);
#242 = LINE('',#243,#244);
#243 = CARTESIAN_POINT('',(3.14159265359,0.));
#244 = VECTOR('',#245,1.);
#245 = DIRECTION('',(0.,-1.));
#246 = ( GEOMETRIC_REPRESENTATION_CONTEXT(2) 
PARAMETRIC_REPRESENTATION_CONTEXT() REPRESENTATION_CONTEXT('2D SPACE',''
  ) );
#247 = ORIENTED_EDGE('',*,*,#248,.T.);
#248 = EDGE_CURVE('',#226,#249,#251,.T.);
#249 = VERTEX_POINT('',#250);
#250 = CARTESIAN_POINT('',(-0.368261899126,0.814628242607,1.410724968946
    ));
#251 = SURFACE_CURVE('',#252,(#257,#264),.PCURVE_S1.);
#252 = CIRCLE('',#253,0.894);
#253 = AXIS2_PLACEMENT_3D('',#254,#255,#256);
#254 = CARTESIAN_POINT('',(0.,1.110223024625E-16,1.410724968946));
#255 = DIRECTION('',(-4.15786326255E-16,8.489718635473E-16,-1.));
#256 = DIRECTION('',(0.491814162981,-0.870700194723,-9.436895709314E-16)
  );
#257 = PCURVE('',#107,#258);
#258 = DEFINITIONAL_REPRESENTATION('',(#259),#263);
#259 = LINE('',#260,#261);
#260 = CARTESIAN_POINT('',(-6.28318530718,1.5E-02));
#261 = VECTOR('',#262,1.);
#262 = DIRECTION('',(1.,0.));
#263 = ( GEOMETRIC_REPRESENTATION_CONTEXT(2) 
PARAMETRIC_REPRESENTATION_CONTEXT() REPRESENTATION_CONTEXT('2D SPACE',''
  ) );
#264 = PCURVE('',#265,#270);
#265 = PLANE('',#266);
#266 = AXIS2_PLACEMENT_3D('',#267,#268,#269);
#267 = CARTESIAN_POINT('',(-6.965601557787E-02,-3.934513303847E-02,
    1.410724968946));
#268 = DIRECTION('',(-4.996003610813E-16,8.221595241569E-16,-1.));
#269 = DIRECTION('',(0.870700194723,0.491814162981,5.551115123126E-17));
#270 = DEFINITIONAL_REPRESENTATION('',(#271),#275);
#271 = CIRCLE('',#272,0.894);
#272 = AXIS2_PLACEMENT_2D('',#273,#274);
#273 = CARTESIAN_POINT('',(8.E-02,3.955169525227E-16));
#274 = DIRECTION('',(0.,1.));
#275 = ( GEOMETRIC_REPRESENTATION_CONTEXT(2) 
PARAMETRIC_REPRESENTATION_CONTEXT() REPRESENTATION_CONTEXT('2D SPACE',''
  ) );
#276 = ORIENTED_EDGE('',*,*,#277,.T.);
#277 = EDGE_CURVE('',#249,#278,#280,.T.);
#278 = VERTEX_POINT('',#279);
#279 = CARTESIAN_POINT('',(-0.368261899126,0.814628242607,1.500724968946
    ));
#280 = SURFACE_CURVE('',#281,(#285,#292),.PCURVE_S1.);
#281 = LINE('',#282,#283);
#282 = CARTESIAN_POINT('',(-0.368261899126,0.814628242607,1.425724968946
    ));
#283 = VECTOR('',#284,1.);
#284 = DIRECTION('',(4.996003610813E-16,-8.221595241569E-16,1.));
#285 = PCURVE('',#107,#286);
#286 = DEFINITIONAL_REPRESENTATION('',(#287),#291);
#287 = LINE('',#288,#289);
#288 = CARTESIAN_POINT('',(-3.051987334564,0.));
#289 = VECTOR('',#290,1.);
#290 = DIRECTION('',(0.,-1.));
#291 = ( GEOMETRIC_REPRESENTATION_CONTEXT(2) 
PARAMETRIC_REPRESENTATION_CONTEXT() REPRESENTATION_CONTEXT('2D SPACE',''
  ) );
#292 = PCURVE('',#293,#298);
#293 = PLANE('',#294);
#294 = AXIS2_PLACEMENT_3D('',#295,#296,#297);
#295 = CARTESIAN_POINT('',(6.965601557787E-02,3.934513303847E-02,
    1.410724968946));
#296 = DIRECTION('',(0.870700194723,0.491814162981,1.110223024625E-16));
#297 = DIRECTION('',(-0.491814162981,0.870700194723,9.436895709314E-16)
  );
#298 = DEFINITIONAL_REPRESENTATION('',(#299),#303);
#299 = LINE('',#300,#301);
#300 = CARTESIAN_POINT('',(0.890413387141,1.5E-02));
#301 = VECTOR('',#302,1.);
#302 = DIRECTION('',(0.,1.));
#303 = ( GEOMETRIC_REPRESENTATION_CONTEXT(2) 
PARAMETRIC_REPRESENTATION_CONTEXT() REPRESENTATION_CONTEXT('2D SPACE',''
  ) );
#304 = ORIENTED_EDGE('',*,*,#305,.F.);
#305 = EDGE_CURVE('',#306,#278,#308,.T.);
#306 = VERTEX_POINT('',#307);
#307 = CARTESIAN_POINT('',(0.507573930282,-0.73593797653,1.500724968946)
  );
#308 = SURFACE_CURVE('',#309,(#314,#321),.PCURVE_S1.);
#309 = CIRCLE('',#310,0.894);
#310 = AXIS2_PLACEMENT_3D('',#311,#312,#313);
#311 = CARTESIAN_POINT('',(-1.7763568394E-15,0.,1.500724968946));
#312 = DIRECTION('',(4.15786326255E-16,-8.489718635473E-16,1.));
#313 = DIRECTION('',(0.491814162981,-0.870700194723,-9.436895709314E-16)
  );
#314 = PCURVE('',#107,#315);
#315 = DEFINITIONAL_REPRESENTATION('',(#316),#320);
#316 = LINE('',#317,#318);
#317 = CARTESIAN_POINT('',(0.,-7.5E-02));
#318 = VECTOR('',#319,1.);
#319 = DIRECTION('',(-1.,0.));
#320 = ( GEOMETRIC_REPRESENTATION_CONTEXT(2) 
PARAMETRIC_REPRESENTATION_CONTEXT() REPRESENTATION_CONTEXT('2D SPACE',''
  ) );
#321 = PCURVE('',#322,#327);
#322 = CONICAL_SURFACE('',#323,0.869,0.785398163397);
#323 = AXIS2_PLACEMENT_3D('',#324,#325,#326);
#324 = CARTESIAN_POINT('',(0.,0.,1.525724968946));
#325 = DIRECTION('',(-4.996003610813E-16,8.221595241569E-16,-1.));
#326 = DIRECTION('',(0.491814162981,-0.870700194723,-9.436895709314E-16)
  );
#327 = DEFINITIONAL_REPRESENTATION('',(#328),#332);
#328 = LINE('',#329,#330);
#329 = CARTESIAN_POINT('',(6.28318530718,2.5E-02));
#330 = VECTOR('',#331,1.);
#331 = DIRECTION('',(-1.,-1.656281636754E-17));
#332 = ( GEOMETRIC_REPRESENTATION_CONTEXT(2) 
PARAMETRIC_REPRESENTATION_CONTEXT() REPRESENTATION_CONTEXT('2D SPACE',''
  ) );
#333 = ORIENTED_EDGE('',*,*,#334,.T.);
#334 = EDGE_CURVE('',#306,#335,#337,.T.);
#335 = VERTEX_POINT('',#336);
#336 = CARTESIAN_POINT('',(0.507573930282,-0.73593797653,1.410724968946)
  );
#337 = SURFACE_CURVE('',#338,(#342,#349),.PCURVE_S1.);
#338 = LINE('',#339,#340);
#339 = CARTESIAN_POINT('',(0.507573930282,-0.73593797653,1.425724968946)
  );
#340 = VECTOR('',#341,1.);
#341 = DIRECTION('',(-4.996003610813E-16,8.221595241569E-16,-1.));
#342 = PCURVE('',#107,#343);
#343 = DEFINITIONAL_REPRESENTATION('',(#344),#348);
#344 = LINE('',#345,#346);
#345 = CARTESIAN_POINT('',(-8.960531902581E-02,0.));
#346 = VECTOR('',#347,1.);
#347 = DIRECTION('',(0.,1.));
#348 = ( GEOMETRIC_REPRESENTATION_CONTEXT(2) 
PARAMETRIC_REPRESENTATION_CONTEXT() REPRESENTATION_CONTEXT('2D SPACE',''
  ) );
#349 = PCURVE('',#293,#350);
#350 = DEFINITIONAL_REPRESENTATION('',(#351),#355);
#351 = LINE('',#352,#353);
#352 = CARTESIAN_POINT('',(-0.890413387141,1.5E-02));
#353 = VECTOR('',#354,1.);
#354 = DIRECTION('',(0.,-1.));
#355 = ( GEOMETRIC_REPRESENTATION_CONTEXT(2) 
PARAMETRIC_REPRESENTATION_CONTEXT() REPRESENTATION_CONTEXT('2D SPACE',''
  ) );
#356 = ORIENTED_EDGE('',*,*,#357,.T.);
#357 = EDGE_CURVE('',#335,#358,#360,.T.);
#358 = VERTEX_POINT('',#359);
#359 = CARTESIAN_POINT('',(0.368261899126,-0.814628242607,1.410724968946
    ));
#360 = SURFACE_CURVE('',#361,(#366,#373),.PCURVE_S1.);
#361 = CIRCLE('',#362,0.894);
#362 = AXIS2_PLACEMENT_3D('',#363,#364,#365);
#363 = CARTESIAN_POINT('',(0.,1.110223024625E-16,1.410724968946));
#364 = DIRECTION('',(-4.15786326255E-16,8.489718635473E-16,-1.));
#365 = DIRECTION('',(0.491814162981,-0.870700194723,-9.436895709314E-16)
  );
#366 = PCURVE('',#107,#367);
#367 = DEFINITIONAL_REPRESENTATION('',(#368),#372);
#368 = LINE('',#369,#370);
#369 = CARTESIAN_POINT('',(-6.28318530718,1.5E-02));
#370 = VECTOR('',#371,1.);
#371 = DIRECTION('',(1.,0.));
#372 = ( GEOMETRIC_REPRESENTATION_CONTEXT(2) 
PARAMETRIC_REPRESENTATION_CONTEXT() REPRESENTATION_CONTEXT('2D SPACE',''
  ) );
#373 = PCURVE('',#265,#374);
#374 = DEFINITIONAL_REPRESENTATION('',(#375),#379);
#375 = CIRCLE('',#376,0.894);
#376 = AXIS2_PLACEMENT_2D('',#377,#378);
#377 = CARTESIAN_POINT('',(8.E-02,3.955169525227E-16));
#378 = DIRECTION('',(0.,1.));
#379 = ( GEOMETRIC_REPRESENTATION_CONTEXT(2) 
PARAMETRIC_REPRESENTATION_CONTEXT() REPRESENTATION_CONTEXT('2D SPACE',''
  ) );
#380 = ORIENTED_EDGE('',*,*,#381,.T.);
#381 = EDGE_CURVE('',#358,#91,#382,.T.);
#382 = SURFACE_CURVE('',#383,(#387,#394),.PCURVE_S1.);
#383 = LINE('',#384,#385);
#384 = CARTESIAN_POINT('',(0.368261899126,-0.814628242607,1.425724968946
    ));
#385 = VECTOR('',#386,1.);
#386 = DIRECTION('',(4.996003610813E-16,-8.221595241569E-16,1.));
#387 = PCURVE('',#107,#388);
#388 = DEFINITIONAL_REPRESENTATION('',(#389),#393);
#389 = LINE('',#390,#391);
#390 = CARTESIAN_POINT('',(8.960531902581E-02,0.));
#391 = VECTOR('',#392,1.);
#392 = DIRECTION('',(0.,-1.));
#393 = ( GEOMETRIC_REPRESENTATION_CONTEXT(2) 
PARAMETRIC_REPRESENTATION_CONTEXT() REPRESENTATION_CONTEXT('2D SPACE',''
  ) );
#394 = PCURVE('',#158,#395);
#395 = DEFINITIONAL_REPRESENTATION('',(#396),#400);
#396 = LINE('',#397,#398);
#397 = CARTESIAN_POINT('',(0.890413387141,-0.285));
#398 = VECTOR('',#399,1.);
#399 = DIRECTION('',(0.,1.));
#400 = ( GEOMETRIC_REPRESENTATION_CONTEXT(2) 
PARAMETRIC_REPRESENTATION_CONTEXT() REPRESENTATION_CONTEXT('2D SPACE',''
  ) );
#401 = ORIENTED_EDGE('',*,*,#90,.F.);
#402 = ORIENTED_EDGE('',*,*,#403,.T.);
#403 = EDGE_CURVE('',#62,#404,#406,.T.);
#404 = VERTEX_POINT('',#405);
#405 = CARTESIAN_POINT('',(-0.507573930282,0.73593797653,1.410724968946)
  );
#406 = SURFACE_CURVE('',#407,(#411,#418),.PCURVE_S1.);
#407 = LINE('',#408,#409);
#408 = CARTESIAN_POINT('',(-0.507573930282,0.73593797653,1.425724968946)
  );
#409 = VECTOR('',#410,1.);
#410 = DIRECTION('',(-4.996003610813E-16,8.221595241569E-16,-1.));
#411 = PCURVE('',#107,#412);
#412 = DEFINITIONAL_REPRESENTATION('',(#413),#417);
#413 = LINE('',#414,#415);
#414 = CARTESIAN_POINT('',(3.051987334564,0.));
#415 = VECTOR('',#416,1.);
#416 = DIRECTION('',(0.,1.));
#417 = ( GEOMETRIC_REPRESENTATION_CONTEXT(2) 
PARAMETRIC_REPRESENTATION_CONTEXT() REPRESENTATION_CONTEXT('2D SPACE',''
  ) );
#418 = PCURVE('',#158,#419);
#419 = DEFINITIONAL_REPRESENTATION('',(#420),#424);
#420 = LINE('',#421,#422);
#421 = CARTESIAN_POINT('',(-0.890413387141,-0.285));
#422 = VECTOR('',#423,1.);
#423 = DIRECTION('',(0.,-1.));
#424 = ( GEOMETRIC_REPRESENTATION_CONTEXT(2) 
PARAMETRIC_REPRESENTATION_CONTEXT() REPRESENTATION_CONTEXT('2D SPACE',''
  ) );
#425 = ORIENTED_EDGE('',*,*,#426,.T.);
#426 = EDGE_CURVE('',#404,#226,#427,.T.);
#427 = SURFACE_CURVE('',#428,(#433,#440),.PCURVE_S1.);
#428 = CIRCLE('',#429,0.894);
#429 = AXIS2_PLACEMENT_3D('',#430,#431,#432);
#430 = CARTESIAN_POINT('',(0.,1.110223024625E-16,1.410724968946));
#431 = DIRECTION('',(-4.15786326255E-16,8.489718635473E-16,-1.));
#432 = DIRECTION('',(0.491814162981,-0.870700194723,-9.436895709314E-16)
  );
#433 = PCURVE('',#107,#434);
#434 = DEFINITIONAL_REPRESENTATION('',(#435),#439);
#435 = LINE('',#436,#437);
#436 = CARTESIAN_POINT('',(0.,1.5E-02));
#437 = VECTOR('',#438,1.);
#438 = DIRECTION('',(1.,0.));
#439 = ( GEOMETRIC_REPRESENTATION_CONTEXT(2) 
PARAMETRIC_REPRESENTATION_CONTEXT() REPRESENTATION_CONTEXT('2D SPACE',''
  ) );
#440 = PCURVE('',#265,#441);
#441 = DEFINITIONAL_REPRESENTATION('',(#442),#446);
#442 = CIRCLE('',#443,0.894);
#443 = AXIS2_PLACEMENT_2D('',#444,#445);
#444 = CARTESIAN_POINT('',(8.E-02,3.955169525227E-16));
#445 = DIRECTION('',(0.,1.));
#446 = ( GEOMETRIC_REPRESENTATION_CONTEXT(2) 
PARAMETRIC_REPRESENTATION_CONTEXT() REPRESENTATION_CONTEXT('2D SPACE',''
  ) );
#447 = ORIENTED_EDGE('',*,*,#225,.F.);
#448 = ADVANCED_FACE('',(#449),#45,.T.);
#449 = FACE_BOUND('',#450,.T.);
#450 = EDGE_LOOP('',(#451,#452));
#451 = ORIENTED_EDGE('',*,*,#21,.F.);
#452 = ORIENTED_EDGE('',*,*,#171,.F.);
#453 = ADVANCED_FACE('',(#454),#322,.T.);
#454 = FACE_BOUND('',#455,.T.);
#455 = EDGE_LOOP('',(#456,#491,#518,#519));
#456 = ORIENTED_EDGE('',*,*,#457,.T.);
#457 = EDGE_CURVE('',#458,#460,#462,.T.);
#458 = VERTEX_POINT('',#459);
#459 = CARTESIAN_POINT('',(-0.296946602772,0.790037160583,1.550724968946
    ));
#460 = VERTEX_POINT('',#461);
#461 = CARTESIAN_POINT('',(0.5233286534,-0.662165478208,1.550724968946)
  );
#462 = SURFACE_CURVE('',#463,(#468,#475),.PCURVE_S1.);
#463 = CIRCLE('',#464,0.844);
#464 = AXIS2_PLACEMENT_3D('',#465,#466,#467);
#465 = CARTESIAN_POINT('',(0.,0.,1.550724968946));
#466 = DIRECTION('',(-4.15786326255E-16,8.489718635473E-16,-1.));
#467 = DIRECTION('',(0.491814162981,-0.870700194723,-9.436895709314E-16)
  );
#468 = PCURVE('',#322,#469);
#469 = DEFINITIONAL_REPRESENTATION('',(#470),#474);
#470 = LINE('',#471,#472);
#471 = CARTESIAN_POINT('',(-4.440892098501E-16,-2.5E-02));
#472 = VECTOR('',#473,1.);
#473 = DIRECTION('',(1.,0.));
#474 = ( GEOMETRIC_REPRESENTATION_CONTEXT(2) 
PARAMETRIC_REPRESENTATION_CONTEXT() REPRESENTATION_CONTEXT('2D SPACE',''
  ) );
#475 = PCURVE('',#476,#481);
#476 = PLANE('',#477);
#477 = AXIS2_PLACEMENT_3D('',#478,#479,#480);
#478 = CARTESIAN_POINT('',(0.219840930852,-0.389202987041,1.550724968946
    ));
#479 = DIRECTION('',(4.996003610813E-16,-8.221595241569E-16,1.));
#480 = DIRECTION('',(-0.870700194723,-0.491814162981,-5.551115123126E-17
    ));
#481 = DEFINITIONAL_REPRESENTATION('',(#482),#490);
#482 = ( BOUNDED_CURVE() B_SPLINE_CURVE(2,(#483,#484,#485,#486,#487,#488
,#489),.UNSPECIFIED.,.T.,.F.) B_SPLINE_CURVE_WITH_KNOTS((1,2,2,2,2,1),(
    -2.094395102393,0.,2.094395102393,4.188790204786,6.28318530718,
8.377580409573),.UNSPECIFIED.) CURVE() GEOMETRIC_REPRESENTATION_ITEM() 
RATIONAL_B_SPLINE_CURVE((1.,0.5,1.,0.5,1.,0.5,1.)) REPRESENTATION_ITEM(
  '') );
#483 = CARTESIAN_POINT('',(-4.163336342344E-16,0.397));
#484 = CARTESIAN_POINT('',(1.461850881588,0.397));
#485 = CARTESIAN_POINT('',(0.730925440794,-0.869));
#486 = CARTESIAN_POINT('',(-2.096132545384E-16,-2.135));
#487 = CARTESIAN_POINT('',(-0.730925440794,-0.869));
#488 = CARTESIAN_POINT('',(-1.461850881588,0.397));
#489 = CARTESIAN_POINT('',(-4.163336342344E-16,0.397));
#490 = ( GEOMETRIC_REPRESENTATION_CONTEXT(2) 
PARAMETRIC_REPRESENTATION_CONTEXT() REPRESENTATION_CONTEXT('2D SPACE',''
  ) );
#491 = ORIENTED_EDGE('',*,*,#492,.T.);
#492 = EDGE_CURVE('',#460,#306,#493,.T.);
#493 = SURFACE_CURVE('',#494,(#499,#505),.PCURVE_S1.);
#494 = B_SPLINE_CURVE_WITH_KNOTS('',3,(#495,#496,#497,#498),
  .UNSPECIFIED.,.F.,.F.,(4,4),(-9.046786391654E-03,0.),
  .PIECEWISE_BEZIER_KNOTS.);
#495 = CARTESIAN_POINT('',(0.5233286534,-0.662165478208,1.550724968946)
  );
#496 = CARTESIAN_POINT('',(0.518457438675,-0.686971619086,1.534283589924
    ));
#497 = CARTESIAN_POINT('',(0.51318579612,-0.711578152941,1.517591727873)
  );
#498 = CARTESIAN_POINT('',(0.507573930282,-0.73593797653,1.500724968946)
  );
#499 = PCURVE('',#322,#500);
#500 = DEFINITIONAL_REPRESENTATION('',(#501),#504);
#501 = B_SPLINE_CURVE_WITH_KNOTS('',1,(#502,#503),.UNSPECIFIED.,.F.,.F.,
  (2,2),(-9.046786391654E-03,0.),.PIECEWISE_BEZIER_KNOTS.);
#502 = CARTESIAN_POINT('',(6.128541227622,-2.5E-02));
#503 = CARTESIAN_POINT('',(6.193579988154,2.5E-02));
#504 = ( GEOMETRIC_REPRESENTATION_CONTEXT(2) 
PARAMETRIC_REPRESENTATION_CONTEXT() REPRESENTATION_CONTEXT('2D SPACE',''
  ) );
#505 = PCURVE('',#506,#511);
#506 = PLANE('',#507);
#507 = AXIS2_PLACEMENT_3D('',#508,#509,#510);
#508 = CARTESIAN_POINT('',(0.201343985872,-0.142961006408,1.525724968946
    ));
#509 = DIRECTION('',(-0.615678012069,-0.347765129727,0.707106781187));
#510 = DIRECTION('',(0.491814162981,-0.870700194723,-9.436895709314E-16)
  );
#511 = DEFINITIONAL_REPRESENTATION('',(#512),#517);
#512 = B_SPLINE_CURVE_WITH_KNOTS('',3,(#513,#514,#515,#516),
  .UNSPECIFIED.,.F.,.F.,(4,4),(-9.046786391654E-03,0.),
  .PIECEWISE_BEZIER_KNOTS.);
#513 = CARTESIAN_POINT('',(0.610428054451,3.535533905933E-02));
#514 = CARTESIAN_POINT('',(0.629631033751,1.210371786233E-02));
#515 = CARTESIAN_POINT('',(0.648463279099,-1.150213983133E-02));
#516 = CARTESIAN_POINT('',(0.666913387141,-3.535533905933E-02));
#517 = ( GEOMETRIC_REPRESENTATION_CONTEXT(2) 
PARAMETRIC_REPRESENTATION_CONTEXT() REPRESENTATION_CONTEXT('2D SPACE',''
  ) );
#518 = ORIENTED_EDGE('',*,*,#305,.T.);
#519 = ORIENTED_EDGE('',*,*,#520,.T.);
#520 = EDGE_CURVE('',#278,#458,#521,.T.);
#521 = SURFACE_CURVE('',#522,(#527,#533),.PCURVE_S1.);
#522 = B_SPLINE_CURVE_WITH_KNOTS('',3,(#523,#524,#525,#526),
  .UNSPECIFIED.,.F.,.F.,(4,4),(-9.046839625306E-03,0.),
  .PIECEWISE_BEZIER_KNOTS.);
#523 = CARTESIAN_POINT('',(-0.368261899126,0.814628242607,1.500724968946
    ));
#524 = CARTESIAN_POINT('',(-0.3445019844,0.806859040865,1.517591727873)
  );
#525 = CARTESIAN_POINT('',(-0.320706411879,0.798671095337,1.534283589924
    ));
#526 = CARTESIAN_POINT('',(-0.296946602772,0.790037160583,1.550724968946
    ));
#527 = PCURVE('',#322,#528);
#528 = DEFINITIONAL_REPRESENTATION('',(#529),#532);
#529 = B_SPLINE_CURVE_WITH_KNOTS('',1,(#530,#531),.UNSPECIFIED.,.F.,.F.,
  (2,2),(-9.046839625306E-03,0.),.PIECEWISE_BEZIER_KNOTS.);
#530 = CARTESIAN_POINT('',(3.231197972616,2.5E-02));
#531 = CARTESIAN_POINT('',(3.296236733147,-2.5E-02));
#532 = ( GEOMETRIC_REPRESENTATION_CONTEXT(2) 
PARAMETRIC_REPRESENTATION_CONTEXT() REPRESENTATION_CONTEXT('2D SPACE',''
  ) );
#533 = PCURVE('',#506,#534);
#534 = DEFINITIONAL_REPRESENTATION('',(#535),#540);
#535 = B_SPLINE_CURVE_WITH_KNOTS('',3,(#536,#537,#538,#539),
  .UNSPECIFIED.,.F.,.F.,(4,4),(-9.046839625306E-03,0.),
  .PIECEWISE_BEZIER_KNOTS.);
#536 = CARTESIAN_POINT('',(-1.113913387141,-3.535533905933E-02));
#537 = CARTESIAN_POINT('',(-1.095463279099,-1.150213983133E-02));
#538 = CARTESIAN_POINT('',(-1.076631033751,1.210371786234E-02));
#539 = CARTESIAN_POINT('',(-1.057428054451,3.535533905933E-02));
#540 = ( GEOMETRIC_REPRESENTATION_CONTEXT(2) 
PARAMETRIC_REPRESENTATION_CONTEXT() REPRESENTATION_CONTEXT('2D SPACE',''
  ) );
#541 = ADVANCED_FACE('',(#542),#506,.T.);
#542 = FACE_BOUND('',#543,.T.);
#543 = EDGE_LOOP('',(#544,#565,#566,#587));
#544 = ORIENTED_EDGE('',*,*,#545,.T.);
#545 = EDGE_CURVE('',#278,#306,#546,.T.);
#546 = SURFACE_CURVE('',#547,(#551,#558),.PCURVE_S1.);
#547 = LINE('',#548,#549);
#548 = CARTESIAN_POINT('',(0.179576481004,-0.155256360482,1.500724968946
    ));
#549 = VECTOR('',#550,1.);
#550 = DIRECTION('',(0.491814162981,-0.870700194723,-9.436895709314E-16)
  );
#551 = PCURVE('',#506,#552);
#552 = DEFINITIONAL_REPRESENTATION('',(#553),#557);
#553 = LINE('',#554,#555);
#554 = CARTESIAN_POINT('',(-2.827599265842E-16,-3.535533905933E-02));
#555 = VECTOR('',#556,1.);
#556 = DIRECTION('',(1.,5.551115123126E-17));
#557 = ( GEOMETRIC_REPRESENTATION_CONTEXT(2) 
PARAMETRIC_REPRESENTATION_CONTEXT() REPRESENTATION_CONTEXT('2D SPACE',''
  ) );
#558 = PCURVE('',#293,#559);
#559 = DEFINITIONAL_REPRESENTATION('',(#560),#564);
#560 = LINE('',#561,#562);
#561 = CARTESIAN_POINT('',(-0.2235,9.E-02));
#562 = VECTOR('',#563,1.);
#563 = DIRECTION('',(-1.,0.));
#564 = ( GEOMETRIC_REPRESENTATION_CONTEXT(2) 
PARAMETRIC_REPRESENTATION_CONTEXT() REPRESENTATION_CONTEXT('2D SPACE',''
  ) );
#565 = ORIENTED_EDGE('',*,*,#492,.F.);
#566 = ORIENTED_EDGE('',*,*,#567,.T.);
#567 = EDGE_CURVE('',#460,#458,#568,.T.);
#568 = SURFACE_CURVE('',#569,(#573,#580),.PCURVE_S1.);
#569 = LINE('',#570,#571);
#570 = CARTESIAN_POINT('',(0.22311149074,-0.130665652333,1.550724968946)
  );
#571 = VECTOR('',#572,1.);
#572 = DIRECTION('',(-0.491814162981,0.870700194723,9.436895709314E-16)
  );
#573 = PCURVE('',#506,#574);
#574 = DEFINITIONAL_REPRESENTATION('',(#575),#579);
#575 = LINE('',#576,#577);
#576 = CARTESIAN_POINT('',(-4.770489558936E-16,3.535533905933E-02));
#577 = VECTOR('',#578,1.);
#578 = DIRECTION('',(-1.,-5.551115123126E-17));
#579 = ( GEOMETRIC_REPRESENTATION_CONTEXT(2) 
PARAMETRIC_REPRESENTATION_CONTEXT() REPRESENTATION_CONTEXT('2D SPACE',''
  ) );
#580 = PCURVE('',#476,#581);
#581 = DEFINITIONAL_REPRESENTATION('',(#582),#586);
#582 = LINE('',#583,#584);
#583 = CARTESIAN_POINT('',(-0.13,-0.2235));
#584 = VECTOR('',#585,1.);
#585 = DIRECTION('',(5.551115123126E-17,-1.));
#586 = ( GEOMETRIC_REPRESENTATION_CONTEXT(2) 
PARAMETRIC_REPRESENTATION_CONTEXT() REPRESENTATION_CONTEXT('2D SPACE',''
  ) );
#587 = ORIENTED_EDGE('',*,*,#520,.F.);
#588 = ADVANCED_FACE('',(#589),#476,.T.);
#589 = FACE_BOUND('',#590,.T.);
#590 = EDGE_LOOP('',(#591,#592));
#591 = ORIENTED_EDGE('',*,*,#457,.F.);
#592 = ORIENTED_EDGE('',*,*,#567,.F.);
#593 = ADVANCED_FACE('',(#594),#293,.F.);
#594 = FACE_BOUND('',#595,.T.);
#595 = EDGE_LOOP('',(#596,#597,#598,#619));
#596 = ORIENTED_EDGE('',*,*,#545,.F.);
#597 = ORIENTED_EDGE('',*,*,#277,.F.);
#598 = ORIENTED_EDGE('',*,*,#599,.F.);
#599 = EDGE_CURVE('',#335,#249,#600,.T.);
#600 = SURFACE_CURVE('',#601,(#605,#612),.PCURVE_S1.);
#601 = LINE('',#602,#603);
#602 = CARTESIAN_POINT('',(6.965601557787E-02,3.934513303847E-02,
    1.410724968946));
#603 = VECTOR('',#604,1.);
#604 = DIRECTION('',(-0.491814162981,0.870700194723,9.436895709314E-16)
  );
#605 = PCURVE('',#293,#606);
#606 = DEFINITIONAL_REPRESENTATION('',(#607),#611);
#607 = LINE('',#608,#609);
#608 = CARTESIAN_POINT('',(0.,0.));
#609 = VECTOR('',#610,1.);
#610 = DIRECTION('',(1.,0.));
#611 = ( GEOMETRIC_REPRESENTATION_CONTEXT(2) 
PARAMETRIC_REPRESENTATION_CONTEXT() REPRESENTATION_CONTEXT('2D SPACE',''
  ) );
#612 = PCURVE('',#265,#613);
#613 = DEFINITIONAL_REPRESENTATION('',(#614),#618);
#614 = LINE('',#615,#616);
#615 = CARTESIAN_POINT('',(0.16,5.759281940243E-16));
#616 = VECTOR('',#617,1.);
#617 = DIRECTION('',(-5.551115123126E-17,-1.));
#618 = ( GEOMETRIC_REPRESENTATION_CONTEXT(2) 
PARAMETRIC_REPRESENTATION_CONTEXT() REPRESENTATION_CONTEXT('2D SPACE',''
  ) );
#619 = ORIENTED_EDGE('',*,*,#334,.F.);
#620 = ADVANCED_FACE('',(#621),#265,.F.);
#621 = FACE_BOUND('',#622,.T.);
#622 = EDGE_LOOP('',(#623,#624,#645,#646,#647));
#623 = ORIENTED_EDGE('',*,*,#426,.F.);
#624 = ORIENTED_EDGE('',*,*,#625,.T.);
#625 = EDGE_CURVE('',#404,#358,#626,.T.);
#626 = SURFACE_CURVE('',#627,(#631,#638),.PCURVE_S1.);
#627 = LINE('',#628,#629);
#628 = CARTESIAN_POINT('',(-6.965601557787E-02,-3.934513303847E-02,
    1.410724968946));
#629 = VECTOR('',#630,1.);
#630 = DIRECTION('',(0.491814162981,-0.870700194723,-9.436895709314E-16)
  );
#631 = PCURVE('',#265,#632);
#632 = DEFINITIONAL_REPRESENTATION('',(#633),#637);
#633 = LINE('',#634,#635);
#634 = CARTESIAN_POINT('',(0.,0.));
#635 = VECTOR('',#636,1.);
#636 = DIRECTION('',(5.551115123126E-17,1.));
#637 = ( GEOMETRIC_REPRESENTATION_CONTEXT(2) 
PARAMETRIC_REPRESENTATION_CONTEXT() REPRESENTATION_CONTEXT('2D SPACE',''
  ) );
#638 = PCURVE('',#158,#639);
#639 = DEFINITIONAL_REPRESENTATION('',(#640),#644);
#640 = LINE('',#641,#642);
#641 = CARTESIAN_POINT('',(-9.159339953158E-16,-0.3));
#642 = VECTOR('',#643,1.);
#643 = DIRECTION('',(1.,0.));
#644 = ( GEOMETRIC_REPRESENTATION_CONTEXT(2) 
PARAMETRIC_REPRESENTATION_CONTEXT() REPRESENTATION_CONTEXT('2D SPACE',''
  ) );
#645 = ORIENTED_EDGE('',*,*,#357,.F.);
#646 = ORIENTED_EDGE('',*,*,#599,.T.);
#647 = ORIENTED_EDGE('',*,*,#248,.F.);
#648 = ADVANCED_FACE('',(#649),#158,.F.);
#649 = FACE_BOUND('',#650,.T.);
#650 = EDGE_LOOP('',(#651,#652,#653,#654));
#651 = ORIENTED_EDGE('',*,*,#144,.F.);
#652 = ORIENTED_EDGE('',*,*,#381,.F.);
#653 = ORIENTED_EDGE('',*,*,#625,.F.);
#654 = ORIENTED_EDGE('',*,*,#403,.F.);
#655 = ADVANCED_FACE('',(#656,#659),#213,.T.);
#656 = FACE_BOUND('',#657,.T.);
#657 = EDGE_LOOP('',(#658));
#658 = ORIENTED_EDGE('',*,*,#196,.T.);
#659 = FACE_BOUND('',#660,.T.);
#660 = EDGE_LOOP('',(#661));
#661 = ORIENTED_EDGE('',*,*,#662,.F.);
#662 = EDGE_CURVE('',#663,#663,#665,.T.);
#663 = VERTEX_POINT('',#664);
#664 = CARTESIAN_POINT('',(-0.294296665817,-0.166233187088,
    1.300724968946));
#665 = SURFACE_CURVE('',#666,(#671,#678),.PCURVE_S1.);
#666 = CIRCLE('',#667,0.338);
#667 = AXIS2_PLACEMENT_3D('',#668,#669,#670);
#668 = CARTESIAN_POINT('',(0.,2.22044604925E-16,1.300724968946));
#669 = DIRECTION('',(-4.15786326255E-16,8.489718635473E-16,-1.));
#670 = DIRECTION('',(0.491814162981,-0.870700194723,-9.436895709314E-16)
  );
#671 = PCURVE('',#213,#672);
#672 = DEFINITIONAL_REPRESENTATION('',(#673),#677);
#673 = CIRCLE('',#674,0.338);
#674 = AXIS2_PLACEMENT_2D('',#675,#676);
#675 = CARTESIAN_POINT('',(7.216449660064E-16,-0.616));
#676 = DIRECTION('',(0.,1.));
#677 = ( GEOMETRIC_REPRESENTATION_CONTEXT(2) 
PARAMETRIC_REPRESENTATION_CONTEXT() REPRESENTATION_CONTEXT('2D SPACE',''
  ) );
#678 = PCURVE('',#679,#684);
#679 = TOROIDAL_SURFACE('',#680,0.338,5.E-02);
#680 = AXIS2_PLACEMENT_3D('',#681,#682,#683);
#681 = CARTESIAN_POINT('',(0.,2.22044604925E-16,1.250724968946));
#682 = DIRECTION('',(-4.996003610813E-16,8.221595241569E-16,-1.));
#683 = DIRECTION('',(0.870700194723,0.491814162981,5.551115123126E-17));
#684 = DEFINITIONAL_REPRESENTATION('',(#685),#689);
#685 = LINE('',#686,#687);
#686 = CARTESIAN_POINT('',(1.570796326795,4.712388980385));
#687 = VECTOR('',#688,1.);
#688 = DIRECTION('',(1.,0.));
#689 = ( GEOMETRIC_REPRESENTATION_CONTEXT(2) 
PARAMETRIC_REPRESENTATION_CONTEXT() REPRESENTATION_CONTEXT('2D SPACE',''
  ) );
#690 = ADVANCED_FACE('',(#691),#679,.F.);
#691 = FACE_BOUND('',#692,.F.);
#692 = EDGE_LOOP('',(#693,#717,#746,#768,#769));
#693 = ORIENTED_EDGE('',*,*,#694,.T.);
#694 = EDGE_CURVE('',#663,#695,#697,.T.);
#695 = VERTEX_POINT('',#696);
#696 = CARTESIAN_POINT('',(-0.25076165608,-0.141642478938,1.250724968946
    ));
#697 = SEAM_CURVE('',#698,(#703,#710),.PCURVE_S1.);
#698 = CIRCLE('',#699,5.E-02);
#699 = AXIS2_PLACEMENT_3D('',#700,#701,#702);
#700 = CARTESIAN_POINT('',(-0.294296665817,-0.166233187088,
    1.250724968946));
#701 = DIRECTION('',(-0.491814162981,0.870700194723,9.615649911873E-16)
  );
#702 = DIRECTION('',(-0.870700194723,-0.491814162981,0.));
#703 = PCURVE('',#679,#704);
#704 = DEFINITIONAL_REPRESENTATION('',(#705),#709);
#705 = LINE('',#706,#707);
#706 = CARTESIAN_POINT('',(3.14159265359,6.28318530718));
#707 = VECTOR('',#708,1.);
#708 = DIRECTION('',(0.,-1.));
#709 = ( GEOMETRIC_REPRESENTATION_CONTEXT(2) 
PARAMETRIC_REPRESENTATION_CONTEXT() REPRESENTATION_CONTEXT('2D SPACE',''
  ) );
#710 = PCURVE('',#679,#711);
#711 = DEFINITIONAL_REPRESENTATION('',(#712),#716);
#712 = LINE('',#713,#714);
#713 = CARTESIAN_POINT('',(9.424777960769,6.28318530718));
#714 = VECTOR('',#715,1.);
#715 = DIRECTION('',(0.,-1.));
#716 = ( GEOMETRIC_REPRESENTATION_CONTEXT(2) 
PARAMETRIC_REPRESENTATION_CONTEXT() REPRESENTATION_CONTEXT('2D SPACE',''
  ) );
#717 = ORIENTED_EDGE('',*,*,#718,.T.);
#718 = EDGE_CURVE('',#695,#719,#721,.T.);
#719 = VERTEX_POINT('',#720);
#720 = CARTESIAN_POINT('',(-0.141642478938,0.25076165608,1.250724968946)
  );
#721 = SURFACE_CURVE('',#722,(#727,#734),.PCURVE_S1.);
#722 = CIRCLE('',#723,0.288);
#723 = AXIS2_PLACEMENT_3D('',#724,#725,#726);
#724 = CARTESIAN_POINT('',(0.,2.22044604925E-16,1.250724968946));
#725 = DIRECTION('',(-4.15786326255E-16,8.489718635473E-16,-1.));
#726 = DIRECTION('',(0.491814162981,-0.870700194723,-9.436895709314E-16)
  );
#727 = PCURVE('',#679,#728);
#728 = DEFINITIONAL_REPRESENTATION('',(#729),#733);
#729 = LINE('',#730,#731);
#730 = CARTESIAN_POINT('',(1.570796326795,3.14159265359));
#731 = VECTOR('',#732,1.);
#732 = DIRECTION('',(1.,8.481479150569E-16));
#733 = ( GEOMETRIC_REPRESENTATION_CONTEXT(2) 
PARAMETRIC_REPRESENTATION_CONTEXT() REPRESENTATION_CONTEXT('2D SPACE',''
  ) );
#734 = PCURVE('',#735,#740);
#735 = CYLINDRICAL_SURFACE('',#736,0.288);
#736 = AXIS2_PLACEMENT_3D('',#737,#738,#739);
#737 = CARTESIAN_POINT('',(1.7763568394E-15,2.22044604925E-16,
    1.208056584021));
#738 = DIRECTION('',(-4.996003610813E-16,8.221595241569E-16,-1.));
#739 = DIRECTION('',(0.491814162981,-0.870700194723,-9.436895709314E-16)
  );
#740 = DEFINITIONAL_REPRESENTATION('',(#741),#745);
#741 = LINE('',#742,#743);
#742 = CARTESIAN_POINT('',(0.,-4.266838492538E-02));
#743 = VECTOR('',#744,1.);
#744 = DIRECTION('',(1.,0.));
#745 = ( GEOMETRIC_REPRESENTATION_CONTEXT(2) 
PARAMETRIC_REPRESENTATION_CONTEXT() REPRESENTATION_CONTEXT('2D SPACE',''
  ) );
#746 = ORIENTED_EDGE('',*,*,#747,.T.);
#747 = EDGE_CURVE('',#719,#695,#748,.T.);
#748 = SURFACE_CURVE('',#749,(#754,#761),.PCURVE_S1.);
#749 = CIRCLE('',#750,0.288);
#750 = AXIS2_PLACEMENT_3D('',#751,#752,#753);
#751 = CARTESIAN_POINT('',(0.,2.22044604925E-16,1.250724968946));
#752 = DIRECTION('',(-4.15786326255E-16,8.489718635473E-16,-1.));
#753 = DIRECTION('',(0.491814162981,-0.870700194723,-9.436895709314E-16)
  );
#754 = PCURVE('',#679,#755);
#755 = DEFINITIONAL_REPRESENTATION('',(#756),#760);
#756 = LINE('',#757,#758);
#757 = CARTESIAN_POINT('',(1.570796326795,3.14159265359));
#758 = VECTOR('',#759,1.);
#759 = DIRECTION('',(1.,-9.423865722855E-17));
#760 = ( GEOMETRIC_REPRESENTATION_CONTEXT(2) 
PARAMETRIC_REPRESENTATION_CONTEXT() REPRESENTATION_CONTEXT('2D SPACE',''
  ) );
#761 = PCURVE('',#735,#762);
#762 = DEFINITIONAL_REPRESENTATION('',(#763),#767);
#763 = LINE('',#764,#765);
#764 = CARTESIAN_POINT('',(-6.28318530718,-4.266838492538E-02));
#765 = VECTOR('',#766,1.);
#766 = DIRECTION('',(1.,0.));
#767 = ( GEOMETRIC_REPRESENTATION_CONTEXT(2) 
PARAMETRIC_REPRESENTATION_CONTEXT() REPRESENTATION_CONTEXT('2D SPACE',''
  ) );
#768 = ORIENTED_EDGE('',*,*,#694,.F.);
#769 = ORIENTED_EDGE('',*,*,#662,.F.);
#770 = ADVANCED_FACE('',(#771),#735,.T.);
#771 = FACE_BOUND('',#772,.T.);
#772 = EDGE_LOOP('',(#773,#802,#823,#824,#825));
#773 = ORIENTED_EDGE('',*,*,#774,.F.);
#774 = EDGE_CURVE('',#775,#775,#777,.T.);
#775 = VERTEX_POINT('',#776);
#776 = CARTESIAN_POINT('',(-0.141642478938,0.25076165608,1.165388199095)
  );
#777 = SURFACE_CURVE('',#778,(#783,#790),.PCURVE_S1.);
#778 = CIRCLE('',#779,0.288);
#779 = AXIS2_PLACEMENT_3D('',#780,#781,#782);
#780 = CARTESIAN_POINT('',(0.,3.330669073875E-16,1.165388199095));
#781 = DIRECTION('',(-4.15786326255E-16,8.489718635473E-16,-1.));
#782 = DIRECTION('',(0.491814162981,-0.870700194723,-9.436895709314E-16)
  );
#783 = PCURVE('',#735,#784);
#784 = DEFINITIONAL_REPRESENTATION('',(#785),#789);
#785 = LINE('',#786,#787);
#786 = CARTESIAN_POINT('',(-6.28318530718,4.266838492538E-02));
#787 = VECTOR('',#788,1.);
#788 = DIRECTION('',(1.,0.));
#789 = ( GEOMETRIC_REPRESENTATION_CONTEXT(2) 
PARAMETRIC_REPRESENTATION_CONTEXT() REPRESENTATION_CONTEXT('2D SPACE',''
  ) );
#790 = PCURVE('',#791,#796);
#791 = CONICAL_SURFACE('',#792,0.344,1.047197551197);
#792 = AXIS2_PLACEMENT_3D('',#793,#794,#795);
#793 = CARTESIAN_POINT('',(0.,3.330669073875E-16,1.133056584021));
#794 = DIRECTION('',(-4.996003610813E-16,8.221595241569E-16,-1.));
#795 = DIRECTION('',(0.491814162981,-0.870700194723,-9.436895709314E-16)
  );
#796 = DEFINITIONAL_REPRESENTATION('',(#797),#801);
#797 = LINE('',#798,#799);
#798 = CARTESIAN_POINT('',(-6.28318530718,-3.233161507462E-02));
#799 = VECTOR('',#800,1.);
#800 = DIRECTION('',(1.,0.));
#801 = ( GEOMETRIC_REPRESENTATION_CONTEXT(2) 
PARAMETRIC_REPRESENTATION_CONTEXT() REPRESENTATION_CONTEXT('2D SPACE',''
  ) );
#802 = ORIENTED_EDGE('',*,*,#803,.T.);
#803 = EDGE_CURVE('',#775,#719,#804,.T.);
#804 = SEAM_CURVE('',#805,(#809,#816),.PCURVE_S1.);
#805 = LINE('',#806,#807);
#806 = CARTESIAN_POINT('',(-0.141642478938,0.25076165608,1.208056584021)
  );
#807 = VECTOR('',#808,1.);
#808 = DIRECTION('',(4.996003610813E-16,-8.221595241569E-16,1.));
#809 = PCURVE('',#735,#810);
#810 = DEFINITIONAL_REPRESENTATION('',(#811),#815);
#811 = LINE('',#812,#813);
#812 = CARTESIAN_POINT('',(-3.14159265359,0.));
#813 = VECTOR('',#814,1.);
#814 = DIRECTION('',(0.,-1.));
#815 = ( GEOMETRIC_REPRESENTATION_CONTEXT(2) 
PARAMETRIC_REPRESENTATION_CONTEXT() REPRESENTATION_CONTEXT('2D SPACE',''
  ) );
#816 = PCURVE('',#735,#817);
#817 = DEFINITIONAL_REPRESENTATION('',(#818),#822);
#818 = LINE('',#819,#820);
#819 = CARTESIAN_POINT('',(3.14159265359,0.));
#820 = VECTOR('',#821,1.);
#821 = DIRECTION('',(0.,-1.));
#822 = ( GEOMETRIC_REPRESENTATION_CONTEXT(2) 
PARAMETRIC_REPRESENTATION_CONTEXT() REPRESENTATION_CONTEXT('2D SPACE',''
  ) );
#823 = ORIENTED_EDGE('',*,*,#747,.T.);
#824 = ORIENTED_EDGE('',*,*,#718,.T.);
#825 = ORIENTED_EDGE('',*,*,#803,.F.);
#826 = ADVANCED_FACE('',(#827),#791,.T.);
#827 = FACE_BOUND('',#828,.T.);
#828 = EDGE_LOOP('',(#829,#858,#879,#880));
#829 = ORIENTED_EDGE('',*,*,#830,.F.);
#830 = EDGE_CURVE('',#831,#831,#833,.T.);
#831 = VERTEX_POINT('',#832);
#832 = CARTESIAN_POINT('',(-0.196725665192,0.348280077889,1.100724968946
    ));
#833 = SURFACE_CURVE('',#834,(#839,#846),.PCURVE_S1.);
#834 = CIRCLE('',#835,0.4);
#835 = AXIS2_PLACEMENT_3D('',#836,#837,#838);
#836 = CARTESIAN_POINT('',(0.,3.330669073875E-16,1.100724968946));
#837 = DIRECTION('',(-4.15786326255E-16,8.489718635473E-16,-1.));
#838 = DIRECTION('',(0.491814162981,-0.870700194723,-9.436895709314E-16)
  );
#839 = PCURVE('',#791,#840);
#840 = DEFINITIONAL_REPRESENTATION('',(#841),#845);
#841 = LINE('',#842,#843);
#842 = CARTESIAN_POINT('',(-6.28318530718,3.233161507462E-02));
#843 = VECTOR('',#844,1.);
#844 = DIRECTION('',(1.,0.));
#845 = ( GEOMETRIC_REPRESENTATION_CONTEXT(2) 
PARAMETRIC_REPRESENTATION_CONTEXT() REPRESENTATION_CONTEXT('2D SPACE',''
  ) );
#846 = PCURVE('',#847,#852);
#847 = CYLINDRICAL_SURFACE('',#848,0.4);
#848 = AXIS2_PLACEMENT_3D('',#849,#850,#851);
#849 = CARTESIAN_POINT('',(0.,6.661338147751E-16,0.683056584021));
#850 = DIRECTION('',(-4.996003610813E-16,8.221595241569E-16,-1.));
#851 = DIRECTION('',(0.491814162981,-0.870700194723,-9.436895709314E-16)
  );
#852 = DEFINITIONAL_REPRESENTATION('',(#853),#857);
#853 = LINE('',#854,#855);
#854 = CARTESIAN_POINT('',(-6.28318530718,-0.417668384925));
#855 = VECTOR('',#856,1.);
#856 = DIRECTION('',(1.,0.));
#857 = ( GEOMETRIC_REPRESENTATION_CONTEXT(2) 
PARAMETRIC_REPRESENTATION_CONTEXT() REPRESENTATION_CONTEXT('2D SPACE',''
  ) );
#858 = ORIENTED_EDGE('',*,*,#859,.T.);
#859 = EDGE_CURVE('',#831,#775,#860,.T.);
#860 = SEAM_CURVE('',#861,(#865,#872),.PCURVE_S1.);
#861 = LINE('',#862,#863);
#862 = CARTESIAN_POINT('',(-0.169184072065,0.299520866985,1.133056584021
    ));
#863 = VECTOR('',#864,1.);
#864 = DIRECTION('',(0.425923559082,-0.754048487711,0.5));
#865 = PCURVE('',#791,#866);
#866 = DEFINITIONAL_REPRESENTATION('',(#867),#871);
#867 = LINE('',#868,#869);
#868 = CARTESIAN_POINT('',(-3.14159265359,6.938893903907E-18));
#869 = VECTOR('',#870,1.);
#870 = DIRECTION('',(0.,-1.));
#871 = ( GEOMETRIC_REPRESENTATION_CONTEXT(2) 
PARAMETRIC_REPRESENTATION_CONTEXT() REPRESENTATION_CONTEXT('2D SPACE',''
  ) );
#872 = PCURVE('',#791,#873);
#873 = DEFINITIONAL_REPRESENTATION('',(#874),#878);
#874 = LINE('',#875,#876);
#875 = CARTESIAN_POINT('',(3.14159265359,6.938893903907E-18));
#876 = VECTOR('',#877,1.);
#877 = DIRECTION('',(0.,-1.));
#878 = ( GEOMETRIC_REPRESENTATION_CONTEXT(2) 
PARAMETRIC_REPRESENTATION_CONTEXT() REPRESENTATION_CONTEXT('2D SPACE',''
  ) );
#879 = ORIENTED_EDGE('',*,*,#774,.T.);
#880 = ORIENTED_EDGE('',*,*,#859,.F.);
#881 = ADVANCED_FACE('',(#882),#847,.T.);
#882 = FACE_BOUND('',#883,.T.);
#883 = EDGE_LOOP('',(#884,#913,#934,#935));
#884 = ORIENTED_EDGE('',*,*,#885,.F.);
#885 = EDGE_CURVE('',#886,#886,#888,.T.);
#886 = VERTEX_POINT('',#887);
#887 = CARTESIAN_POINT('',(-0.196725665192,0.348280077889,0.265388199095
    ));
#888 = SURFACE_CURVE('',#889,(#894,#901),.PCURVE_S1.);
#889 = CIRCLE('',#890,0.4);
#890 = AXIS2_PLACEMENT_3D('',#891,#892,#893);
#891 = CARTESIAN_POINT('',(-1.7763568394E-15,9.992007221626E-16,
    0.265388199095));
#892 = DIRECTION('',(-4.15786326255E-16,8.489718635473E-16,-1.));
#893 = DIRECTION('',(0.491814162981,-0.870700194723,-9.436895709314E-16)
  );
#894 = PCURVE('',#847,#895);
#895 = DEFINITIONAL_REPRESENTATION('',(#896),#900);
#896 = LINE('',#897,#898);
#897 = CARTESIAN_POINT('',(-6.28318530718,0.417668384925));
#898 = VECTOR('',#899,1.);
#899 = DIRECTION('',(1.,0.));
#900 = ( GEOMETRIC_REPRESENTATION_CONTEXT(2) 
PARAMETRIC_REPRESENTATION_CONTEXT() REPRESENTATION_CONTEXT('2D SPACE',''
  ) );
#901 = PCURVE('',#902,#907);
#902 = CONICAL_SURFACE('',#903,0.344,1.047197551197);
#903 = AXIS2_PLACEMENT_3D('',#904,#905,#906);
#904 = CARTESIAN_POINT('',(0.,1.110223024625E-15,0.233056584021));
#905 = DIRECTION('',(4.996003610813E-16,-8.221595241569E-16,1.));
#906 = DIRECTION('',(0.491814162981,-0.870700194723,-9.436895709314E-16)
  );
#907 = DEFINITIONAL_REPRESENTATION('',(#908),#912);
#908 = LINE('',#909,#910);
#909 = CARTESIAN_POINT('',(12.566370614359,3.233161507462E-02));
#910 = VECTOR('',#911,1.);
#911 = DIRECTION('',(-1.,0.));
#912 = ( GEOMETRIC_REPRESENTATION_CONTEXT(2) 
PARAMETRIC_REPRESENTATION_CONTEXT() REPRESENTATION_CONTEXT('2D SPACE',''
  ) );
#913 = ORIENTED_EDGE('',*,*,#914,.T.);
#914 = EDGE_CURVE('',#886,#831,#915,.T.);
#915 = SEAM_CURVE('',#916,(#920,#927),.PCURVE_S1.);
#916 = LINE('',#917,#918);
#917 = CARTESIAN_POINT('',(-0.196725665192,0.348280077889,0.683056584021
    ));
#918 = VECTOR('',#919,1.);
#919 = DIRECTION('',(4.996003610813E-16,-8.221595241569E-16,1.));
#920 = PCURVE('',#847,#921);
#921 = DEFINITIONAL_REPRESENTATION('',(#922),#926);
#922 = LINE('',#923,#924);
#923 = CARTESIAN_POINT('',(-3.14159265359,0.));
#924 = VECTOR('',#925,1.);
#925 = DIRECTION('',(0.,-1.));
#926 = ( GEOMETRIC_REPRESENTATION_CONTEXT(2) 
PARAMETRIC_REPRESENTATION_CONTEXT() REPRESENTATION_CONTEXT('2D SPACE',''
  ) );
#927 = PCURVE('',#847,#928);
#928 = DEFINITIONAL_REPRESENTATION('',(#929),#933);
#929 = LINE('',#930,#931);
#930 = CARTESIAN_POINT('',(3.14159265359,0.));
#931 = VECTOR('',#932,1.);
#932 = DIRECTION('',(0.,-1.));
#933 = ( GEOMETRIC_REPRESENTATION_CONTEXT(2) 
PARAMETRIC_REPRESENTATION_CONTEXT() REPRESENTATION_CONTEXT('2D SPACE',''
  ) );
#934 = ORIENTED_EDGE('',*,*,#830,.T.);
#935 = ORIENTED_EDGE('',*,*,#914,.F.);
#936 = ADVANCED_FACE('',(#937),#902,.T.);
#937 = FACE_BOUND('',#938,.T.);
#938 = EDGE_LOOP('',(#939,#968,#989,#990));
#939 = ORIENTED_EDGE('',*,*,#940,.F.);
#940 = EDGE_CURVE('',#941,#941,#943,.T.);
#941 = VERTEX_POINT('',#942);
#942 = CARTESIAN_POINT('',(-0.141642478938,0.25076165608,0.200724968946)
  );
#943 = SURFACE_CURVE('',#944,(#949,#956),.PCURVE_S1.);
#944 = CIRCLE('',#945,0.288);
#945 = AXIS2_PLACEMENT_3D('',#946,#947,#948);
#946 = CARTESIAN_POINT('',(0.,1.110223024625E-15,0.200724968946));
#947 = DIRECTION('',(-4.15786326255E-16,8.489718635473E-16,-1.));
#948 = DIRECTION('',(0.491814162981,-0.870700194723,-9.436895709314E-16)
  );
#949 = PCURVE('',#902,#950);
#950 = DEFINITIONAL_REPRESENTATION('',(#951),#955);
#951 = LINE('',#952,#953);
#952 = CARTESIAN_POINT('',(12.566370614359,-3.233161507462E-02));
#953 = VECTOR('',#954,1.);
#954 = DIRECTION('',(-1.,0.));
#955 = ( GEOMETRIC_REPRESENTATION_CONTEXT(2) 
PARAMETRIC_REPRESENTATION_CONTEXT() REPRESENTATION_CONTEXT('2D SPACE',''
  ) );
#956 = PCURVE('',#957,#962);
#957 = PLANE('',#958);
#958 = AXIS2_PLACEMENT_3D('',#959,#960,#961);
#959 = CARTESIAN_POINT('',(0.134757080657,-0.238571853354,0.200724968946
    ));
#960 = DIRECTION('',(-4.996003610813E-16,8.221595241569E-16,-1.));
#961 = DIRECTION('',(0.870700194723,0.491814162981,5.551115123126E-17));
#962 = DEFINITIONAL_REPRESENTATION('',(#963),#967);
#963 = CIRCLE('',#964,0.288);
#964 = AXIS2_PLACEMENT_2D('',#965,#966);
#965 = CARTESIAN_POINT('',(9.853229343548E-16,-0.274));
#966 = DIRECTION('',(0.,1.));
#967 = ( GEOMETRIC_REPRESENTATION_CONTEXT(2) 
PARAMETRIC_REPRESENTATION_CONTEXT() REPRESENTATION_CONTEXT('2D SPACE',''
  ) );
#968 = ORIENTED_EDGE('',*,*,#969,.T.);
#969 = EDGE_CURVE('',#941,#886,#970,.T.);
#970 = SEAM_CURVE('',#971,(#975,#982),.PCURVE_S1.);
#971 = LINE('',#972,#973);
#972 = CARTESIAN_POINT('',(-0.169184072065,0.299520866985,0.233056584021
    ));
#973 = VECTOR('',#974,1.);
#974 = DIRECTION('',(-0.425923559082,0.754048487711,0.5));
#975 = PCURVE('',#902,#976);
#976 = DEFINITIONAL_REPRESENTATION('',(#977),#981);
#977 = LINE('',#978,#979);
#978 = CARTESIAN_POINT('',(9.424777960769,1.387778780781E-17));
#979 = VECTOR('',#980,1.);
#980 = DIRECTION('',(0.,1.));
#981 = ( GEOMETRIC_REPRESENTATION_CONTEXT(2) 
PARAMETRIC_REPRESENTATION_CONTEXT() REPRESENTATION_CONTEXT('2D SPACE',''
  ) );
#982 = PCURVE('',#902,#983);
#983 = DEFINITIONAL_REPRESENTATION('',(#984),#988);
#984 = LINE('',#985,#986);
#985 = CARTESIAN_POINT('',(3.14159265359,1.387778780781E-17));
#986 = VECTOR('',#987,1.);
#987 = DIRECTION('',(0.,1.));
#988 = ( GEOMETRIC_REPRESENTATION_CONTEXT(2) 
PARAMETRIC_REPRESENTATION_CONTEXT() REPRESENTATION_CONTEXT('2D SPACE',''
  ) );
#989 = ORIENTED_EDGE('',*,*,#885,.T.);
#990 = ORIENTED_EDGE('',*,*,#969,.F.);
#991 = ADVANCED_FACE('',(#992,#995),#957,.T.);
#992 = FACE_BOUND('',#993,.T.);
#993 = EDGE_LOOP('',(#994));
#994 = ORIENTED_EDGE('',*,*,#940,.T.);
#995 = FACE_BOUND('',#996,.T.);
#996 = EDGE_LOOP('',(#997));
#997 = ORIENTED_EDGE('',*,*,#998,.F.);
#998 = EDGE_CURVE('',#999,#999,#1001,.T.);
#999 = VERTEX_POINT('',#1000);
#1000 = CARTESIAN_POINT('',(-0.127871682375,0.226382050628,
    0.200724968946));
#1001 = SURFACE_CURVE('',#1002,(#1007,#1014),.PCURVE_S1.);
#1002 = CIRCLE('',#1003,0.26);
#1003 = AXIS2_PLACEMENT_3D('',#1004,#1005,#1006);
#1004 = CARTESIAN_POINT('',(0.,1.110223024625E-15,0.200724968946));
#1005 = DIRECTION('',(-4.15786326255E-16,8.489718635473E-16,-1.));
#1006 = DIRECTION('',(0.491814162981,-0.870700194723,-9.436895709314E-16
    ));
#1007 = PCURVE('',#957,#1008);
#1008 = DEFINITIONAL_REPRESENTATION('',(#1009),#1013);
#1009 = CIRCLE('',#1010,0.26);
#1010 = AXIS2_PLACEMENT_2D('',#1011,#1012);
#1011 = CARTESIAN_POINT('',(9.853229343548E-16,-0.274));
#1012 = DIRECTION('',(0.,1.));
#1013 = ( GEOMETRIC_REPRESENTATION_CONTEXT(2) 
PARAMETRIC_REPRESENTATION_CONTEXT() REPRESENTATION_CONTEXT('2D SPACE',''
  ) );
#1014 = PCURVE('',#1015,#1020);
#1015 = CYLINDRICAL_SURFACE('',#1016,0.26);
#1016 = AXIS2_PLACEMENT_3D('',#1017,#1018,#1019);
#1017 = CARTESIAN_POINT('',(0.,1.221245327088E-15,0.100724968946));
#1018 = DIRECTION('',(-4.996003610813E-16,8.221595241569E-16,-1.));
#1019 = DIRECTION('',(0.491814162981,-0.870700194723,-9.436895709314E-16
    ));
#1020 = DEFINITIONAL_REPRESENTATION('',(#1021),#1025);
#1021 = LINE('',#1022,#1023);
#1022 = CARTESIAN_POINT('',(-6.28318530718,-0.1));
#1023 = VECTOR('',#1024,1.);
#1024 = DIRECTION('',(1.,0.));
#1025 = ( GEOMETRIC_REPRESENTATION_CONTEXT(2) 
PARAMETRIC_REPRESENTATION_CONTEXT() REPRESENTATION_CONTEXT('2D SPACE',''
  ) );
#1026 = ADVANCED_FACE('',(#1027),#1015,.T.);
#1027 = FACE_BOUND('',#1028,.T.);
#1028 = EDGE_LOOP('',(#1029,#1058,#1079,#1080));
#1029 = ORIENTED_EDGE('',*,*,#1030,.F.);
#1030 = EDGE_CURVE('',#1031,#1031,#1033,.T.);
#1031 = VERTEX_POINT('',#1032);
#1032 = CARTESIAN_POINT('',(-0.127871682375,0.226382050628,
    7.24968946052E-04));
#1033 = SURFACE_CURVE('',#1034,(#1039,#1046),.PCURVE_S1.);
#1034 = CIRCLE('',#1035,0.26);
#1035 = AXIS2_PLACEMENT_3D('',#1036,#1037,#1038);
#1036 = CARTESIAN_POINT('',(0.,1.221245327088E-15,7.249689460506E-04));
#1037 = DIRECTION('',(-4.15786326255E-16,8.489718635473E-16,-1.));
#1038 = DIRECTION('',(0.491814162981,-0.870700194723,-9.436895709314E-16
    ));
#1039 = PCURVE('',#1015,#1040);
#1040 = DEFINITIONAL_REPRESENTATION('',(#1041),#1045);
#1041 = LINE('',#1042,#1043);
#1042 = CARTESIAN_POINT('',(-6.28318530718,0.1));
#1043 = VECTOR('',#1044,1.);
#1044 = DIRECTION('',(1.,0.));
#1045 = ( GEOMETRIC_REPRESENTATION_CONTEXT(2) 
PARAMETRIC_REPRESENTATION_CONTEXT() REPRESENTATION_CONTEXT('2D SPACE',''
  ) );
#1046 = PCURVE('',#1047,#1052);
#1047 = PLANE('',#1048);
#1048 = AXIS2_PLACEMENT_3D('',#1049,#1050,#1051);
#1049 = CARTESIAN_POINT('',(6.393584118751E-02,-0.113191025314,
    7.249689460497E-04));
#1050 = DIRECTION('',(-4.996003610813E-16,8.221595241569E-16,-1.));
#1051 = DIRECTION('',(0.870700194723,0.491814162981,5.551115123126E-17)
  );
#1052 = DEFINITIONAL_REPRESENTATION('',(#1053),#1057);
#1053 = CIRCLE('',#1054,0.26);
#1054 = AXIS2_PLACEMENT_2D('',#1055,#1056);
#1055 = CARTESIAN_POINT('',(-1.457167719821E-16,-0.13));
#1056 = DIRECTION('',(0.,1.));
#1057 = ( GEOMETRIC_REPRESENTATION_CONTEXT(2) 
PARAMETRIC_REPRESENTATION_CONTEXT() REPRESENTATION_CONTEXT('2D SPACE',''
  ) );
#1058 = ORIENTED_EDGE('',*,*,#1059,.T.);
#1059 = EDGE_CURVE('',#1031,#999,#1060,.T.);
#1060 = SEAM_CURVE('',#1061,(#1065,#1072),.PCURVE_S1.);
#1061 = LINE('',#1062,#1063);
#1062 = CARTESIAN_POINT('',(-0.127871682375,0.226382050628,
    0.100724968946));
#1063 = VECTOR('',#1064,1.);
#1064 = DIRECTION('',(4.996003610813E-16,-8.221595241569E-16,1.));
#1065 = PCURVE('',#1015,#1066);
#1066 = DEFINITIONAL_REPRESENTATION('',(#1067),#1071);
#1067 = LINE('',#1068,#1069);
#1068 = CARTESIAN_POINT('',(-3.14159265359,0.));
#1069 = VECTOR('',#1070,1.);
#1070 = DIRECTION('',(0.,-1.));
#1071 = ( GEOMETRIC_REPRESENTATION_CONTEXT(2) 
PARAMETRIC_REPRESENTATION_CONTEXT() REPRESENTATION_CONTEXT('2D SPACE',''
  ) );
#1072 = PCURVE('',#1015,#1073);
#1073 = DEFINITIONAL_REPRESENTATION('',(#1074),#1078);
#1074 = LINE('',#1075,#1076);
#1075 = CARTESIAN_POINT('',(3.14159265359,0.));
#1076 = VECTOR('',#1077,1.);
#1077 = DIRECTION('',(0.,-1.));
#1078 = ( GEOMETRIC_REPRESENTATION_CONTEXT(2) 
PARAMETRIC_REPRESENTATION_CONTEXT() REPRESENTATION_CONTEXT('2D SPACE',''
  ) );
#1079 = ORIENTED_EDGE('',*,*,#998,.T.);
#1080 = ORIENTED_EDGE('',*,*,#1059,.F.);
#1081 = ADVANCED_FACE('',(#1082),#1047,.T.);
#1082 = FACE_BOUND('',#1083,.T.);
#1083 = EDGE_LOOP('',(#1084));
#1084 = ORIENTED_EDGE('',*,*,#1030,.T.);
#1085 = ( GEOMETRIC_REPRESENTATION_CONTEXT(3) 
GLOBAL_UNCERTAINTY_ASSIGNED_CONTEXT((#1089)) 
GLOBAL_UNIT_ASSIGNED_CONTEXT((#1086,#1087,#1088)) REPRESENTATION_CONTEXT
('Context #1','3D Context with UNIT and UNCERTAINTY') );
#1086 = ( LENGTH_UNIT() NAMED_UNIT(*) SI_UNIT(.MILLI.,.METRE.) );
#1087 = ( NAMED_UNIT(*) PLANE_ANGLE_UNIT() SI_UNIT($,.RADIAN.) );
#1088 = ( NAMED_UNIT(*) SI_UNIT($,.STERADIAN.) SOLID_ANGLE_UNIT() );
#1089 = UNCERTAINTY_MEASURE_WITH_UNIT(LENGTH_MEASURE(2.E-04),#1086,
  'distance_accuracy_value','confusion accuracy');
#1090 = PRODUCT_RELATED_PRODUCT_CATEGORY('part',$,(#7));
ENDSEC;
END-ISO-10303-21;
